{
.appVersion = "3337";
.formatVersion = 3;
DisplayStrings = (
"सूरज की करणें जगमगाती हैं।

",
"े",
"ै",
"क",
"/ivowelsign03deva ि"
);
axes = (
{
name = Weight;
tag = wght;
},
{
name = Width;
tag = wdth;
}
);
classes = (
{
code = "acandradeva acandranuktadeva ashortdeva ashortnuktadeva awdeva aydeva ecandradeva ecandranuktadeva eshortdeva eshortnuktadeva ocandradeva ocandranuktadeva oedeva ooedeva oshortdeva oshortnuktadeva";
name = class1;
},
{
code = "aideva ainuktadeva audeva aunuktadeva odeva onuktadeva";
name = class2;
},
{
code = "binducandradeva candrabindudeva anusvaradeva oevowelsigndeva ecandravowelsigndeva eshortvowelsigndeva evowelsigndeva aivowelsigndeva udattadeva uni0953 uni0954 candralongevowelsigndeva rephdeva oevowelsignanusvaradeva oevowelsignrephdeva oevowelsignrephanusvaradeva ecandravowelsignanusvaradeva ecandravowelsignrephdeva ecandravowelrephanusvaradeva eshortvowelsignanusvaradeva eshortvowelsignrephdeva eshortvowelsignrephanusvarade evowelsignanusvaradeva evowelsignrephdeva evowelsignrephanusvaradeva aivowelsignanusvaradeva aivowelsignrephdeva aivowelsignrephanusvaradeva rephanusvaradeva dummymarkdeva rephcandrabindudeva oevowelsigncandrabindudeva ecandravowelsigncandrabindudeva eshortvowelsigncandrabindudeva evowelsigncandrabindudeva aivowelsigncandrabindudeva oevowelsignrephcandrabindudeva ecandravowelrephcandrabindudeva eshortvowelrephcandrabindudeva evowelsignrephcandrabindudeva aivowelsignrephcandrabindudeva uniA8E0 uniA8E1 uniA8E2 uniA8E3 uniA8E4 uniA8E5 uniA8E6 uniA8E7 uniA8E8 uniA8E9 uniA8EA uniA8EB uniA8EC uniA8ED uniA8EE uniA8EF uniA8F0 uniA8F1 uni1CD0 uni1CD1 uni1CD2 uni1CDA uni1CDB uni1CF4 one_onedeva two_udeva three_kadeva one_radeva two_radeva three_radeva four_radeva five_radeva two_avagrahadeva two_uni1CD0 vi_radeva uni1CF8 uni1CF9 uni20F0 ayvowelsigndeva ayanusvaravowelsigndeva ayvowelsigncandrabindudeva ayvowelsignrephdeva ayvowelsignrephanusvaradeva ayvowelsignrephcandrabindudeva";
name = markAttachmentSet1;
},
{

glyphs = (
{
glyphname = .notdef;
layers = (
{
background = {
shapes = (
{
closed = 1;
nodes = (
(94,0,l),
(505,0,l),
(505,714,l),
(94,714,l)
);
},
{
closed = 1;
nodes = (
(145,51,l),
(145,663,l),
(454,663,l),
(454,51,l)
);
}
);
};
layerId = "AB31CCB0-FABB-42DD-B4D9-C6BC88EA8185";
shapes = (
{
closed = 1;
nodes = (
(94,0,l),
(505,0,l),
(505,714,l),
(94,714,l)
);
},
{
closed = 1;
nodes = (
(145,51,l),
(145,663,l),
(454,663,l),
(454,51,l)
);
}
);
width = 600;
}
);
},
{
glyphname = binducandradeva;
layers = (
{
anchors = (
{
name = _Anchor2;
pos = (-267,622);
}
);
background = {
shapes = (
{
closed = 1;
nodes = (
(-311,644,l),
(-293,746,o),
(-259,793,o),
(-186,793,cs),
(-121,793,o),
(-82,756,o),
(-42,643,c),
(70,684,l),
(15,835,o),
(-74,896,o),
(-185,896,cs),
(-309,896,o),
(-396,840,o),
(-434,682,c)
);
},
{
closed = 1;
nodes = (
(-116,745,o),
(-142,770,o),
(-185,770,cs),
(-228,770,o),
(-254,746,o),
(-254,706,cs),
(-254,669,o),
(-226,644,o),
(-185,644,cs),
(-142,644,o),
(-116,669,o),
(-116,706,cs)
);
}
);
};
layerId = "AB31CCB0-FABB-42DD-B4D9-C6BC88EA8185";
shapes = (
{
closed = 1;
nodes = (
(-311,644,l),
(-293,746,o),
(-259,793,o),
(-186,793,cs),
(-121,793,o),
(-82,756,o),
(-42,643,c),
(70,684,l),
(15,835,o),
(-74,896,o),
(-185,896,cs),
(-309,896,o),
(-396,840,o),
(-434,682,c)
);
},
{
closed = 1;
nodes = (
(-116,745,o),
(-142,770,o),
(-185,770,cs),
(-228,770,o),
(-254,746,o),
(-254,706,cs),
(-254,669,o),
(-226,644,o),
(-185,644,cs),
(-142,644,o),
(-116,669,o),
(-116,706,cs)
);
}
);
width = 0;
}
);
unicode = 2304;
},
{
glyphname = candrabindudeva;
layers = (
{
anchors = (
{
name = _Anchor2;
pos = (-267,622);
}
);
background = {
shapes = (
{
closed = 1;
nodes = (
(-248,795,o),
(-222,770,o),
(-179,770,cs),
(-136,770,o),
(-110,794,o),
(-110,834,cs),
(-110,871,o),
(-138,896,o),
(-179,896,cs),
(-222,896,o),
(-248,871,o),
(-248,834,cs)
);
},
{
closed = 1;
nodes = (
(-53,896,l),
(-71,794,o),
(-105,747,o),
(-178,747,cs),
(-243,747,o),
(-282,784,o),
(-322,896,c),
(-434,856,l),
(-379,705,o),
(-290,644,o),
(-179,644,cs),
(-54,644,o),
(33,700,o),
(71,858,c)
);
}
);
};
layerId = "AB31CCB0-FABB-42DD-B4D9-C6BC88EA8185";
shapes = (
{
closed = 1;
nodes = (
(-248,795,o),
(-222,770,o),
(-179,770,cs),
(-136,770,o),
(-110,794,o),
(-110,834,cs),
(-110,871,o),
(-138,896,o),
(-179,896,cs),
(-222,896,o),
(-248,871,o),
(-248,834,cs)
);
},
{
closed = 1;
nodes = (
(-53,896,l),
(-71,794,o),
(-105,747,o),
(-178,747,cs),
(-243,747,o),
(-282,784,o),
(-322,896,c),
(-434,856,l),
(-379,705,o),
(-290,644,o),
(-179,644,cs),
(-54,644,o),
(33,700,o),
(71,858,c)
);
}
);
width = 0;
}
);
unicode = 2305;
},
{
glyphname = anusvaradeva;
lastChange = "2025-02-11 09:10:41 +0000";
layers = (
{
anchors = (
{
name = _Anchor2;
pos = (-247,622);
}
);
background = {
shapes = (
{
closed = 1;
nodes = (
(-241,727,o),
(-207,693,o),
(-158,693,cs),
(-110,693,o),
(-76,727,o),
(-76,774,cs),
(-76,820,o),
(-110,855,o),
(-158,855,cs),
(-207,855,o),
(-241,820,o),
(-241,774,cs)
);
}
);
};
layerId = "AB31CCB0-FABB-42DD-B4D9-C6BC88EA8185";
shapes = (
{
closed = 1;
nodes = (
(-121,676,o),
(-112,691,o),
(-104,712,c),
(-122,718,o),
(-135,730,o),
(-149,749,c),
(-155,728,o),
(-168,716,o),
(-188,705,c),
(-172,686,o),
(-163,676,o),
(-143,667,c)
);
}
);
width = 0;
}
);
unicode = 2306;
},
{
glyphname = visargadeva;
layers = (
{
background = {
shapes = (
{
closed = 1;
nodes = (
(72,69,o),
(108,33,o),
(159,33,cs),
(209,33,o),
(245,69,o),
(245,118,cs),
(245,166,o),
(209,203,o),
(159,203,cs),
(108,203,o),
(72,166,o),
(72,118,cs)
);
},
{
closed = 1;
nodes = (
(72,388,o),
(108,352,o),
(159,352,cs),
(209,352,o),
(245,388,o),
(245,437,cs),
(245,485,o),
(209,522,o),
(159,522,cs),
(108,522,o),
(72,485,o),
(72,437,cs)
);
}
);
};
layerId = "AB31CCB0-FABB-42DD-B4D9-C6BC88EA8185";
shapes = (
{
closed = 1;
nodes = (
(72,69,o),
(108,33,o),
(159,33,cs),
(209,33,o),
(245,69,o),
(245,118,cs),
(245,166,o),
(209,203,o),
(159,203,cs),
(108,203,o),
(72,166,o),
(72,118,cs)
);
},
{
closed = 1;
nodes = (
(72,388,o),
(108,352,o),
(159,352,cs),
(209,352,o),
(245,388,o),
(245,437,cs),
(245,485,o),
(209,522,o),
(159,522,cs),
(108,522,o),
(72,485,o),
(72,437,cs)
);
}
);
width = 301;
}
);
unicode = 2307;
},
{
glyphname = ashortdeva;
layers = (
{
background = {
shapes = (
{
closed = 1;
nodes = (
(923,484,l),
(923,622,l),
(604,622,l),
(604,484,l),
(661,484,l),
(661,0,l),
(838,0,l),
(838,484,l)
);
},
{
closed = 1;
nodes = (
(283,632,o),
(222,612,o),
(170,588,c),
(215,464,l),
(254,483,o),
(292,494,o),
(328,494,cs),
(355,494,o),
(375,484,o),
(375,458,cs),
(375,432,o),
(358,418,o),
(292,414,c),
(298,282,l),
(460,287,o),
(550,356,o),
(550,468,cs),
(550,562,o),
(482,632,o),
(356,632,cs)
);
},
{
closed = 1;
nodes = (
(565,246,o),
(557,275,o),
(544,300,c),
(534,317,l),
(520,339,o),
(501,358,o),
(480,374,c),
(396,378,l),
(315,341,l),
(362,309,o),
(388,275,o),
(388,231,cs),
(388,206,o),
(371,193,o),
(343,193,cs),
(273,193,o),
(210,277,o),
(161,401,c),
(14,346,l),
(107,117,o),
(225,52,o),
(357,52,cs),
(488,52,o),
(565,111,o),
(565,212,cs)
);
},
{
closed = 1;
nodes = (
(521,349,o),
(494,353,o),
(470,358,c),
(455,345,l),
(467,231,l),
(495,226,o),
(535,220,o),
(578,220,cs),
(623,220,o),
(665,226,o),
(705,251,c),
(705,383,l),
(660,358,o),
(617,349,o),
(561,349,cs)
);
},
{
closed = 1;
nodes = (
(820,615,l),
(772,803,o),
(719,833,o),
(645,833,cs),
(616,833,o),
(595,830,o),
(569,830,cs),
(532,830,o),
(519,847,o),
(497,896,c),
(374,851,l),
(416,741,o),
(459,706,o),
(524,706,cs),
(537,706,o),
(556,709,o),
(580,709,cs),
(610,709,o),
(643,697,o),
(667,615,c)
);
}
);
};
layerId = "AB31CCB0-FABB-42DD-B4D9-C6BC88EA8185";
shapes = (
{
closed = 1;
nodes = (
(923,484,l),
(923,622,l),
(604,622,l),
(604,484,l),
(661,484,l),
(661,0,l),
(838,0,l),
(838,484,l)
);
},
{
closed = 1;
nodes = (
(283,632,o),
(222,612,o),
(170,588,c),
(215,464,l),
(254,483,o),
(292,494,o),
(328,494,cs),
(355,494,o),
(375,484,o),
(375,458,cs),
(375,432,o),
(358,418,o),
(292,414,c),
(298,282,l),
(460,287,o),
(550,356,o),
(550,468,cs),
(550,562,o),
(482,632,o),
(356,632,cs)
);
},
{
closed = 1;
nodes = (
(565,246,o),
(557,275,o),
(544,300,c),
(534,317,l),
(520,339,o),
(501,358,o),
(480,374,c),
(396,378,l),
(315,341,l),
(362,309,o),
(388,275,o),
(388,231,cs),
(388,206,o),
(371,193,o),
(343,193,cs),
(273,193,o),
(210,277,o),
(161,401,c),
(14,346,l),
(107,117,o),
(225,52,o),
(357,52,cs),
(488,52,o),
(565,111,o),
(565,212,cs)
);
},
{
closed = 1;
nodes = (
(521,349,o),
(494,353,o),
(470,358,c),
(455,345,l),
(467,231,l),
(495,226,o),
(535,220,o),
(578,220,cs),
(623,220,o),
(665,226,o),
(705,251,c),
(705,383,l),
(660,358,o),
(617,349,o),
(561,349,cs)
);
},
{
closed = 1;
nodes = (
(820,615,l),
(772,803,o),
(719,833,o),
(645,833,cs),
(616,833,o),
(595,830,o),
(569,830,cs),
(532,830,o),
(519,847,o),
(497,896,c),
(374,851,l),
(416,741,o),
(459,706,o),
(524,706,cs),
(537,706,o),
(556,709,o),
(580,709,cs),
(610,709,o),
(643,697,o),
(667,615,c)
);
}
);
width = 908;
}
);
unicode = 2308;
},
{
glyphname = adeva;
lastChange = "2025-02-13 06:10:37 +0000";
layers = (
{
background = {
shapes = (
{
closed = 1;
nodes = (
(816,484,l),
(816,622,l),
(497,622,l),
(497,484,l),
(554,484,l),
(554,0,l),
(731,0,l),
(731,484,l)
);
},
{
closed = 1;
nodes = (
(176,632,o),
(115,612,o),
(63,588,c),
(108,464,l),
(147,483,o),
(185,494,o),
(221,494,cs),
(248,494,o),
(268,484,o),
(268,458,cs),
(268,432,o),
(251,418,o),
(185,414,c),
(191,282,l),
(353,287,o),
(443,356,o),
(443,468,cs),
(443,562,o),
(375,632,o),
(249,632,cs)
);
},
{
closed = 1;
nodes = (
(458,246,o),
(450,275,o),
(437,300,c),
(427,317,l),
(413,339,o),
(394,358,o),
(373,374,c),
(289,378,l),
(208,341,l),
(255,309,o),
(281,275,o),
(281,231,cs),
(281,206,o),
(264,193,o),
(236,193,cs),
(166,193,o),
(103,277,o),
(54,401,c),
(-93,346,l),
(0,117,o),
(118,52,o),
(250,52,cs),
(381,52,o),
(458,111,o),
(458,212,cs)
);
},
{
closed = 1;
nodes = (
(414,349,o),
(387,353,o),
(363,358,c),
(348,345,l),
(360,231,l),
(388,226,o),
(428,220,o),
(471,220,cs),
(516,220,o),
(558,226,o),
(598,251,c),
(598,383,l),
(553,358,o),
(510,349,o),
(454,349,cs)
);
}
);
};
layerId = "AB31CCB0-FABB-42DD-B4D9-C6BC88EA8185";
shapes = (
{
closed = 1;
nodes = (
(-21,15,o),
(14,48,o),
(34,59,c),
(22,133,o),
(21,217,o),
(29,313,c),
(3,329,o),
(-12,347,o),
(-26,375,c),
(-34,366,o),
(-43,362,o),
(-56,355,c),
(-46,330,o),
(-30,311,o),
(-10,297,c),
(-19,208,o),
(-13,123,o),
(-7,39,c),
(-15,32,l),
(-21,47,o),
(-30,62,o),
(-40,75,c),
(-47,65,o),
(-56,59,o),
(-65,55,c),
(-51,38,o),
(-40,19,o),
(-32,0,c)
);
},
{
closed = 1;
nodes = (
(89,18,o),
(106,32,o),
(126,44,c),
(118,51,o),
(116,57,o),
(116,72,c),
(116,547,l),
(116,563,o),
(118,575,o),
(120,587,c),
(118,587,l),
(102,569,o),
(87,554,o),
(65,543,c),
(71,536,o),
(74,529,o),
(74,520,c),
(74,35,l),
(74,19,o),
(73,8,o),
(70,-5,c)
);
},
{
closed = 1;
nodes = (
(22,410,o),
(25,521,o),
(30,527,c),
(7,538,o),
(-10,555,o),
(-20,579,c),
(-29,565,o),
(-40,556,o),
(-53,550,c),
(-41,533,o),
(-27,518,o),
(-13,507,c),
(-17,462,o),
(-16,408,o),
(-13,365,c),
(-27,351,o),
(-30,345,o),
(-35,337,c),
(-33,335,l),
(-5,359,o),
(32,381,o),
(80,404,c),
(79,411,l),
(60,403,o),
(44,394,o),
(27,385,c)
);
},
{
closed = 1;
nodes = (
(138,578,l),
(184,621,l),
(-74,621,l),
(-120,578,l)
);
}
);
width = 214;
}
);
unicode = 2309;
},
{
glyphname = aadeva;
lastChange = "2025-02-13 06:10:55 +0000";
layers = (
{
background = {
shapes = (
{
closed = 1;
nodes = (
(830,484,l),
(830,622,l),
(511,622,l),
(511,484,l),
(568,484,l),
(568,0,l),
(745,0,l),
(745,484,l)
);
},
{
closed = 1;
nodes = (
(190,632,o),
(129,612,o),
(77,588,c),
(122,464,l),
(161,483,o),
(199,494,o),
(235,494,cs),
(262,494,o),
(282,484,o),
(282,458,cs),
(282,432,o),
(265,418,o),
(199,414,c),
(205,282,l),
(367,287,o),
(457,356,o),
(457,468,cs),
(457,562,o),
(389,632,o),
(263,632,cs)
);
},
{
closed = 1;
nodes = (
(472,246,o),
(464,275,o),
(451,300,c),
(441,317,l),
(427,339,o),
(408,358,o),
(387,374,c),
(303,378,l),
(222,341,l),
(269,309,o),
(295,275,o),
(295,231,cs),
(295,206,o),
(278,193,o),
(250,193,cs),
(180,193,o),
(117,277,o),
(68,401,c),
(-79,346,l),
(14,117,o),
(132,52,o),
(264,52,cs),
(395,52,o),
(472,111,o),
(472,212,cs)
);
},
{
closed = 1;
nodes = (
(428,349,o),
(401,353,o),
(377,358,c),
(362,345,l),
(374,231,l),
(402,226,o),
(442,220,o),
(485,220,cs),
(530,220,o),
(572,226,o),
(612,251,c),
(612,383,l),
(567,358,o),
(524,349,o),
(468,349,cs)
);
},
{
closed = 1;
nodes = (
(1147,484,l),
(1147,622,l),
(815,622,l),
(815,484,l),
(885,484,l),
(885,0,l),
(1062,0,l),
(1062,484,l)
);
}
);
};
layerId = "AB31CCB0-FABB-42DD-B4D9-C6BC88EA8185";
shapes = (
{
closed = 1;
nodes = (
(102,569,o),
(118,575,o),
(120,587,c),
(118,587,l)
);
},
{
closed = 1;
nodes = (
(223,578,l),
(269,621,l),
(-74,621,l),
(-120,578,l)
);
},
{
closed = 1;
nodes = (
(89,18,o),
(106,32,o),
(126,44,c),
(118,51,o),
(116,57,o),
(116,72,c),
(116,547,l),
(116,563,o),
(118,575,o),
(120,587,c),
(118,587,l),
(102,569,o),
(87,554,o),
(65,543,c),
(71,536,o),
(74,529,o),
(74,520,c),
(74,35,l),
(74,19,o),
(73,8,o),
(70,-5,c)
);
},
{
closed = 1;
nodes = (
(171,18,o),
(188,32,o),
(208,44,c),
(200,51,o),
(198,57,o),
(198,72,c),
(198,547,l),
(198,563,o),
(200,575,o),
(202,587,c),
(200,587,l),
(184,569,o),
(169,554,o),
(147,543,c),
(153,536,o),
(156,529,o),
(156,520,c),
(156,35,l),
(156,19,o),
(155,8,o),
(152,-5,c)
);
},
{
closed = 1;
nodes = (
(-21,15,o),
(14,48,o),
(34,59,c),
(22,133,o),
(21,217,o),
(29,313,c),
(3,329,o),
(-12,347,o),
(-26,375,c),
(-34,366,o),
(-43,362,o),
(-56,355,c),
(-46,330,o),
(-30,311,o),
(-10,297,c),
(-19,208,o),
(-13,123,o),
(-7,39,c),
(-15,32,l),
(-21,47,o),
(-30,62,o),
(-40,75,c),
(-47,65,o),
(-56,59,o),
(-65,55,c),
(-51,38,o),
(-40,19,o),
(-32,0,c)
);
},
{
closed = 1;
nodes = (
(22,410,o),
(25,521,o),
(30,527,c),
(7,538,o),
(-10,555,o),
(-20,579,c),
(-29,565,o),
(-40,556,o),
(-53,550,c),
(-41,533,o),
(-27,518,o),
(-13,507,c),
(-17,462,o),
(-16,408,o),
(-13,365,c),
(-27,351,o),
(-30,345,o),
(-35,337,c),
(-33,335,l),
(-5,359,o),
(32,381,o),
(80,404,c),
(79,411,l),
(60,403,o),
(44,394,o),
(27,385,c)
);
}
);
width = 269;
}
);
unicode = 2310;
},
{
glyphname = ideva;
lastChange = "2025-02-13 06:11:09 +0000";
layers = (
{
anchors = (
{
name = Anchor2;
pos = (155,622);
}
);
background = {
shapes = (
{
closed = 1;
nodes = (
(193,181,o),
(205,174,o),
(205,157,cs),
(205,139,o),
(184,126,o),
(119,126,cs),
(93,126,o),
(46,129,o),
(-5,150,c),
(23,18,l),
(103,-34,o),
(204,-91,o),
(299,-132,c),
(355,-13,l),
(284,4,o),
(181,37,o),
(132,59,c),
(85,124,o),
(31,164,o),
(-21,164,cs),
(-56,164,o),
(-95,147,o),
(-95,92,cs),
(-95,20,o),
(-27,0,o),
(98,0,cs),
(129,0,o),
(130,6,o),
(136,6,c),
(321,-3,o),
(383,71,o),
(383,153,cs),
(383,237,o),
(323,299,o),
(192,299,cs),
(147,299,o),
(125,295,o),
(96,290,c),
(87,299,o),
(81,306,o),
(81,317,cs),
(81,321,o),
(82,324,o),
(85,327,cs),
(89,331,o),
(96,333,o),
(109,333,cs),
(329,333,l),
(329,484,l),
(426,484,l),
(426,622,l),
(-129,622,l),
(-129,484,l),
(155,484,l),
(155,444,l),
(109,444,ls),
(10,444,o),
(-22,436,o),
(-54,409,cs),
(-82,386,o),
(-92,358,o),
(-92,325,cs),
(-92,254,o),
(-26,196,o),
(40,166,c),
(73,176,o),
(114,181,o),
(144,181,cs)
);
}
);
};
layerId = "AB31CCB0-FABB-42DD-B4D9-C6BC88EA8185";
shapes = (
{
closed = 1;
nodes = (
(47,38,o),
(74,54,o),
(97,63,c),
(90,79,o),
(92,303,o),
(97,321,c),
(79,332,o),
(64,345,o),
(54,363,c),
(43,351,o),
(28,337,o),
(8,327,c),
(12,367,o),
(10,403,o),
(5,447,c),
(9,450,o),
(13,453,o),
(16,457,c),
(12,464,l),
(-2,448,o),
(-19,435,o),
(-37,425,c),
(-32,411,o),
(-29,314,o),
(-35,293,c),
(-12,303,o),
(5,313,o),
(24,327,c),
(34,314,o),
(44,304,o),
(54,300,c),
(48,295,o),
(48,62,o),
(54,51,c),
(51,48,o),
(44,45,o),
(41,42,c),
(41,42,o),
(13,0,o),
(30,19,cs)
);
},
{
closed = 1;
nodes = (
(50,-28,l),
(54,33,o),
(37,65,o),
(6,114,c),
(9,162,o),
(11,228,o),
(6,271,c),
(-7,262,o),
(-21,256,o),
(-34,251,c),
(-28,230,o),
(-26,116,o),
(-35,93,c),
(7,42,o),
(21,-15,o),
(16,-67,c)
);
},
{
closed = 1;
nodes = (
(66,395,o),
(80,406,o),
(96,415,c),
(88,443,o),
(76,464,o),
(55,488,c),
(52,520,o),
(52,550,o),
(56,584,c),
(43,569,o),
(28,558,o),
(6,552,c),
(3,519,o),
(3,485,o),
(8,454,c),
(37,429,o),
(46,418,o),
(57,379,c)
);
},
{
closed = 1;
nodes = (
(106,578,l),
(152,621,l),
(-44,621,l),
(-90,578,l)
);
}
);
width = 152;
}
);
unicode = 2311;
},
{
glyphname = udeva;
lastChange = "2025-02-13 06:13:57 +0000";
layers = (
{
anchors = (
{
name = Anchor2;
pos = (288,622);
},
{
name = Anchor8;
pos = (257,0);
}
);
background = {
shapes = (
{
closed = 1;
nodes = (
(-70,484,l),
(554,484,l),
(554,622,l),
(-70,622,l)
);
},
{
closed = 1;
nodes = (
(226,521,l),
(275,503,o),
(312,480,o),
(312,441,cs),
(312,397,o),
(278,389,o),
(212,386,c),
(219,254,l),
(385,262,o),
(489,324,o),
(489,436,cs),
(489,546,o),
(344,609,o),
(256,619,c)
);
},
{
closed = 1;
nodes = (
(258,288,l),
(303,261,o),
(333,228,o),
(333,184,cs),
(333,159,o),
(320,141,o),
(284,141,cs),
(208,141,o),
(147,226,o),
(91,366,c),
(-56,311,l),
(44,66,o),
(164,0,o),
(297,0,cs),
(432,0,o),
(511,57,o),
(511,167,cs),
(511,234,o),
(466,296,o),
(411,336,c)
);
}
);
};
layerId = "AB31CCB0-FABB-42DD-B4D9-C6BC88EA8185";
shapes = (
{
closed = 1;
nodes = (
(-3,19,o),
(-14,38,o),
(-28,55,c),
(-19,59,o),
(-10,65,o),
(-3,75,c),
(7,62,o),
(16,47,o),
(22,32,c),
(30,39,l),
(24,123,o),
(18,208,o),
(27,297,c),
(7,311,o),
(-9,330,o),
(-19,355,c),
(-6,362,o),
(3,366,o),
(11,375,c),
(25,347,o),
(40,329,o),
(66,313,c),
(58,217,o),
(59,133,o),
(71,59,c),
(51,48,o),
(16,15,o),
(5,0,c)
);
},
{
closed = 1;
nodes = (
(2,338,l),
(7,346,o),
(10,351,o),
(24,365,c),
(21,408,o),
(20,462,o),
(24,507,c),
(10,518,o),
(-4,533,o),
(-16,550,c),
(-3,556,o),
(8,565,o),
(17,579,c),
(27,555,o),
(44,538,o),
(67,527,c),
(62,521,o),
(61,408,o),
(66,383,c),
(40,370,o),
(18,355,o),
(5,338,c)
);
},
{
closed = 1;
nodes = (
(-34,621,l),
(140,621,l),
(94,578,l),
(-80,578,l)
);
}
);
width = 140;
}
);
unicode = 2313;
},
{
glyphname = uudeva;
lastChange = "2025-02-13 06:14:33 +0000";
layers = (
{
anchors = (
{
name = Anchor2;
pos = (268,622);
},
{
name = Anchor8;
pos = (237,0);
}
);
background = {
shapes = (
{
closed = 1;
nodes = (
(-90,484,l),
(800,484,l),
(800,622,l),
(-90,622,l)
);
},
{
closed = 1;
nodes = (
(206,521,l),
(255,503,o),
(292,480,o),
(292,441,cs),
(292,397,o),
(258,389,o),
(192,386,c),
(199,254,l),
(365,262,o),
(469,324,o),
(469,436,cs),
(469,546,o),
(324,609,o),
(236,619,c)
);
},
{
closed = 1;
nodes = (
(238,288,l),
(283,261,o),
(313,228,o),
(313,184,cs),
(313,159,o),
(300,141,o),
(264,141,cs),
(188,141,o),
(127,226,o),
(71,366,c),
(-76,311,l),
(24,66,o),
(144,0,o),
(277,0,cs),
(412,0,o),
(491,57,o),
(491,167,cs),
(491,234,o),
(444,295,o),
(385,336,c)
);
},
{
closed = 1;
nodes = (
(468,176,l),
(489,199,o),
(516,220,o),
(542,220,cs),
(564,220,o),
(582,209,o),
(582,178,cs),
(582,149,o),
(565,112,o),
(543,82,c),
(696,2,l),
(740,65,o),
(759,128,o),
(759,192,cs),
(759,296,o),
(687,357,o),
(576,357,cs),
(496,357,o),
(449,329,o),
(390,288,c)
);
}
);
};
layerId = "AB31CCB0-FABB-42DD-B4D9-C6BC88EA8185";
shapes = (
{
closed = 1;
nodes = (
(-19,19,o),
(-30,38,o),
(-44,55,c),
(-35,59,o),
(-26,65,o),
(-19,75,c),
(-9,62,o),
(0,47,o),
(6,32,c),
(14,39,l),
(8,123,o),
(2,208,o),
(11,297,c),
(-9,311,o),
(-25,330,o),
(-35,355,c),
(-22,362,o),
(-13,366,o),
(-5,375,c),
(9,347,o),
(24,329,o),
(50,313,c),
(42,217,o),
(43,133,o),
(55,59,c),
(35,48,o),
(0,15,o),
(-11,0,c)
);
},
{
closed = 1;
nodes = (
(34,375,o),
(17,362,o),
(-11,338,c),
(-14,338,l),
(-9,346,o),
(-6,351,o),
(8,365,c),
(5,408,o),
(4,462,o),
(8,507,c),
(-6,518,o),
(-20,533,o),
(-32,550,c),
(-19,556,o),
(-8,565,o),
(1,579,c),
(11,555,o),
(28,538,o),
(51,527,c),
(46,521,o),
(43,413,o),
(48,388,c),
(65,399,o),
(94,412,o),
(124,419,c),
(114,298,o),
(113,182,o),
(122,67,c),
(90,47,o),
(63,24,o),
(42,0,c),
(43,12,l),
(53,25,o),
(66,38,o),
(82,51,c),
(76,163,o),
(76,286,o),
(82,398,c)
);
},
{
closed = 1;
nodes = (
(-44,621,l),
(195,621,l),
(149,578,l),
(-90,578,l)
);
}
);
width = 195;
}
);
unicode = 2314;
},
{
glyphname = rvocalicdeva;
layers = (
{
anchors = (
{
name = Anchor2;
pos = (390,622);
},
{
name = Anchor8;
pos = (478,0);
}
);
background = {
shapes = (
{
closed = 1;
nodes = (
(992,484,l),
(992,622,l),
(0,622,l),
(0,484,l),
(390,484,l),
(390,0,l),
(567,0,l),
(567,484,l)
);
},
{
closed = 1;
nodes = (
(79,252,l),
(136,280,o),
(169,292,o),
(209,292,cs),
(247,292,o),
(267,280,o),
(310,238,c),
(416,267,l),
(416,302,l),
(335,404,o),
(290,435,o),
(205,435,cs),
(146,435,o),
(91,418,o),
(24,387,c)
);
},
{
closed = 1;
nodes = (
(476,216,l),
(359,293,l),
(52,134,l),
(137,15,l)
);
},
{
closed = 1;
nodes = (
(533,198,l),
(602,201,o),
(659,209,o),
(710,225,c),
(722,202,o),
(742,164,o),
(762,132,c),
(857,140,l),
(888,183,l),
(862,217,o),
(847,241,o),
(830,269,c),
(849,281,o),
(862,309,o),
(862,340,cs),
(862,386,o),
(833,435,o),
(756,435,cs),
(705,435,o),
(657,406,o),
(657,349,cs),
(657,334,o),
(661,320,o),
(664,311,c),
(686,349,l),
(647,332,o),
(581,328,o),
(536,326,c)
);
},
{
closed = 1;
nodes = (
(941,85,l),
(898,64,o),
(872,56,o),
(841,56,cs),
(811,56,o),
(795,70,o),
(795,93,cs),
(795,111,o),
(804,133,o),
(857,140,c),
(772,236,l),
(716,221,o),
(637,188,o),
(637,91,cs),
(637,-6,o),
(717,-67,o),
(824,-67,cs),
(897,-67,o),
(950,-46,o),
(988,-30,c)
);
}
);
};
layerId = "AB31CCB0-FABB-42DD-B4D9-C6BC88EA8185";
shapes = (
{
closed = 1;
nodes = (
(992,484,l),
(992,622,l),
(0,622,l),
(0,484,l),
(390,484,l),
(390,0,l),
(567,0,l),
(567,484,l)
);
},
{
closed = 1;
nodes = (
(79,252,l),
(136,280,o),
(169,292,o),
(209,292,cs),
(247,292,o),
(267,280,o),
(310,238,c),
(416,267,l),
(416,302,l),
(335,404,o),
(290,435,o),
(205,435,cs),
(146,435,o),
(91,418,o),
(24,387,c)
);
},
{
closed = 1;
nodes = (
(476,216,l),
(359,293,l),
(52,134,l),
(137,15,l)
);
},
{
closed = 1;
nodes = (
(533,198,l),
(602,201,o),
(659,209,o),
(710,225,c),
(722,202,o),
(742,164,o),
(762,132,c),
(857,140,l),
(888,183,l),
(862,217,o),
(847,241,o),
(830,269,c),
(849,281,o),
(862,309,o),
(862,340,cs),
(862,386,o),
(833,435,o),
(756,435,cs),
(705,435,o),
(657,406,o),
(657,349,cs),
(657,334,o),
(661,320,o),
(664,311,c),
(686,349,l),
(647,332,o),
(581,328,o),
(536,326,c)
);
},
{
closed = 1;
nodes = (
(941,85,l),
(898,64,o),
(872,56,o),
(841,56,cs),
(811,56,o),
(795,70,o),
(795,93,cs),
(795,111,o),
(804,133,o),
(857,140,c),
(772,236,l),
(716,221,o),
(637,188,o),
(637,91,cs),
(637,-6,o),
(717,-67,o),
(824,-67,cs),
(897,-67,o),
(950,-46,o),
(988,-30,c)
);
}
);
width = 977;
}
);
unicode = 2315;
},
{
glyphname = lvocalicdeva;
layers = (
{
anchors = (
{
name = Anchor2;
pos = (477,622);
},
{
name = Anchor8;
pos = (398,0);
}
);
background = {
shapes = (
{
closed = 1;
nodes = (
(813,622,l),
(0,622,l),
(0,484,l),
(477,484,l),
(477,403,l),
(651,359,l),
(651,484,l),
(813,484,l)
);
},
{
closed = 1;
nodes = (
(139,423,o),
(29,383,o),
(29,252,cs),
(29,156,o),
(109,70,o),
(219,-18,c),
(328,90,l),
(232,159,o),
(206,201,o),
(206,238,cs),
(206,267,o),
(224,284,o),
(253,284,cs),
(294,284,o),
(318,261,o),
(351,225,c),
(411,355,l),
(344,403,o),
(306,423,o),
(219,423,cs)
);
},
{
closed = 1;
nodes = (
(477,-62,o),
(557,-123,o),
(664,-123,cs),
(737,-123,o),
(785,-104,o),
(828,-86,c),
(781,29,l),
(738,8,o),
(712,0,o),
(681,0,cs),
(651,0,o),
(635,14,o),
(635,37,cs),
(635,60,o),
(650,82,o),
(714,85,c),
(698,197,l),
(560,187,o),
(477,136,o),
(477,35,cs)
);
},
{
closed = 1;
nodes = (
(407,421,o),
(318,355,o),
(282,209,c),
(448,159,l),
(472,257,o),
(510,289,o),
(543,289,cs),
(567,289,o),
(582,273,o),
(582,242,cs),
(582,205,o),
(574,174,o),
(546,133,c),
(714,85,l),
(744,139,o),
(759,182,o),
(759,237,cs),
(759,348,o),
(679,421,o),
(552,421,cs)
);
}
);
};
layerId = "AB31CCB0-FABB-42DD-B4D9-C6BC88EA8185";
shapes = (
{
closed = 1;
nodes = (
(813,622,l),
(0,622,l),
(0,484,l),
(477,484,l),
(477,403,l),
(651,359,l),
(651,484,l),
(813,484,l)
);
},
{
closed = 1;
nodes = (
(139,423,o),
(29,383,o),
(29,252,cs),
(29,156,o),
(109,70,o),
(219,-18,c),
(328,90,l),
(232,159,o),
(206,201,o),
(206,238,cs),
(206,267,o),
(224,284,o),
(253,284,cs),
(294,284,o),
(318,261,o),
(351,225,c),
(411,355,l),
(344,403,o),
(306,423,o),
(219,423,cs)
);
},
{
closed = 1;
nodes = (
(477,-62,o),
(557,-123,o),
(664,-123,cs),
(737,-123,o),
(785,-104,o),
(828,-86,c),
(781,29,l),
(738,8,o),
(712,0,o),
(681,0,cs),
(651,0,o),
(635,14,o),
(635,37,cs),
(635,60,o),
(650,82,o),
(714,85,c),
(698,197,l),
(560,187,o),
(477,136,o),
(477,35,cs)
);
},
{
closed = 1;
nodes = (
(407,421,o),
(318,355,o),
(282,209,c),
(448,159,l),
(472,257,o),
(510,289,o),
(543,289,cs),
(567,289,o),
(582,273,o),
(582,242,cs),
(582,205,o),
(574,174,o),
(546,133,c),
(714,85,l),
(744,139,o),
(759,182,o),
(759,237,cs),
(759,348,o),
(679,421,o),
(552,421,cs)
);
}
);
width = 798;
}
);
unicode = 2316;
},
{
glyphname = edeva;
lastChange = "2025-02-13 06:14:44 +0000";
layers = (
{
anchors = (
{
name = Anchor2;
pos = (312,622);
},
{
name = Anchor8;
pos = (221,0);
}
);
background = {
shapes = (
{
closed = 1;
nodes = (
(562,622,l),
(-94,622,l),
(-94,484,l),
(-32,484,l),
(-32,332,ls),
(-32,266,o),
(-29,239,o),
(-16,210,cs),
(3,168,o),
(37,138,o),
(104,99,cs),
(236,24,ls),
(310,-19,o),
(322,-35,o),
(322,-71,cs),
(322,-96,o),
(309,-115,o),
(299,-127,c),
(437,-206,l),
(471,-160,o),
(499,-110,o),
(499,-49,cs),
(499,1,o),
(487,53,o),
(392,107,cs),
(226,202,ls),
(152,244,o),
(145,260,o),
(145,334,cs),
(145,484,l),
(312,484,l),
(312,410,ls),
(312,376,o),
(307,366,o),
(298,357,cs),
(291,350,o),
(280,344,o),
(254,340,c),
(282,198,l),
(362,209,o),
(406,223,o),
(441,252,cs),
(477,281,o),
(489,318,o),
(489,392,cs),
(489,484,l),
(562,484,l)
);
}
);
};
layerId = "AB31CCB0-FABB-42DD-B4D9-C6BC88EA8185";
shapes = (
{
closed = 1;
nodes = (
(118,579,l),
(164,622,l),
(-49,621,l),
(-95,578,l)
);
},
{
closed = 1;
nodes = (
(-39,145,o),
(-35,142,o),
(-31,137,c),
(2,95,o),
(25,57,o),
(51,2,c),
(61,14,o),
(73,22,o),
(85,27,c),
(61,76,o),
(31,121,o),
(-2,164,c),
(5,301,o),
(3,442,o),
(0,582,c),
(-8,567,o),
(-23,551,o),
(-42,538,c),
(-40,535,o),
(-40,531,o),
(-40,526,c),
(-37,456,o),
(-34,234,o),
(-42,146,c)
);
},
{
closed = 1;
nodes = (
(22,112,l),
(27,103,l),
(44,119,o),
(65,133,o),
(86,145,c),
(85,147,o),
(85,151,o),
(85,155,c),
(78,265,o),
(80,443,o),
(87,585,c),
(40,540,l),
(42,536,o),
(42,530,o),
(42,524,c),
(38,396,o),
(39,262,o),
(41,127,c)
);
}
);
width = 164;
}
);
unicode = 2319;
},
{
glyphname = kadeva;
lastChange = "2025-02-13 09:17:08 +0000";
layers = (
{
anchors = (
{
name = Anchor2;
pos = (296,622);
},
{
name = Anchor6;
pos = (296,0);
},
{
name = Anchor8;
pos = (384,0);
}
);
background = {
shapes = (
{
closed = 1;
nodes = (
(799,622,l),
(-85,622,l),
(-85,484,l),
(296,484,l),
(296,190,l),
(324,308,l),
(297,260,o),
(243,212,o),
(173,212,cs),
(152,212,o),
(120,217,o),
(120,257,cs),
(120,285,o),
(145,302,o),
(190,302,cs),
(217,302,o),
(238,299,o),
(254,296,c),
(269,431,l),
(238,436,o),
(206,440,o),
(165,440,cs),
(28,440,o),
(-57,369,o),
(-57,261,cs),
(-57,134,o),
(29,73,o),
(156,73,cs),
(236,73,o),
(288,93,o),
(350,137,c),
(296,175,l),
(296,0,l),
(473,0,l),
(473,241,l),
(468,221,l),
(487,242,o),
(514,263,o),
(540,263,cs),
(562,263,o),
(580,250,o),
(580,214,cs),
(580,178,o),
(561,143,o),
(530,103,c),
(683,20,l),
(738,96,o),
(757,161,o),
(757,224,cs),
(757,333,o),
(685,400,o),
(578,400,cs),
(527,400,o),
(495,389,o),
(460,368,c),
(473,328,l),
(473,484,l),
(799,484,l)
);
}
);
};
backgroundImage = {
imagePath = "Images/kadeva-Bold.tif";
pos = (-52,-15);
scale = (2.3979,2.3979);
};
layerId = "AB31CCB0-FABB-42DD-B4D9-C6BC88EA8185";
shapes = (
{
closed = 0;
nodes = (
(387,569,l)
);
},
{
closed = 1;
nodes = (
(462,135,l),
(462,177,l)
);
},
{
closed = 1;
nodes = (
(464,130,l)
);
},
{
closed = 1;
nodes = (
(156,482,o),
(93,414,o),
(77,405,c),
(90,398,o),
(91,158,o),
(80,154,c),
(111,140,o),
(139,103,o),
(142,86,c),
(175,121,l),
(122,172,l),
(127,187,o),
(136,386,o),
(123,434,c),
(136,447,o),
(162,477,o),
(170,490,c),
(170,511,l)
);
},
{
closed = 1;
nodes = (
(256,114,o),
(272,131,o),
(295,154,c),
(286,187,o),
(289,358,o),
(294,439,c),
(275,454,o),
(255,468,o),
(238,494,c),
(228,478,o),
(220,471,o),
(206,461,c),
(206,462,l),
(221,444,o),
(236,431,o),
(253,421,c),
(248,311,o),
(250,223,o),
(253,123,c),
(248,117,o),
(242,110,o),
(238,104,c),
(236,97,o),
(236,92,o),
(236,86,c)
);
},
{
closed = 1;
nodes = (
(198,573,o),
(183,558,o),
(161,547,c),
(167,540,o),
(170,533,o),
(170,524,c),
(170,362,o),
(170,201,o),
(170,39,c),
(170,23,o),
(169,12,o),
(166,-1,c),
(185,22,o),
(202,36,o),
(222,48,c),
(214,55,o),
(212,61,o),
(212,76,c),
(212,551,l),
(212,567,o),
(214,579,o),
(216,591,c),
(214,591,l)
);
},
{
closed = 1;
nodes = (
(46,621,l),
(0,578,l),
(303,578,l),
(349,621,l)
);
}
);
width = 349;
},
{
anchors = (
{
name = Anchor2;
pos = (381,622);
},
{
name = Anchor6;
pos = (381,0);
},
{
name = Anchor8;
pos = (469,0);
}
);
associatedMasterId = "AB31CCB0-FABB-42DD-B4D9-C6BC88EA8185";
background = {
shapes = (
{
closed = 1;
nodes = (
(884,622,l),
(0,622,l),
(0,484,l),
(381,484,l),
(381,190,l),
(409,308,l),
(382,260,o),
(328,212,o),
(258,212,cs),
(237,212,o),
(205,217,o),
(205,257,cs),
(205,285,o),
(230,302,o),
(275,302,cs),
(302,302,o),
(323,299,o),
(339,296,c),
(354,431,l),
(323,436,o),
(291,440,o),
(250,440,cs),
(113,440,o),
(28,369,o),
(28,261,cs),
(28,134,o),
(114,73,o),
(241,73,cs),
(321,73,o),
(373,93,o),
(435,137,c),
(381,175,l),
(381,0,l),
(558,0,l),
(558,241,l),
(553,221,l),
(572,242,o),
(599,263,o),
(625,263,cs),
(647,263,o),
(665,250,o),
(665,214,cs),
(665,178,o),
(646,143,o),
(615,103,c),
(768,20,l),
(823,96,o),
(842,161,o),
(842,224,cs),
(842,333,o),
(770,400,o),
(663,400,cs),
(612,400,o),
(580,389,o),
(545,368,c),
(558,328,l),
(558,484,l),
(884,484,l)
);
}
);
};
backgroundImage = {
imagePath = "Images/kadeva-10 Feb 25 at 15:18.tif";
pos = (318,-12);
scale = (2.3708,2.3708);
};
guides = (
{
pos = (555,702);
},
{
pos = (649,671);
}
);
layerId = "02B7CB21-EA00-45F2-B47B-AEFA70785DB1";
name = "10 Feb 25 at 15:18";
shapes = (
{
closed = 1;
nodes = (
(432,177,l)
);
},
{
closed = 0;
nodes = (
(416,569,l)
);
}
);
width = 869;
}
);
unicode = 2325;
},
{
glyphname = khadeva;
lastChange = "2025-02-13 06:15:40 +0000";
layers = (
{
background = {
shapes = (
{
closed = 1;
nodes = (
(311,484,l),
(311,622,l),
(-152,622,l),
(-152,484,l),
(114,484,l),
(15,530,l),
(33,507,o),
(42,469,o),
(42,432,cs),
(42,393,o),
(30,363,o),
(2,327,c),
(107,280,l),
(66,346,o),
(35,398,o),
(-32,398,cs),
(-99,398,o),
(-125,356,o),
(-125,311,cs),
(-125,275,o),
(-111,236,o),
(-65,185,cs),
(-5,118,o),
(138,2,o),
(349,2,cs),
(447,2,o),
(520,19,o),
(591,61,c),
(553,183,l),
(486,149,o),
(433,137,o),
(349,137,cs),
(240,137,o),
(145,175,o),
(83,238,c),
(71,218,l),
(157,257,o),
(219,322,o),
(219,411,cs),
(219,460,o),
(206,496,o),
(192,525,c),
(176,484,l)
);
},
{
closed = 1;
nodes = (
(791,484,l),
(791,622,l),
(274,622,l),
(274,484,l),
(529,484,l),
(529,0,l),
(706,0,l),
(706,484,l)
);
},
{
closed = 1;
nodes = (
(569,354,l),
(521,311,o),
(493,288,o),
(437,288,cs),
(414,288,o),
(395,297,o),
(395,316,cs),
(395,334,o),
(405,345,o),
(440,345,cs),
(455,345,o),
(476,343,o),
(488,340,c),
(500,454,l),
(470,460,o),
(443,462,o),
(421,462,cs),
(300,462,o),
(238,404,o),
(238,313,cs),
(238,218,o),
(314,169,o),
(412,169,cs),
(488,169,o),
(531,194,o),
(571,227,c)
);
}
);
};
backgroundImage = {
imagePath = "Images/khadeva-Bold.tif";
pos = (-110,-31);
scale = (1.5782,1.5782);
};
layerId = "AB31CCB0-FABB-42DD-B4D9-C6BC88EA8185";
shapes = (
{
closed = 1;
nodes = (
(167,14,o),
(184,28,o),
(204,40,c),
(196,47,o),
(194,53,o),
(194,68,c),
(194,543,l),
(194,559,o),
(196,571,o),
(198,583,c),
(196,583,l),
(180,565,o),
(165,550,o),
(143,539,c),
(149,532,o),
(152,525,o),
(152,516,c),
(152,31,l),
(152,15,o),
(151,4,o),
(148,-9,c)
);
},
{
closed = 1;
nodes = (
(42,56,o),
(98,61,o),
(127,54,c),
(132,64,o),
(135,80,o),
(158,95,c),
(117,98,o),
(75,100,o),
(35,95,c),
(16,123,o),
(1,153,o),
(-27,178,c),
(-30,168,o),
(-47,151,o),
(-59,149,c),
(-31,131,o),
(11,66,o),
(16,53,c)
);
},
{
closed = 1;
nodes = (
(131,126,o),
(144,138,o),
(157,146,c),
(147,156,o),
(126,167,o),
(111,171,c),
(113,252,o),
(115,378,o),
(112,461,c),
(131,471,o),
(145,479,o),
(158,488,c),
(158,500,l),
(139,482,o),
(79,454,o),
(69,454,c),
(73,447,o),
(76,154,o),
(71,149,c),
(95,141,o),
(113,126,o),
(124,112,c)
);
},
{
closed = 1;
nodes = (
(-74,621,l),
(-120,578,l),
(267,578,l),
(313,621,l)
);
},
{
closed = 1;
nodes = (
(6,176,o),
(17,184,o),
(37,204,c),
(34,222,o),
(31,503,o),
(35,527,c),
(12,541,o),
(0,555,o),
(-14,583,c),
(-24,570,o),
(-39,560,o),
(-50,557,c),
(-39,532,o),
(-23,516,o),
(-8,506,c),
(-7,447,o),
(-8,201,o),
(-8,180,c),
(-8,179,o),
(-14,174,o),
(-22,169,c),
(-18,163,l)
);
}
);
width = 313;
}
);
metricRight = "=0";
unicode = 2326;
},
{
glyphname = gadeva;
lastChange = "2025-02-13 08:22:08 +0000";
layers = (
{
background = {
shapes = (
{
closed = 1;
nodes = (
(327,484,l),
(327,0,l),
(504,0,l),
(504,484,l),
(589,484,l),
(589,622,l),
(-78,622,l),
(-78,484,l),
(25,484,l),
(25,366,l),
(38,369,l),
(-33,369,o),
(-51,339,o),
(-51,295,cs),
(-51,223,o),
(42,123,o),
(119,123,cs),
(174,123,o),
(202,155,o),
(202,229,cs),
(202,484,l)
);
}
);
};
layerId = "AB31CCB0-FABB-42DD-B4D9-C6BC88EA8185";
shapes = (
{
closed = 1;
nodes = (
(66,55,o),
(84,71,o),
(116,88,c),
(112,91,o),
(111,96,o),
(111,102,c),
(111,495,ls),
(111,511,o),
(111,520,o),
(115,533,c),
(97,540,o),
(70,558,o),
(65,587,c),
(54,573,o),
(48,570,o),
(29,563,c),
(39,538,o),
(55,524,o),
(71,513,c),
(70,486,l),
(69,384,l),
(68,378,o),
(67,375,o),
(65,372,c),
(50,346,o),
(17,319,o),
(-19,297,c),
(-14,292,o),
(-12,290,o),
(-12,282,c),
(-12,100,l),
(-12,92,o),
(-15,89,o),
(-18,86,c),
(3,71,o),
(26,49,o),
(41,24,c)
);
},
{
closed = 1;
nodes = (
(50,73,o),
(41,82,o),
(29,91,c),
(31,310,l),
(31,314,o),
(31,320,o),
(34,323,c),
(45,333,o),
(52,340,o),
(63,352,c),
(66,355,o),
(69,352,o),
(69,346,c),
(68,65,l),
(65,63,o),
(63,62,o),
(60,59,c)
);
},
{
closed = 1;
nodes = (
(169,21,o),
(186,35,o),
(206,48,c),
(198,55,o),
(196,60,o),
(196,75,c),
(196,231,o),
(196,388,o),
(196,544,c),
(196,561,o),
(198,572,o),
(200,584,c),
(198,584,l),
(182,566,o),
(167,552,o),
(145,540,c),
(151,533,o),
(154,526,o),
(154,518,c),
(154,358,o),
(154,199,o),
(154,39,c),
(154,22,o),
(153,12,o),
(150,-1,c)
);
},
{
closed = 1;
nodes = (
(-24,621,l),
(-70,578,l),
(221,578,l),
(267,621,l)
);
}
);
width = 267;
}
);
unicode = 2327;
},
{
glyphname = ghadeva;
lastChange = "2025-02-13 06:17:12 +0000";
layers = (
{
background = {
shapes = (
{
closed = 1;
nodes = (
(617,622,l),
(-82,622,l),
(-82,484,l),
(355,484,l),
(355,194,l),
(369,298,l),
(327,245,o),
(276,213,o),
(213,213,cs),
(181,213,o),
(161,224,o),
(161,247,cs),
(161,268,o),
(178,279,o),
(215,279,cs),
(225,279,o),
(237,279,o),
(246,278,c),
(255,410,l),
(240,413,o),
(219,415,o),
(204,415,cs),
(150,415,o),
(100,407,o),
(63,383,c),
(53,368,l),
(6,338,o),
(-16,291,o),
(-16,245,cs),
(-16,143,o),
(63,75,o),
(199,75,cs),
(278,75,o),
(331,96,o),
(387,133,c),
(355,158,l),
(355,0,l),
(532,0,l),
(532,484,l),
(617,484,l)
);
},
{
closed = 1;
nodes = (
(176,404,l),
(144,405,o),
(122,423,o),
(122,452,cs),
(122,475,o),
(134,490,o),
(169,507,c),
(27,561,l),
(-28,535,o),
(-55,491,o),
(-55,437,cs),
(-55,345,o),
(38,284,o),
(163,284,c)
);
}
);
};
layerId = "AB31CCB0-FABB-42DD-B4D9-C6BC88EA8185";
shapes = (
{
closed = 1;
nodes = (
(80,102,o),
(37,142,o),
(11,159,c),
(17,202,o),
(18,324,o),
(12,372,c),
(30,393,l),
(24,400,l),
(7,377,o),
(-8,361,o),
(-28,345,c),
(-24,326,o),
(-26,159,o),
(-31,142,c),
(-1,122,o),
(47,82,o),
(69,51,c),
(100,81,l)
);
},
{
closed = 1;
nodes = (
(36,381,o),
(50,392,o),
(60,404,c),
(56,413,o),
(19,448,o),
(12,451,c),
(13,459,o),
(15,514,o),
(12,532,c),
(33,548,o),
(44,560,o),
(67,588,c),
(56,590,l),
(31,560,o),
(10,538,o),
(-27,512,c),
(-25,509,o),
(-24,434,o),
(-27,431,c),
(-14,427,o),
(25,384,o),
(28,375,c)
);
},
{
closed = 1;
nodes = (
(112,20,o),
(129,34,o),
(149,47,c),
(141,54,o),
(139,59,o),
(139,74,c),
(139,230,o),
(135,387,o),
(135,543,c),
(135,560,o),
(137,571,o),
(139,583,c),
(137,583,l),
(121,565,o),
(106,551,o),
(84,539,c),
(90,532,o),
(93,525,o),
(93,517,c),
(93,357,o),
(97,198,o),
(97,38,c),
(97,21,o),
(96,11,o),
(93,-2,c)
);
},
{
closed = 1;
nodes = (
(-4,621,l),
(-50,578,l),
(173,578,l),
(219,621,l)
);
}
);
width = 219;
}
);
unicode = 2328;
},
{
glyphname = ngadeva;
layers = (
{
anchors = (
{
name = Anchor2;
pos = (371,622);
},
{
name = Anchor6;
pos = (317,0);
},
{
name = Anchor8;
pos = (363,0);
}
);
background = {
shapes = (
{
closed = 1;
nodes = (
(429,181,o),
(443,174,o),
(443,158,cs),
(443,139,o),
(422,129,o),
(366,129,cs),
(265,129,o),
(188,178,o),
(123,241,c),
(11,141,l),
(85,72,o),
(214,0,o),
(376,0,cs),
(561,0,o),
(624,67,o),
(624,155,cs),
(624,238,o),
(561,299,o),
(429,299,cs),
(384,299,o),
(362,295,o),
(333,290,c),
(324,299,o),
(318,307,o),
(318,317,cs),
(318,321,o),
(319,324,o),
(322,327,cs),
(326,331,o),
(333,333,o),
(346,333,cs),
(545,333,l),
(545,484,l),
(752,484,l),
(752,622,l),
(0,622,l),
(0,484,l),
(371,484,l),
(371,444,l),
(348,444,ls),
(249,444,o),
(215,436,o),
(183,409,cs),
(155,386,o),
(145,358,o),
(145,325,cs),
(145,254,o),
(211,196,o),
(277,166,c),
(310,175,o),
(353,181,o),
(383,181,cs)
);
},
{
closed = 1;
nodes = (
(571,289,o),
(602,258,o),
(646,258,cs),
(689,258,o),
(720,289,o),
(720,331,cs),
(720,372,o),
(689,404,o),
(646,404,cs),
(602,404,o),
(571,372,o),
(571,331,cs)
);
}
);
};
layerId = "AB31CCB0-FABB-42DD-B4D9-C6BC88EA8185";
shapes = (
{
closed = 1;
nodes = (
(429,181,o),
(443,174,o),
(443,158,cs),
(443,139,o),
(422,129,o),
(366,129,cs),
(265,129,o),
(188,178,o),
(123,241,c),
(11,141,l),
(85,72,o),
(214,0,o),
(376,0,cs),
(561,0,o),
(624,67,o),
(624,155,cs),
(624,238,o),
(561,299,o),
(429,299,cs),
(384,299,o),
(362,295,o),
(333,290,c),
(324,299,o),
(318,307,o),
(318,317,cs),
(318,321,o),
(319,324,o),
(322,327,cs),
(326,331,o),
(333,333,o),
(346,333,cs),
(545,333,l),
(545,484,l),
(752,484,l),
(752,622,l),
(0,622,l),
(0,484,l),
(371,484,l),
(371,444,l),
(348,444,ls),
(249,444,o),
(215,436,o),
(183,409,cs),
(155,386,o),
(145,358,o),
(145,325,cs),
(145,254,o),
(211,196,o),
(277,166,c),
(310,175,o),
(353,181,o),
(383,181,cs)
);
},
{
closed = 1;
nodes = (
(571,289,o),
(602,258,o),
(646,258,cs),
(689,258,o),
(720,289,o),
(720,331,cs),
(720,372,o),
(689,404,o),
(646,404,cs),
(602,404,o),
(571,372,o),
(571,331,cs)
);
}
);
width = 737;
}
);
unicode = 2329;
},
{
glyphname = cadeva;
lastChange = "2025-02-13 06:17:49 +0000";
layers = (
{
background = {
shapes = (
{
closed = 1;
nodes = (
(613,622,l),
(-132,622,l),
(-132,484,l),
(351,484,l),
(351,247,l),
(378,305,l),
(354,263,o),
(301,212,o),
(229,212,cs),
(190,212,o),
(173,229,o),
(173,255,cs),
(173,281,o),
(192,297,o),
(242,297,cs),
(274,297,l),
(286,429,l),
(270,431,o),
(245,433,o),
(228,433,cs),
(-98,433,l),
(-98,296,l),
(22,300,l),
(6,284,o),
(-4,257,o),
(-4,228,cs),
(-4,129,o),
(72,73,o),
(209,73,cs),
(289,73,o),
(342,94,o),
(396,133,c),
(351,176,l),
(351,0,l),
(528,0,l),
(528,484,l),
(613,484,l)
);
}
);
};
layerId = "AB31CCB0-FABB-42DD-B4D9-C6BC88EA8185";
shapes = (
{
closed = 1;
nodes = (
(22,62,o),
(56,80,o),
(90,98,c),
(90,112,l),
(70,100,o),
(51,88,o),
(31,76,c),
(30,390,l),
(30,395,o),
(32,405,o),
(35,409,c),
(33,407,o),
(6,403,o),
(-12,407,c),
(-14,402,o),
(-39,375,o),
(-59,368,c),
(-43,365,o),
(-24,365,o),
(-8,368,c),
(-5,328,o),
(-9,83,o),
(-12,34,c)
);
},
{
closed = 1;
nodes = (
(90,21,o),
(107,35,o),
(127,47,c),
(119,55,o),
(117,60,o),
(117,75,c),
(117,230,o),
(117,387,o),
(117,543,c),
(117,559,o),
(119,570,o),
(121,582,c),
(119,582,l),
(103,564,o),
(88,550,o),
(66,539,c),
(72,531,o),
(75,524,o),
(75,516,c),
(75,357,o),
(75,198,o),
(75,38,c),
(75,22,o),
(74,12,o),
(71,-1,c)
);
},
{
closed = 1;
nodes = (
(157,578,l),
(203,621,l),
(-34,621,l),
(-80,578,l)
);
}
);
width = 203;
}
);
unicode = 2330;
},
{
glyphname = chadeva;
lastChange = "2025-02-13 06:18:23 +0000";
layers = (
{
anchors = (
{
name = Anchor2;
pos = (365,622);
},
{
name = Anchor6;
pos = (268,0);
},
{
name = Anchor8;
pos = (295,0);
}
);
background = {
shapes = (
{
closed = 1;
nodes = (
(703,484,l),
(703,622,l),
(-107,622,l),
(-107,484,l),
(365,484,l),
(365,394,l),
(537,394,l),
(537,484,l)
);
},
{
closed = 1;
nodes = (
(167,135,o),
(141,144,o),
(141,164,cs),
(141,177,o),
(152,185,o),
(185,185,cs),
(197,185,o),
(208,184,o),
(214,183,c),
(231,297,l),
(216,300,o),
(196,303,o),
(171,303,cs),
(131,303,o),
(86,298,o),
(51,275,c),
(47,274,o),
(45,268,o),
(41,263,c),
(-5,235,o),
(-24,194,o),
(-24,155,cs),
(-24,64,o),
(57,0,o),
(239,0,cs),
(524,0,o),
(661,135,o),
(661,274,cs),
(661,398,o),
(571,459,o),
(438,459,cs),
(306,459,o),
(246,406,o),
(246,331,cs),
(246,261,o),
(300,213,o),
(397,182,c),
(460,283,l),
(419,297,o),
(404,309,o),
(404,326,cs),
(404,342,o),
(414,351,o),
(433,351,cs),
(468,351,o),
(482,322,o),
(482,292,cs),
(482,198,o),
(395,135,o),
(240,135,cs)
);
},
{
closed = 1;
nodes = (
(144,291,l),
(107,296,o),
(88,305,o),
(88,321,cs),
(88,337,o),
(101,344,o),
(137,344,cs),
(159,344,o),
(180,342,o),
(201,338,c),
(213,453,l),
(186,459,o),
(140,462,o),
(116,462,cs),
(-10,462,o),
(-82,417,o),
(-82,335,cs),
(-82,249,o),
(-5,195,o),
(115,174,c)
);
}
);
};
layerId = "AB31CCB0-FABB-42DD-B4D9-C6BC88EA8185";
shapes = (
{
closed = 1;
nodes = (
(69,47,o),
(114,92,o),
(159,133,c),
(152,162,o),
(151,529,o),
(163,585,c),
(150,567,o),
(136,551,o),
(121,540,c),
(117,407,o),
(113,259,o),
(117,107,c),
(106,123,o),
(92,138,o),
(75,150,c),
(80,183,o),
(77,343,o),
(74,377,c),
(90,393,o),
(107,411,o),
(123,429,c),
(124,446,l),
(96,413,o),
(65,382,o),
(33,354,c),
(36,279,o),
(37,198,o),
(32,130,c),
(54,114,o),
(72,97,o),
(88,77,c),
(51,39,l),
(31,60,o),
(14,76,o),
(-8,93,c),
(-2,136,o),
(-3,324,o),
(-9,372,c),
(9,393,l),
(3,400,l),
(-14,377,o),
(-29,361,o),
(-49,345,c),
(-45,326,o),
(-45,93,o),
(-50,76,c),
(-21,55,o),
(9,29,o),
(32,1,c)
);
},
{
closed = 1;
nodes = (
(-49,621,l),
(-95,578,l),
(209,578,l),
(252,621,l)
);
},
{
closed = 1;
nodes = (
(19,381,o),
(33,392,o),
(43,404,c),
(39,413,o),
(2,448,o),
(-5,451,c),
(-4,459,o),
(-2,514,o),
(-5,532,c),
(16,548,o),
(27,560,o),
(50,588,c),
(39,590,l),
(14,560,o),
(-7,538,o),
(-44,512,c),
(-42,509,o),
(-41,434,o),
(-44,431,c),
(-31,427,o),
(8,384,o),
(11,375,c)
);
}
);
width = 252;
}
);
unicode = 2331;
},
{
glyphname = jadeva;
lastChange = "2025-02-13 08:20:59 +0000";
layers = (
{
background = {
shapes = (
{
closed = 1;
nodes = (
(678,484,l),
(678,622,l),
(-221,622,l),
(-221,484,l),
(416,484,l),
(416,426,l),
(126,426,l),
(78,328,l),
(137,293,o),
(163,266,o),
(163,229,cs),
(163,202,o),
(148,191,o),
(125,191,cs),
(53,191,o),
(-2,265,o),
(-63,420,c),
(-207,366,l),
(-112,106,o),
(18,52,o),
(140,52,cs),
(259,52,o),
(338,105,o),
(338,200,cs),
(338,281,o),
(282,323,o),
(182,373,c),
(281,298,l),
(300,294,o),
(333,293,o),
(369,293,cs),
(416,293,l),
(416,0,l),
(593,0,l),
(593,484,l)
);
}
);
};
layerId = "AB31CCB0-FABB-42DD-B4D9-C6BC88EA8185";
shapes = (
{
closed = 1;
nodes = (
(12,46,o),
(43,72,o),
(71,86,c),
(68,90,o),
(66,93,o),
(66,99,c),
(66,364,l),
(84,376,o),
(107,397,o),
(122,415,c),
(108,414,o),
(83,412,o),
(67,414,c),
(53,397,o),
(37,383,o),
(18,370,c),
(23,364,o),
(25,357,o),
(25,352,c),
(23,64,l),
(15,58,l),
(5,70,o),
(-4,80,o),
(-15,90,c),
(-15,314,l),
(-15,325,o),
(-12,336,o),
(-7,348,c),
(-26,325,o),
(-44,309,o),
(-65,295,c),
(-59,291,o),
(-57,286,o),
(-57,279,c),
(-57,100,l),
(-57,92,o),
(-60,88,o),
(-64,85,c),
(-41,69,o),
(-23,50,o),
(-4,22,c)
);
},
{
closed = 1;
nodes = (
(124,21,o),
(141,35,o),
(161,47,c),
(153,55,o),
(151,60,o),
(151,75,c),
(151,230,o),
(151,387,o),
(151,543,c),
(151,559,o),
(153,570,o),
(155,582,c),
(153,582,l),
(137,564,o),
(122,550,o),
(100,539,c),
(106,531,o),
(109,524,o),
(109,516,c),
(109,357,o),
(109,198,o),
(109,38,c),
(109,22,o),
(108,12,o),
(105,-1,c)
);
},
{
closed = 1;
nodes = (
(-51,621,l),
(-100,578,l),
(168,578,l),
(214,620,l)
);
}
);
width = 214;
}
);
unicode = 2332;
},
{
glyphname = jhadeva;
lastChange = "2025-02-13 06:18:51 +0000";
layers = (
{
background = {
shapes = (
{
closed = 1;
nodes = (
(840,484,l),
(840,622,l),
(501,622,l),
(501,484,l),
(578,484,l),
(578,0,l),
(755,0,l),
(755,484,l)
);
},
{
closed = 1;
nodes = (
(299,181,o),
(311,174,o),
(311,157,cs),
(311,139,o),
(290,126,o),
(225,126,cs),
(199,126,o),
(152,129,o),
(101,150,c),
(129,18,l),
(209,-34,o),
(310,-91,o),
(405,-132,c),
(461,-13,l),
(390,4,o),
(287,37,o),
(238,59,c),
(191,124,o),
(137,164,o),
(85,164,cs),
(50,164,o),
(11,147,o),
(11,92,cs),
(11,20,o),
(79,0,o),
(204,0,cs),
(235,0,o),
(236,6,o),
(242,6,c),
(427,-3,o),
(489,73,o),
(489,153,cs),
(489,237,o),
(428,299,o),
(298,299,cs),
(253,299,o),
(231,295,o),
(202,290,c),
(193,299,o),
(187,306,o),
(187,317,cs),
(187,321,o),
(188,324,o),
(191,327,cs),
(195,331,o),
(202,333,o),
(215,333,cs),
(435,333,l),
(435,484,l),
(532,484,l),
(532,622,l),
(-23,622,l),
(-23,484,l),
(261,484,l),
(261,444,l),
(215,444,ls),
(116,444,o),
(84,436,o),
(52,409,cs),
(24,386,o),
(14,358,o),
(14,325,cs),
(14,254,o),
(80,196,o),
(146,166,c),
(179,176,o),
(220,181,o),
(250,181,cs)
);
},
{
closed = 1;
nodes = (
(420,281,o),
(373,289,o),
(353,294,c),
(354,262,l),
(405,161,l),
(420,155,o),
(447,149,o),
(499,149,cs),
(529,149,o),
(579,154,o),
(622,178,c),
(623,317,l),
(585,293,o),
(529,281,o),
(473,281,cs)
);
}
);
};
backgroundImage = {
imagePath = "Images/jhadeva-Bold.tif";
pos = (-56,-58);
scale = (1.5536,1.5536);
};
layerId = "AB31CCB0-FABB-42DD-B4D9-C6BC88EA8185";
shapes = (
{
closed = 1;
nodes = (
(50,38,o),
(77,54,o),
(100,63,c),
(93,79,o),
(95,303,o),
(100,321,c),
(82,332,o),
(67,345,o),
(57,363,c),
(46,351,o),
(31,337,o),
(11,327,c),
(15,367,o),
(13,403,o),
(8,447,c),
(12,450,o),
(16,453,o),
(19,457,c),
(15,464,l),
(1,448,o),
(-16,435,o),
(-34,425,c),
(-29,411,o),
(-26,314,o),
(-32,293,c),
(-9,303,o),
(8,313,o),
(27,327,c),
(37,314,o),
(47,304,o),
(57,300,c),
(51,295,o),
(51,62,o),
(57,51,c),
(54,48,o),
(47,45,o),
(44,42,c),
(44,42,o),
(16,0,o),
(33,19,cs)
);
},
{
closed = 1;
nodes = (
(53,-28,l),
(57,33,o),
(40,65,o),
(9,114,c),
(12,162,o),
(14,228,o),
(9,271,c),
(-4,262,o),
(-18,256,o),
(-31,251,c),
(-25,230,o),
(-23,116,o),
(-32,93,c),
(10,42,o),
(24,-15,o),
(19,-67,c)
);
},
{
closed = 1;
nodes = (
(69,395,o),
(83,406,o),
(99,415,c),
(91,443,o),
(79,464,o),
(58,488,c),
(55,520,o),
(55,550,o),
(59,584,c),
(46,569,o),
(31,558,o),
(9,552,c),
(6,519,o),
(6,485,o),
(11,454,c),
(40,429,o),
(49,418,o),
(60,379,c)
);
},
{
closed = 1;
nodes = (
(200,578,l),
(246,621,l),
(-54,621,l),
(-100,578,l)
);
},
{
closed = 1;
nodes = (
(113,322,o),
(132,340,o),
(164,359,c),
(164,374,l),
(134,352,o),
(104,326,o),
(87,308,c),
(89,294,l)
);
},
{
closed = 1;
nodes = (
(153,19,o),
(170,33,o),
(190,45,c),
(182,52,o),
(180,58,o),
(180,73,c),
(180,548,l),
(180,564,o),
(182,576,o),
(184,588,c),
(182,588,l),
(166,570,o),
(151,555,o),
(129,544,c),
(135,537,o),
(138,530,o),
(138,521,c),
(138,36,l),
(138,20,o),
(137,9,o),
(134,-4,c)
);
}
);
width = 246;
}
);
unicode = 2333;
},
{
glyphname = nyadeva;
lastChange = "2025-02-13 06:19:16 +0000";
layers = (
{
background = {
shapes = (
{
closed = 1;
nodes = (
(827,484,l),
(827,622,l),
(-85,622,l),
(-85,484,l),
(565,484,l),
(565,0,l),
(742,0,l),
(742,484,l)
);
},
{
closed = 1;
nodes = (
(663,396,l),
(626,358,o),
(585,321,o),
(508,321,cs),
(484,321,o),
(467,325,o),
(452,331,c),
(465,206,l),
(478,204,o),
(489,203,o),
(501,203,cs),
(571,203,o),
(620,220,o),
(663,248,c)
);
},
{
closed = 1;
nodes = (
(190,285,l),
(218,296,o),
(241,302,o),
(269,302,cs),
(305,302,o),
(328,289,o),
(328,255,cs),
(328,221,o),
(306,206,o),
(259,206,cs),
(187,206,o),
(121,261,o),
(70,361,c),
(-71,302,l),
(10,133,o),
(142,68,o),
(266,68,cs),
(382,68,o),
(499,102,o),
(499,254,cs),
(499,374,o),
(426,440,o),
(300,440,cs),
(237,440,o),
(189,429,o),
(141,411,c)
);
}
);
};
layerId = "AB31CCB0-FABB-42DD-B4D9-C6BC88EA8185";
shapes = (
{
closed = 1;
nodes = (
(43,46,o),
(74,72,o),
(102,86,c),
(99,90,o),
(97,93,o),
(97,99,c),
(97,364,l),
(85,376,o),
(67,404,o),
(69,415,c),
(59,407,o),
(41,396,o),
(36,398,c),
(34,390,o),
(51,357,o),
(56,352,c),
(54,64,l),
(46,58,l),
(36,70,o),
(27,80,o),
(16,90,c),
(16,314,l),
(16,325,o),
(19,336,o),
(24,348,c),
(5,325,o),
(-13,309,o),
(-34,295,c),
(-28,291,o),
(-26,286,o),
(-26,279,c),
(-26,100,l),
(-26,92,o),
(-29,88,o),
(-33,85,c),
(-10,69,o),
(8,50,o),
(27,22,c)
);
},
{
closed = 1;
nodes = (
(157,21,o),
(174,35,o),
(194,47,c),
(186,55,o),
(184,60,o),
(184,75,c),
(184,230,o),
(184,387,o),
(184,543,c),
(184,559,o),
(186,570,o),
(188,582,c),
(186,582,l),
(170,564,o),
(155,550,o),
(133,539,c),
(139,531,o),
(142,524,o),
(142,516,c),
(142,357,o),
(142,198,o),
(142,38,c),
(142,22,o),
(141,12,o),
(138,-1,c)
);
},
{
closed = 1;
nodes = (
(109,359,o),
(138,378,o),
(155,395,c),
(154,405,l),
(136,388,o),
(107,366,o),
(82,358,c),
(83,349,l)
);
},
{
closed = 1;
nodes = (
(210,578,l),
(256,621,l),
(-34,621,l),
(-80,578,l)
);
}
);
width = 256;
}
);
unicode = 2334;
},
{
glyphname = ttadeva;
lastChange = "2025-02-13 06:19:30 +0000";
layers = (
{
anchors = (
{
name = Anchor2;
pos = (182,622);
},
{
name = Anchor6;
pos = (172,0);
},
{
name = Anchor8;
pos = (195,0);
}
);
background = {
shapes = (
{
closed = 1;
nodes = (
(488,622,l),
(-86,622,l),
(-86,484,l),
(182,484,l),
(182,423,l),
(212,432,l),
(205,432,ls),
(60,432,o),
(-58,367,o),
(-58,227,cs),
(-58,82,o),
(58,0,o),
(224,0,cs),
(305,0,o),
(391,19,o),
(461,51,c),
(409,188,l),
(361,160,o),
(302,140,o),
(238,140,cs),
(168,140,o),
(120,164,o),
(120,223,cs),
(120,248,o),
(133,269,o),
(155,281,cs),
(177,293,o),
(205,299,o),
(275,299,cs),
(357,299,l),
(357,484,l),
(488,484,l)
);
}
);
};
layerId = "AB31CCB0-FABB-42DD-B4D9-C6BC88EA8185";
shapes = (
{
closed = 1;
nodes = (
(-44,621,l),
(-90,578,l),
(108,578,l),
(154,621,l)
);
},
{
closed = 1;
nodes = (
(57,114,l),
(54,84,o),
(55,67,o),
(57,39,c),
(51,35,l),
(39,58,o),
(33,72,o),
(14,93,c),
(19,213,o),
(16,340,o),
(11,467,c),
(26,475,o),
(40,484,o),
(55,494,c),
(59,497,o),
(62,498,o),
(65,498,c),
(59,521,o),
(60,552,o),
(64,584,c),
(51,569,o),
(38,559,o),
(25,552,c),
(21,529,o),
(20,508,o),
(24,487,c),
(6,473,o),
(-14,464,o),
(-34,453,c),
(-30,446,o),
(-28,429,o),
(-28,420,c),
(-26,94,l),
(-26,90,o),
(-27,82,o),
(-31,78,c),
(-11,55,o),
(6,29,o),
(19,3,c),
(42,21,o),
(66,37,o),
(93,51,c),
(91,80,o),
(90,108,o),
(93,137,c)
);
}
);
width = 154;
}
);
unicode = 2335;
},
{
glyphname = tthadeva;
lastChange = "2025-02-13 06:19:48 +0000";
layers = (
{
anchors = (
{
name = Anchor2;
pos = (188,622);
},
{
name = Anchor6;
pos = (212,0);
},
{
name = Anchor8;
pos = (235,0);
}
);
background = {
shapes = (
{
closed = 1;
nodes = (
(566,622,l),
(-80,622,l),
(-80,484,l),
(188,484,l),
(188,410,l),
(226,432,l),
(211,432,ls),
(66,432,o),
(-52,367,o),
(-52,229,cs),
(-52,86,o),
(60,0,o),
(243,0,cs),
(412,0,o),
(525,58,o),
(525,208,cs),
(525,294,o),
(478,372,o),
(363,421,c),
(363,484,l),
(566,484,l)
);
},
{
closed = 1;
nodes = (
(171,139,o),
(126,167,o),
(126,223,cs),
(126,248,o),
(139,269,o),
(161,281,cs),
(183,293,o),
(211,299,o),
(281,299,cs),
(291,299,l),
(327,280,o),
(347,251,o),
(347,212,cs),
(347,163,o),
(308,139,o),
(235,139,cs)
);
}
);
};
layerId = "AB31CCB0-FABB-42DD-B4D9-C6BC88EA8185";
shapes = (
{
closed = 1;
nodes = (
(-49,621,l),
(-95,578,l),
(145,578,l),
(191,621,l)
);
},
{
closed = 1;
nodes = (
(-21,423,o),
(-26,89,o),
(-30,58,c),
(-16,48,o),
(4,19,o),
(13,4,c),
(24,19,o),
(94,76,o),
(106,83,c),
(98,116,o),
(103,444,o),
(107,474,c),
(92,488,o),
(75,501,o),
(67,521,c),
(83,536,o),
(103,557,o),
(124,578,c),
(103,579,l),
(53,519,o),
(31,494,o),
(-33,460,c)
);
},
{
closed = 1;
nodes = (
(28,57,o),
(18,70,o),
(7,81,c),
(16,85,o),
(20,446,o),
(10,473,c),
(20,480,o),
(29,486,o),
(39,495,c),
(47,482,o),
(55,468,o),
(64,457,c),
(56,407,o),
(55,114,o),
(61,64,c),
(53,58,o),
(43,50,o),
(36,43,c)
);
}
);
width = 191;
}
);
unicode = 2336;
},
{
glyphname = ddadeva;
lastChange = "2025-02-13 06:20:08 +0000";
layers = (
{
anchors = (
{
name = Anchor2;
pos = (319,622);
},
{
name = Anchor6;
pos = (240,0);
},
{
name = Anchor8;
pos = (286,0);
}
);
background = {
shapes = (
{
closed = 1;
nodes = (
(352,181,o),
(366,174,o),
(366,158,cs),
(366,139,o),
(346,129,o),
(289,129,cs),
(188,129,o),
(111,178,o),
(46,241,c),
(-66,141,l),
(8,72,o),
(138,0,o),
(299,0,cs),
(484,0,o),
(547,67,o),
(547,155,cs),
(547,238,o),
(484,299,o),
(352,299,cs),
(307,299,o),
(285,295,o),
(256,290,c),
(247,299,o),
(241,307,o),
(241,317,cs),
(241,322,o),
(242,324,o),
(245,327,cs),
(249,331,o),
(256,333,o),
(269,333,cs),
(493,333,l),
(493,484,l),
(590,484,l),
(590,622,l),
(-77,622,l),
(-77,484,l),
(319,484,l),
(319,444,l),
(271,444,ls),
(172,444,o),
(138,436,o),
(106,409,cs),
(78,386,o),
(68,358,o),
(68,325,cs),
(68,254,o),
(134,196,o),
(200,166,c),
(233,175,o),
(276,181,o),
(306,181,cs)
);
}
);
};
backgroundImage = {
imagePath = "Images/ddadeva-Bold.tif";
pos = (-76,-30);
scale = (1.4439,1.4439);
};
layerId = "AB31CCB0-FABB-42DD-B4D9-C6BC88EA8185";
shapes = (
{
closed = 1;
nodes = (
(-100,578,l)
);
},
{
closed = 1;
nodes = (
(-34,80,o),
(-3,24,o),
(-1,2,c),
(16,21,o),
(62,54,o),
(85,63,c),
(78,79,o),
(80,303,o),
(85,321,c),
(67,332,o),
(52,345,o),
(42,363,c),
(31,351,o),
(16,337,o),
(-4,327,c),
(0,367,o),
(-2,403,o),
(-7,447,c),
(-3,450,o),
(1,453,o),
(4,457,c),
(0,464,l),
(-14,448,o),
(-31,435,o),
(-49,425,c),
(-44,411,o),
(-41,314,o),
(-47,293,c),
(-24,303,o),
(-7,313,o),
(12,327,c),
(22,314,o),
(32,304,o),
(42,300,c),
(36,295,o),
(36,62,o),
(42,51,c),
(39,48,o),
(35,46,o),
(32,43,c),
(24,68,o),
(10,91,o),
(-6,115,c),
(-4,167,o),
(-4,248,o),
(-6,272,c),
(-47,251,l),
(-41,230,o),
(-39,115,o),
(-48,92,c)
);
},
{
closed = 1;
nodes = (
(54,395,o),
(68,406,o),
(84,415,c),
(76,443,o),
(64,464,o),
(43,488,c),
(40,520,o),
(40,550,o),
(44,584,c),
(31,569,o),
(16,558,o),
(-6,552,c),
(-9,519,o),
(-9,485,o),
(-4,454,c),
(25,429,o),
(34,418,o),
(45,379,c)
);
},
{
closed = 1;
nodes = (
(-69,621,l),
(-115,578,l),
(110,578,l),
(156,621,l)
);
}
);
width = 156;
}
);
unicode = 2337;
},
{
glyphname = ddhadeva;
lastChange = "2025-02-13 06:20:21 +0000";
layers = (
{
anchors = (
{
name = Anchor2;
pos = (249,622);
},
{
name = Anchor6;
pos = (221,0);
},
{
name = Anchor8;
pos = (254,0);
}
);
background = {
shapes = (
{
closed = 1;
nodes = (
(454,0,o),
(542,64,o),
(542,159,cs),
(542,238,o),
(488,303,o),
(365,303,cs),
(242,303,o),
(189,248,o),
(189,165,cs),
(189,110,o),
(215,59,o),
(245,21,c),
(371,41,l),
(338,80,o),
(318,113,o),
(318,146,cs),
(318,166,o),
(330,188,o),
(365,188,cs),
(385,188,o),
(399,178,o),
(399,163,cs),
(399,140,o),
(378,130,o),
(315,130,cs),
(288,130,o),
(251,130,o),
(242,131,c),
(163,133,o),
(137,174,o),
(137,222,cs),
(137,255,o),
(151,280,o),
(175,295,cs),
(197,309,o),
(224,319,o),
(309,319,cs),
(423,319,l),
(423,484,l),
(575,484,l),
(575,622,l),
(-69,622,l),
(-69,484,l),
(249,484,l),
(249,409,l),
(279,450,l),
(260,450,l),
(80,449,o),
(-39,378,o),
(-39,228,cs),
(-39,83,o),
(88,0,o),
(282,0,cs)
);
}
);
};
layerId = "AB31CCB0-FABB-42DD-B4D9-C6BC88EA8185";
shapes = (
{
closed = 1;
nodes = (
(33,58,o),
(27,72,o),
(8,93,c),
(13,213,o),
(10,340,o),
(5,467,c),
(20,475,o),
(34,484,o),
(49,494,c),
(53,497,o),
(56,498,o),
(59,498,c),
(53,521,o),
(54,552,o),
(58,584,c),
(45,569,o),
(32,559,o),
(19,552,c),
(15,529,o),
(14,508,o),
(18,487,c),
(0,473,o),
(-20,464,o),
(-40,453,c),
(-36,446,o),
(-34,429,o),
(-34,420,c),
(-32,94,l),
(-32,90,o),
(-33,82,o),
(-37,78,c),
(-17,55,o),
(0,29,o),
(13,3,c),
(36,21,o),
(60,37,o),
(87,51,c),
(85,80,o),
(84,108,o),
(87,137,c),
(69,153,o),
(44,179,o),
(41,190,c),
(34,184,o),
(21,176,o),
(7,174,c),
(20,154,o),
(33,138,o),
(51,126,c),
(48,96,o),
(49,67,o),
(51,39,c),
(45,35,l)
);
},
{
closed = 1;
nodes = (
(-54,621,l),
(-100,578,l),
(118,578,l),
(164,621,l)
);
}
);
width = 164;
}
);
unicode = 2338;
},
{
glyphname = nnadeva;
lastChange = "2025-02-13 06:20:40 +0000";
layers = (
{
background = {
shapes = (
{
closed = 1;
nodes = (
(3166,484,l),
(3166,622,l),
(2295,622,l),
(2295,484,l),
(2354,484,l),
(2354,338,ls),
(2354,244,o),
(2370,203,o),
(2400,169,cs),
(2439,124,o),
(2499,103,o),
(2584,103,cs),
(2674,103,o),
(2731,122,o),
(2765,162,cs),
(2794,196,o),
(2811,232,o),
(2811,328,cs),
(2811,484,l),
(2904,484,l),
(2904,0,l),
(3081,0,l),
(3081,484,l)
);
},
{
closed = 1;
nodes = (
(2563,241,o),
(2549,247,o),
(2541,260,cs),
(2533,273,o),
(2531,289,o),
(2531,323,cs),
(2531,484,l),
(2634,484,l),
(2634,323,ls),
(2634,289,o),
(2631,270,o),
(2620,256,cs),
(2612,246,o),
(2599,241,o),
(2582,241,cs)
);
}
);
};
backgroundImage = {
imagePath = "Images/nnadeva-Bold.tif";
pos = (2310,-38);
scale = (2.3627,2.3627);
};
layerId = "AB31CCB0-FABB-42DD-B4D9-C6BC88EA8185";
shapes = (
{
closed = 1;
nodes = (
(158,565,o),
(143,551,o),
(121,539,c),
(127,532,o),
(130,525,o),
(130,517,c),
(130,357,o),
(130,198,o),
(130,38,c),
(130,22,o),
(129,12,o),
(126,-1,c),
(145,21,o),
(162,35,o),
(182,48,c),
(174,55,o),
(172,60,o),
(172,75,c),
(172,544,l),
(172,560,o),
(174,571,o),
(176,583,c),
(174,583,l)
);
},
{
closed = 1;
nodes = (
(5,560,o),
(7,571,o),
(9,583,c),
(7,583,l),
(-9,565,o),
(-24,551,o),
(-46,539,c),
(-40,532,o),
(-37,525,o),
(-37,517,cs),
(-38,157,l),
(-38,142,o),
(-43,136,o),
(-49,132,c),
(-33,125,o),
(9,83,o),
(16,67,c),
(29,89,o),
(67,120,o),
(93,133,c),
(89,138,o),
(88,142,o),
(87,152,c),
(87,544,l),
(87,560,o),
(89,571,o),
(91,583,c),
(89,583,l),
(73,565,o),
(58,551,o),
(36,539,c),
(42,532,o),
(45,525,o),
(45,517,cs),
(44,108,l),
(37,102,l),
(26,115,o),
(18,126,o),
(5,138,c),
(5,544,l)
);
},
{
closed = 1;
nodes = (
(-89,621,l),
(-135,578,l),
(252,578,l),
(298,621,l)
);
}
);
width = 298;
}
);
unicode = 2339;
},
{
glyphname = tadeva;
lastChange = "2025-02-13 08:57:54 +0000";
layers = (
{
background = {
shapes = (
{
closed = 1;
nodes = (
(609,484,l),
(609,622,l),
(-58,622,l),
(-58,484,l),
(347,484,l),
(347,405,l),
(235,405,ls),
(109,405,o),
(63,389,o),
(22,354,cs),
(-9,327,o),
(-29,289,o),
(-29,234,cs),
(-29,136,o),
(40,54,o),
(129,-18,c),
(238,90,l),
(181,132,o),
(149,175,o),
(149,208,cs),
(149,225,o),
(154,239,o),
(166,249,cs),
(181,263,o),
(204,267,o),
(257,267,cs),
(347,267,l),
(347,0,l),
(524,0,l),
(524,484,l)
);
}
);
};
backgroundImage = {
imagePath = "Images/tadeva-Bold.tif";
pos = (-92,-72);
scale = (2.522,2.522);
};
layerId = "AB31CCB0-FABB-42DD-B4D9-C6BC88EA8185";
shapes = (
{
closed = 1;
nodes = (
(16,23,o),
(15,13,o),
(12,0,c),
(31,22,o),
(48,37,o),
(68,49,c),
(60,56,o),
(58,61,o),
(58,76,c),
(58,233,o),
(58,390,o),
(58,546,c),
(58,563,o),
(60,574,o),
(62,586,c),
(60,586,l),
(44,568,o),
(29,554,o),
(7,542,c),
(13,535,o),
(16,528,o),
(16,520,cs),
(15,367,l),
(0,341,o),
(-30,320,o),
(-66,298,c),
(-67,39,l),
(-67,22,o),
(-68,12,o),
(-71,-1,c),
(-52,21,o),
(-35,36,o),
(-15,48,c),
(-23,55,o),
(-25,60,o),
(-25,75,cs),
(-24,304,ls),
(-24,308,o),
(-24,314,o),
(-21,317,c),
(-10,327,o),
(-1,334,o),
(10,346,c),
(13,349,o),
(16,346,o),
(16,340,cs),
(16,40,l)
);
},
{
closed = 1;
nodes = (
(-60,621,l),
(-106,578,l),
(92,578,l),
(138,621,l)
);
},
{
closed = 0;
nodes = (
(58,407,l)
);
},
{
closed = 0;
nodes = (
(62,59,l)
);
}
);
width = 138;
}
);
unicode = 2340;
},
{
glyphname = thadeva;
lastChange = "2025-02-13 06:23:16 +0000";
layers = (
{
background = {
shapes = (
{
closed = 1;
nodes = (
(446,0,l),
(623,0,l),
(623,484,l),
(708,484,l),
(708,622,l),
(395,622,l),
(395,484,l),
(446,484,l),
(446,254,l),
(480,359,l),
(440,270,o),
(378,232,o),
(304,232,cs),
(248,232,o),
(210,262,o),
(196,307,c),
(193,245,l),
(317,279,o),
(359,361,o),
(359,443,cs),
(359,565,o),
(272,632,o),
(137,632,cs),
(35,632,o),
(-44,591,o),
(-44,504,cs),
(-44,428,o),
(5,378,o),
(96,358,c),
(139,463,l),
(109,467,o),
(94,478,o),
(94,496,cs),
(94,511,o),
(104,522,o),
(126,522,cs),
(165,522,o),
(182,490,o),
(182,455,cs),
(182,395,o),
(147,349,o),
(24,322,c),
(61,179,o),
(143,95,o),
(292,95,cs),
(369,95,o),
(418,108,o),
(488,152,c),
(446,204,l)
);
}
);
};
layerId = "AB31CCB0-FABB-42DD-B4D9-C6BC88EA8185";
shapes = (
{
closed = 1;
nodes = (
(109,7,o),
(126,21,o),
(146,33,c),
(138,40,o),
(136,46,o),
(136,61,c),
(138,530,l),
(138,546,o),
(138,553,o),
(140,565,c),
(150,578,l),
(199,578,l),
(244,621,l),
(171,621,l),
(150,589,o),
(123,555,o),
(90,523,c),
(96,516,o),
(97,509,o),
(97,500,c),
(96,431,l),
(94,24,l),
(94,8,o),
(93,-3,o),
(90,-16,c)
);
},
{
closed = 1;
nodes = (
(47,66,o),
(79,94,o),
(99,109,c),
(99,123,l),
(89,114,o),
(62,93,o),
(52,83,c),
(44,98,o),
(21,129,o),
(-2,153,c),
(-4,155,o),
(-5,156,o),
(-9,158,c),
(-23,144,o),
(-29,140,o),
(-46,129,c),
(-44,129,o),
(-42,128,o),
(-40,127,c),
(-29,121,o),
(18,62,o),
(26,43,c)
);
},
{
closed = 1;
nodes = (
(23,155,o),
(34,163,o),
(56,181,c),
(55,182,o),
(54,184,o),
(53,188,c),
(50,206,o),
(42,560,o),
(58,621,c),
(41,618,o),
(16,616,o),
(-4,621,c),
(-19,600,o),
(-58,562,o),
(-70,555,c),
(-50,540,o),
(-34,523,o),
(-27,502,c),
(-16,510,o),
(-1,522,o),
(9,533,c),
(-2,550,o),
(-19,564,o),
(-36,578,c),
(-34,580,o),
(-33,581,o),
(-31,583,c),
(-14,580,o),
(-1,580,o),
(14,583,c),
(-2,573,o),
(15,166,o),
(9,159,c),
(9,158,o),
(5,154,o),
(-3,149,c),
(-1,142,l)
);
}
);
width = 244;
}
);
unicode = 2341;
},
{
glyphname = dadeva;
lastChange = "2025-02-13 06:24:23 +0000";
layers = (
{
anchors = (
{
name = Anchor2;
pos = (122,622);
},
{
name = Anchor6;
pos = (258,0);
},
{
name = Anchor8;
pos = (155,0);
}
);
background = {
shapes = (
{
closed = 1;
nodes = (
(436,-12,l),
(402,35,o),
(375,86,o),
(355,121,c),
(259,202,l),
(238,199,o),
(211,197,o),
(192,197,cs),
(99,197,o),
(74,222,o),
(74,259,cs),
(74,278,o),
(85,294,o),
(105,302,cs),
(127,312,o),
(157,316,o),
(216,316,cs),
(297,316,l),
(297,484,l),
(466,484,l),
(466,622,l),
(-131,622,l),
(-131,484,l),
(122,484,l),
(122,417,l),
(217,449,l),
(188,449,ls),
(92,449,o),
(16,432,o),
(-38,394,cs),
(-79,364,o),
(-103,323,o),
(-103,264,cs),
(-103,108,o),
(36,59,o),
(185,59,cs),
(221,59,o),
(258,63,o),
(288,66,cs),
(324,69,l),
(370,83,o),
(426,108,o),
(426,174,cs),
(426,236,o),
(383,280,o),
(304,280,cs),
(253,280,o),
(201,253,o),
(201,198,cs),
(201,177,o),
(206,153,o),
(213,140,c),
(223,92,l),
(236,49,o),
(261,-13,o),
(293,-70,c)
);
}
);
};
layerId = "AB31CCB0-FABB-42DD-B4D9-C6BC88EA8185";
shapes = (
{
closed = 1;
nodes = (
(50,521,o),
(51,552,o),
(55,584,c),
(42,569,o),
(29,559,o),
(16,552,c),
(12,529,o),
(11,508,o),
(15,487,c),
(-3,473,o),
(-23,464,o),
(-43,453,c),
(-39,446,o),
(-37,429,o),
(-37,420,c),
(-35,94,l),
(-35,90,o),
(-36,82,o),
(-40,78,c),
(-20,55,o),
(-3,29,o),
(10,3,c),
(20,14,o),
(35,23,o),
(50,32,c),
(38,55,o),
(24,77,o),
(5,98,c),
(10,218,o),
(7,340,o),
(2,467,c),
(17,475,o),
(31,484,o),
(46,494,c),
(50,497,o),
(53,498,o),
(56,498,c)
);
},
{
closed = 1;
nodes = (
(90,95,l),
(90,104,o),
(93,117,o),
(95,122,c),
(83,111,o),
(64,100,o),
(48,95,c),
(45,50,o),
(47,12,o),
(46,-30,c),
(54,-15,o),
(66,0,o),
(90,12,c)
);
},
{
closed = 1;
nodes = (
(-54,621,l),
(-100,578,l),
(111,578,l),
(157,621,l)
);
}
);
width = 157;
}
);
unicode = 2342;
},
{
glyphname = dhadeva;
lastChange = "2025-02-13 06:24:51 +0000";
layers = (
{
background = {
shapes = (
{
closed = 1;
nodes = (
(656,622,l),
(343,622,l),
(343,484,l),
(394,484,l),
(394,208,l),
(408,296,l),
(366,243,o),
(315,211,o),
(252,211,cs),
(220,211,o),
(200,222,o),
(200,245,cs),
(200,266,o),
(217,277,o),
(254,277,cs),
(264,277,o),
(276,277,o),
(285,276,c),
(293,399,l),
(283,401,o),
(257,403,o),
(237,403,cs),
(186,403,o),
(139,394,o),
(101,373,cs),
(96,370,o),
(94,361,o),
(88,358,c),
(42,328,o),
(23,288,o),
(23,242,cs),
(23,140,o),
(102,73,o),
(236,73,cs),
(317,73,o),
(370,94,o),
(426,131,c),
(394,146,l),
(394,0,l),
(571,0,l),
(571,484,l),
(656,484,l)
);
},
{
closed = 1;
nodes = (
(183,396,l),
(129,403,o),
(90,431,o),
(90,473,cs),
(90,501,o),
(108,514,o),
(131,514,cs),
(152,514,o),
(164,505,o),
(164,486,cs),
(164,475,o),
(159,467,o),
(153,461,c),
(251,408,l),
(276,437,o),
(291,465,o),
(291,510,cs),
(291,578,o),
(232,632,o),
(126,632,cs),
(20,632,o),
(-60,571,o),
(-60,477,cs),
(-60,349,o),
(51,296,o),
(168,285,c)
);
}
);
};
layerId = "AB31CCB0-FABB-42DD-B4D9-C6BC88EA8185";
shapes = (
{
closed = 1;
nodes = (
(81,78,l),
(61,99,o),
(18,142,o),
(-8,159,c),
(-2,202,o),
(0,324,o),
(-6,372,c),
(12,393,l),
(6,400,l),
(-11,377,o),
(-26,361,o),
(-46,345,c),
(-42,326,o),
(-45,159,o),
(-50,142,c),
(-20,122,o),
(28,82,o),
(50,51,c)
);
},
{
closed = 1;
nodes = (
(18,381,o),
(32,392,o),
(42,404,c),
(38,413,o),
(1,448,o),
(-6,451,c),
(-5,459,o),
(-2,554,o),
(-5,572,c),
(15,590,l),
(25,582,o),
(34,576,o),
(46,572,c),
(24,559,o),
(10,549,o),
(-11,531,c),
(-12,521,l),
(17,545,o),
(48,568,o),
(81,588,c),
(63,597,o),
(50,609,o),
(35,621,c),
(10,591,o),
(-9,575,o),
(-46,549,c),
(-44,546,o),
(-42,434,o),
(-45,431,c),
(-32,427,o),
(7,384,o),
(10,375,c)
);
},
{
closed = 1;
nodes = (
(92,20,o),
(109,34,o),
(129,46,c),
(121,53,o),
(119,59,o),
(119,74,c),
(119,229,o),
(119,385,o),
(119,541,c),
(119,557,o),
(118,569,o),
(126,578,c),
(204,578,l),
(250,621,l),
(160,621,l),
(129,594,o),
(99,559,o),
(68,539,c),
(74,532,o),
(77,523,o),
(77,514,c),
(77,355,o),
(77,197,o),
(77,37,c),
(77,21,o),
(76,11,o),
(73,-2,c)
);
}
);
width = 250;
}
);
unicode = 2343;
},
{
glyphname = nadeva;
lastChange = "2025-02-13 06:25:24 +0000";
layers = (
{
background = {
shapes = (
{
closed = 1;
nodes = (
(-169,484,l),
(238,484,l),
(238,376,l),
(-53,376,ls),
(-124,376,o),
(-142,346,o),
(-142,302,cs),
(-142,230,o),
(-49,130,o),
(28,130,cs),
(83,130,o),
(111,162,o),
(111,236,cs),
(111,238,l),
(238,238,l),
(238,0,l),
(415,0,l),
(415,484,l),
(500,484,l),
(500,622,l),
(-169,622,l)
);
}
);
};
layerId = "AB31CCB0-FABB-42DD-B4D9-C6BC88EA8185";
shapes = (
{
closed = 1;
nodes = (
(-24,73,o),
(-33,82,o),
(-45,91,c),
(-43,294,l),
(-43,298,o),
(-40,302,o),
(-36,302,c),
(-10,302,l),
(-8,302,o),
(-5,302,o),
(-4,303,c),
(-5,301,o),
(-5,297,o),
(-5,294,c),
(-6,65,l),
(-9,63,o),
(-11,62,o),
(-14,59,c)
);
},
{
closed = 1;
nodes = (
(95,21,o),
(112,35,o),
(132,47,c),
(124,54,o),
(122,60,o),
(122,75,c),
(122,230,o),
(122,386,o),
(122,542,c),
(122,558,o),
(124,569,o),
(126,581,c),
(124,581,l),
(108,563,o),
(93,549,o),
(71,538,c),
(77,531,o),
(80,524,o),
(80,515,c),
(80,356,o),
(80,198,o),
(80,38,c),
(80,22,o),
(79,12,o),
(76,-1,c)
);
},
{
closed = 1;
nodes = (
(-42,340,l),
(-44,340,o),
(-45,340,o),
(-48,343,c),
(-54,327,o),
(-73,310,o),
(-90,301,c),
(-86,297,o),
(-86,289,o),
(-86,284,c),
(-86,100,l),
(-86,92,o),
(-89,89,o),
(-92,86,c),
(-71,71,o),
(-48,48,o),
(-33,24,c),
(-8,54,o),
(10,71,o),
(42,88,c),
(38,91,o),
(37,297,o),
(37,303,c),
(48,314,o),
(64,324,o),
(83,335,c),
(82,340,l),
(34,340,l)
);
},
{
closed = 1;
nodes = (
(-84,621,l),
(-130,578,l),
(145,578,l),
(191,621,l)
);
}
);
width = 191;
}
);
unicode = 2344;
},
{
glyphname = padeva;
lastChange = "2025-02-13 06:25:52 +0000";
layers = (
{
background = {
shapes = (
{
closed = 1;
nodes = (
(582,484,l),
(582,622,l),
(-78,622,l),
(-78,484,l),
(-21,484,l),
(-21,349,ls),
(-21,247,o),
(1,205,o),
(32,170,cs),
(57,141,o),
(108,113,o),
(184,113,cs),
(262,113,o),
(307,125,o),
(380,170,c),
(320,215,l),
(320,0,l),
(497,0,l),
(497,484,l)
);
},
{
closed = 1;
nodes = (
(320,222,l),
(348,328,l),
(323,292,o),
(274,251,o),
(222,251,cs),
(198,251,o),
(183,257,o),
(174,266,cs),
(159,281,o),
(156,300,o),
(156,349,cs),
(156,484,l),
(320,484,l)
);
}
);
};
layerId = "AB31CCB0-FABB-42DD-B4D9-C6BC88EA8185";
shapes = (
{
closed = 1;
nodes = (
(37,89,o),
(75,120,o),
(101,133,c),
(72,122,l),
(45,102,l),
(34,115,o),
(26,126,o),
(13,138,c),
(13,544,l),
(13,560,o),
(15,571,o),
(17,583,c),
(15,583,l),
(-1,565,o),
(-16,551,o),
(-38,539,c),
(-32,532,o),
(-29,525,o),
(-29,517,cs),
(-30,157,l),
(-30,142,o),
(-35,136,o),
(-41,132,c),
(-25,125,o),
(17,83,o),
(24,67,c)
);
},
{
closed = 1;
nodes = (
(71,21,o),
(88,35,o),
(108,48,c),
(100,55,o),
(98,60,o),
(98,75,c),
(98,544,l),
(98,560,o),
(100,571,o),
(102,583,c),
(100,583,l),
(84,565,o),
(69,551,o),
(47,539,c),
(53,532,o),
(56,525,o),
(56,517,c),
(56,357,o),
(56,198,o),
(56,38,c),
(56,22,o),
(55,12,o),
(52,-1,c)
);
},
{
closed = 1;
nodes = (
(155,578,l),
(201,621,l),
(-69,621,l),
(-115,578,l)
);
}
);
width = 201;
}
);
unicode = 2346;
},
{
glyphname = phadeva;
lastChange = "2025-02-13 06:26:05 +0000";
layers = (
{
anchors = (
{
name = Anchor2;
pos = (269,622);
},
{
name = Anchor6;
pos = (269,0);
},
{
name = Anchor8;
pos = (357,0);
}
);
background = {
shapes = (
{
closed = 1;
nodes = (
(772,484,l),
(772,622,l),
(-112,622,l),
(-112,484,l),
(-55,484,l),
(-55,349,ls),
(-55,247,o),
(-33,205,o),
(-2,170,cs),
(24,141,o),
(74,113,o),
(150,113,cs),
(208,113,o),
(260,122,o),
(317,165,c),
(269,192,l),
(269,0,l),
(446,0,l),
(446,289,l),
(441,221,l),
(460,242,o),
(487,263,o),
(513,263,cs),
(535,263,o),
(553,250,o),
(553,214,cs),
(553,178,o),
(534,143,o),
(503,103,c),
(656,20,l),
(711,96,o),
(730,161,o),
(730,224,cs),
(730,333,o),
(658,400,o),
(551,400,cs),
(500,400,o),
(466,389,o),
(428,364,c),
(446,320,l),
(446,484,l)
);
},
{
closed = 1;
nodes = (
(269,484,l),
(269,220,l),
(297,313,l),
(279,290,o),
(240,251,o),
(188,251,cs),
(164,251,o),
(149,257,o),
(140,266,cs),
(125,281,o),
(122,300,o),
(122,349,cs),
(122,484,l)
);
}
);
};
layerId = "AB31CCB0-FABB-42DD-B4D9-C6BC88EA8185";
shapes = (
{
closed = 1;
nodes = (
(5,89,o),
(43,120,o),
(69,133,c),
(40,122,l),
(13,102,l),
(2,115,o),
(-6,126,o),
(-19,138,c),
(-19,544,l),
(-19,560,o),
(-17,571,o),
(-15,583,c),
(-17,583,l),
(-33,565,o),
(-48,551,o),
(-70,539,c),
(-64,532,o),
(-61,525,o),
(-61,517,cs),
(-62,157,l),
(-62,142,o),
(-67,136,o),
(-73,132,c),
(-57,125,o),
(-15,83,o),
(-8,67,c)
);
},
{
closed = 1;
nodes = (
(38,21,o),
(55,35,o),
(75,48,c),
(67,55,o),
(65,60,o),
(65,75,c),
(65,544,l),
(65,560,o),
(67,571,o),
(69,583,c),
(67,583,l),
(51,565,o),
(36,551,o),
(14,539,c),
(20,532,o),
(23,525,o),
(23,517,c),
(23,357,o),
(23,198,o),
(23,38,c),
(23,22,o),
(22,12,o),
(19,-1,c)
);
},
{
closed = 1;
nodes = (
(181,578,l),
(227,621,l),
(-74,621,l),
(-120,578,l)
);
},
{
closed = 1;
nodes = (
(86,479,o),
(48,448,o),
(22,435,c),
(51,446,l),
(78,466,l),
(89,453,o),
(97,442,o),
(110,430,c),
(110,107,l),
(110,91,o),
(108,-3,o),
(106,-15,c),
(108,68,l),
(124,86,o),
(139,100,o),
(161,112,c),
(155,119,o),
(152,126,o),
(152,134,cs),
(153,411,l),
(153,426,o),
(158,432,o),
(164,436,c),
(148,443,o),
(106,485,o),
(99,501,c)
);
}
);
width = 227;
}
);
unicode = 2347;
},
{
glyphname = badeva;
lastChange = "2025-02-13 06:26:22 +0000";
layers = (
{
background = {
shapes = (
{
closed = 1;
nodes = (
(564,622,l),
(-100,622,l),
(-100,484,l),
(302,484,l),
(302,191,l),
(327,300,l),
(301,258,o),
(246,202,o),
(157,202,cs),
(118,202,o),
(91,212,o),
(91,257,cs),
(91,293,o),
(121,312,o),
(182,312,cs),
(216,312,o),
(241,307,o),
(260,304,c),
(275,431,l),
(241,436,o),
(209,440,o),
(165,440,cs),
(12,440,o),
(-72,369,o),
(-72,261,cs),
(-72,134,o),
(17,73,o),
(139,73,cs),
(232,73,o),
(288,94,o),
(353,140,c),
(302,174,l),
(302,0,l),
(479,0,l),
(479,484,l),
(564,484,l)
);
},
{
closed = 1;
nodes = (
(46,368,l),
(234,133,l),
(305,180,l),
(133,395,l)
);
}
);
};
layerId = "AB31CCB0-FABB-42DD-B4D9-C6BC88EA8185";
shapes = (
{
closed = 1;
nodes = (
(50,121,l),
(-3,172,l),
(2,187,o),
(11,386,o),
(-2,434,c),
(11,447,o),
(37,477,o),
(45,490,c),
(45,511,l),
(31,482,o),
(-32,414,o),
(-48,405,c),
(-35,398,o),
(-34,158,o),
(-45,154,c),
(-14,140,o),
(14,103,o),
(17,86,c)
);
},
{
closed = 1;
nodes = (
(49,121,l),
(36,234,o),
(22,341,o),
(8,451,c),
(3,443,l),
(14,336,o),
(32,203,o),
(35,121,c)
);
},
{
closed = 1;
nodes = (
(60,22,o),
(77,36,o),
(97,48,c),
(89,55,o),
(87,61,o),
(87,76,c),
(87,551,l),
(87,567,o),
(89,579,o),
(91,591,c),
(89,591,l),
(73,573,o),
(58,558,o),
(36,547,c),
(42,540,o),
(45,533,o),
(45,524,c),
(45,362,o),
(45,201,o),
(45,39,c),
(45,23,o),
(44,12,o),
(41,-1,c)
);
},
{
closed = 1;
nodes = (
(146,578,l),
(192,621,l),
(-54,621,l),
(-100,578,l)
);
}
);
width = 192;
}
);
unicode = 2348;
},
{
glyphname = bhadeva;
lastChange = "2025-02-13 06:27:27 +0000";
layers = (
{
background = {
shapes = (
{
closed = 1;
nodes = (
(-410,632,o),
(-487,593,o),
(-487,502,cs),
(-487,408,o),
(-409,362,o),
(-303,354,c),
(-293,461,l),
(-332,465,o),
(-346,475,o),
(-346,495,cs),
(-346,510,o),
(-336,520,o),
(-317,520,cs),
(-303,520,o),
(-291,516,o),
(-283,508,cs),
(-269,495,o),
(-263,474,o),
(-263,434,cs),
(-263,332,l),
(-257,333,l),
(-327,333,o),
(-342,301,o),
(-342,267,cs),
(-342,197,o),
(-249,101,o),
(-172,101,cs),
(-117,101,o),
(-89,129,o),
(-89,193,cs),
(-89,195,l),
(53,195,l),
(53,0,l),
(230,0,l),
(230,484,l),
(315,484,l),
(315,622,l),
(-22,622,l),
(-22,484,l),
(53,484,l),
(53,333,l),
(-89,333,l),
(-89,409,ls),
(-89,503,o),
(-112,550,o),
(-145,579,cs),
(-187,615,o),
(-236,632,o),
(-311,632,cs)
);
}
);
};
layerId = "AB31CCB0-FABB-42DD-B4D9-C6BC88EA8185";
shapes = (
{
closed = 1;
nodes = (
(127,20,o),
(144,34,o),
(164,46,c),
(156,53,o),
(154,59,o),
(154,74,c),
(154,229,o),
(154,385,o),
(154,541,c),
(154,557,o),
(153,569,o),
(161,578,c),
(212,578,l),
(258,621,l),
(195,621,l),
(164,594,o),
(134,559,o),
(103,539,c),
(109,532,o),
(112,523,o),
(112,514,c),
(112,355,o),
(112,197,o),
(112,37,c),
(112,21,o),
(111,11,o),
(108,-2,c)
);
},
{
closed = 1;
nodes = (
(24,53,o),
(42,70,o),
(74,87,c),
(70,90,o),
(69,95,o),
(69,101,c),
(68,585,l),
(68,605,o),
(71,615,o),
(78,623,c),
(61,620,o),
(40,618,o),
(20,623,c),
(5,602,o),
(-34,566,o),
(-46,559,c),
(-26,544,o),
(-10,527,o),
(3,508,c),
(14,518,o),
(22,526,o),
(29,537,c),
(29,533,o),
(26,339,o),
(23,339,c),
(-8,339,l),
(-10,339,o),
(-13,339,o),
(-16,342,c),
(-22,326,o),
(-41,309,o),
(-58,300,c),
(-54,296,o),
(-54,288,o),
(-54,283,c),
(-54,99,l),
(-54,91,o),
(-57,88,o),
(-60,85,c),
(-39,70,o),
(-16,47,o),
(-1,23,c)
);
},
{
closed = 1;
nodes = (
(8,72,o),
(-1,81,o),
(-13,90,c),
(-11,293,l),
(-11,297,o),
(-8,301,o),
(-4,301,c),
(22,301,l),
(24,301,o),
(27,301,o),
(28,302,c),
(27,300,o),
(27,296,o),
(27,293,c),
(26,64,l),
(23,62,o),
(21,61,o),
(18,58,c)
);
},
{
closed = 1;
nodes = (
(118,341,l),
(32,341,l),
(66,303,l)
);
},
{
closed = 1;
nodes = (
(18,554,o),
(3,567,o),
(-14,581,c),
(-12,583,o),
(-11,584,o),
(-9,586,c),
(8,583,o),
(18,581,o),
(33,583,c),
(30,568,o),
(30,552,o),
(29,537,c)
);
}
);
width = 268;
}
);
unicode = 2349;
},
{
glyphname = madeva;
lastChange = "2025-02-13 08:22:29 +0000";
layers = (
{
background = {
shapes = (
{
closed = 1;
nodes = (
(546,484,l),
(546,622,l),
(-155,622,l),
(-155,484,l),
(-52,484,l),
(-52,332,l),
(-43,333,l),
(-113,333,o),
(-128,301,o),
(-128,267,cs),
(-128,197,o),
(-35,101,o),
(42,101,cs),
(97,101,o),
(125,129,o),
(125,193,cs),
(125,195,l),
(284,195,l),
(284,0,l),
(461,0,l),
(461,484,l)
);
},
{
closed = 1;
nodes = (
(284,333,l),
(125,333,l),
(125,484,l),
(284,484,l)
);
}
);
};
backgroundImage = {
imagePath = "Images/madeva-Bold.tif";
pos = (-93,-160);
scale = (2.3429,2.3429);
};
layerId = "AB31CCB0-FABB-42DD-B4D9-C6BC88EA8185";
shapes = (
{
closed = 1;
nodes = (
(46,54,o),
(64,71,o),
(96,88,c),
(92,91,o),
(91,96,o),
(91,102,c),
(91,538,ls),
(91,554,o),
(93,565,o),
(95,577,c),
(93,577,l),
(77,559,o),
(62,545,o),
(40,534,c),
(46,527,o),
(49,519,o),
(49,511,cs),
(49,348,l),
(49,344,o),
(48,340,o),
(45,340,c),
(14,340,l),
(12,340,o),
(9,340,o),
(6,343,c),
(0,327,o),
(-19,310,o),
(-36,301,c),
(-32,297,o),
(-32,289,o),
(-32,284,c),
(-32,100,l),
(-32,92,o),
(-35,89,o),
(-38,86,c),
(-17,71,o),
(6,48,o),
(21,24,c)
);
},
{
closed = 1;
nodes = (
(30,73,o),
(21,82,o),
(9,91,c),
(11,294,l),
(11,298,o),
(14,302,o),
(18,302,c),
(44,302,l),
(46,302,o),
(49,302,o),
(50,303,c),
(49,301,o),
(49,297,o),
(49,294,c),
(48,65,l),
(45,63,o),
(43,62,o),
(40,59,c)
);
},
{
closed = 1;
nodes = (
(102,314,o),
(118,324,o),
(137,335,c),
(136,340,l),
(88,340,l),
(81,334,l),
(91,303,l)
);
},
{
closed = 1;
nodes = (
(149,21,o),
(166,35,o),
(186,47,c),
(178,54,o),
(176,60,o),
(176,75,c),
(176,230,o),
(176,386,o),
(176,542,c),
(176,558,o),
(178,569,o),
(180,581,c),
(178,581,l),
(162,563,o),
(147,549,o),
(125,538,c),
(131,531,o),
(134,524,o),
(134,515,c),
(134,356,o),
(134,198,o),
(134,38,c),
(134,22,o),
(133,12,o),
(130,-1,c)
);
},
{
closed = 1;
nodes = (
(-14,621,l),
(-60,578,l),
(230,578,l),
(276,621,l)
);
}
);
width = 226;
}
);
unicode = 2350;
},
{
glyphname = yadeva;
lastChange = "2025-02-13 06:27:58 +0000";
layers = (
{
background = {
shapes = (
{
closed = 1;
nodes = (
(-105,622,l),
(-105,484,l),
(94,484,l),
(-15,523,l),
(7,503,o),
(24,478,o),
(24,444,cs),
(24,396,o),
(-5,372,o),
(-82,355,c),
(-48,201,o),
(24,95,o),
(177,95,cs),
(246,95,o),
(293,108,o),
(363,152,c),
(318,209,l),
(318,0,l),
(495,0,l),
(495,484,l),
(580,484,l),
(580,622,l)
);
},
{
closed = 1;
nodes = (
(318,484,l),
(318,228,l),
(359,359,l),
(319,270,o),
(263,233,o),
(193,233,cs),
(149,233,o),
(117,257,o),
(101,288,c),
(162,312,o),
(200,353,o),
(200,417,cs),
(200,468,o),
(177,506,o),
(152,539,c),
(97,484,l)
);
}
);
};
layerId = "AB31CCB0-FABB-42DD-B4D9-C6BC88EA8185";
shapes = (
{
closed = 1;
nodes = (
(4,158,o),
(16,168,o),
(34,188,c),
(32,189,o),
(29,193,o),
(29,197,c),
(26,215,o),
(29,503,o),
(33,527,c),
(10,541,o),
(-2,555,o),
(-16,583,c),
(-26,570,o),
(-41,560,o),
(-52,557,c),
(-41,532,o),
(-25,516,o),
(-10,506,c),
(-9,447,o),
(-10,182,o),
(-10,161,c),
(-10,160,o),
(-16,156,o),
(-24,151,c),
(-20,145,l)
);
},
{
closed = 1;
nodes = (
(23,66,o),
(55,94,o),
(75,109,c),
(75,123,l),
(65,114,o),
(38,93,o),
(28,83,c),
(20,98,o),
(-3,129,o),
(-26,153,c),
(-28,155,o),
(-29,156,o),
(-33,158,c),
(-47,144,o),
(-53,140,o),
(-70,129,c),
(-68,129,o),
(-66,128,o),
(-64,127,c),
(-53,121,o),
(-6,62,o),
(2,43,c)
);
},
{
closed = 1;
nodes = (
(87,14,o),
(104,28,o),
(124,40,c),
(116,47,o),
(114,53,o),
(114,68,c),
(114,543,l),
(114,559,o),
(116,571,o),
(118,583,c),
(116,583,l),
(100,565,o),
(85,550,o),
(63,539,c),
(69,532,o),
(72,525,o),
(72,516,c),
(72,31,l),
(72,15,o),
(71,4,o),
(68,-9,c)
);
},
{
closed = 1;
nodes = (
(167,578,l),
(213,621,l),
(-64,621,l),
(-110,578,l)
);
}
);
width = 213;
}
);
unicode = 2351;
},
{
glyphname = radeva;
lastChange = "2025-02-13 09:17:20 +0000";
layers = (
{
layerId = "AB31CCB0-FABB-42DD-B4D9-C6BC88EA8185";
shapes = (
{
closed = 1;
nodes = (
(-54,621,l),
(-100,578,l),
(88,578,l),
(134,621,l)
);
},
{
closed = 1;
nodes = (
(27,118,o),
(8,139,o),
(-3,163,c),
(21,176,o),
(32,184,o),
(52,204,c),
(49,222,o),
(46,503,o),
(50,527,c),
(27,541,o),
(15,555,o),
(1,583,c),
(-9,570,o),
(-24,560,o),
(-35,557,c),
(-24,532,o),
(-8,516,o),
(7,506,c),
(8,447,o),
(7,201,o),
(7,180,c),
(7,179,o),
(3,175,o),
(-5,170,c),
(-7,174,o),
(-7,174,o),
(-8,179,c),
(-20,164,o),
(-41,152,o),
(-48,151,c),
(-37,124,o),
(-12,93,o),
(6,80,c),
(6,59,o),
(7,37,o),
(7,16,c),
(7,10,o),
(8,6,o),
(5,0,c),
(22,18,o),
(36,30,o),
(53,43,c),
(51,44,o),
(48,47,o),
(48,50,c),
(48,63,o),
(48,88,o),
(48,104,c)
);
}
);
width = 134;
}
);
unicode = 2352;
},
{
color = 0;
glyphname = rradeva;
lastChange = "2025-02-13 08:17:23 +0000";
layers = (
{
layerId = "AB31CCB0-FABB-42DD-B4D9-C6BC88EA8185";
shapes = (
{
closed = 1;
nodes = (
(46,621,l),
(0,578,l),
(188,578,l),
(234,621,l)
);
},
{
closed = 1;
nodes = (
(127,118,o),
(108,139,o),
(97,163,c),
(121,176,o),
(132,184,o),
(152,204,c),
(149,222,o),
(146,503,o),
(150,527,c),
(127,541,o),
(115,555,o),
(101,583,c),
(91,570,o),
(76,560,o),
(65,557,c),
(76,532,o),
(92,516,o),
(107,506,c),
(108,447,o),
(107,201,o),
(107,180,c),
(107,179,o),
(103,175,o),
(95,170,c),
(93,174,o),
(93,174,o),
(92,179,c),
(80,164,o),
(59,152,o),
(52,151,c),
(63,124,o),
(88,93,o),
(106,80,c),
(106,59,o),
(107,37,o),
(107,16,c),
(107,10,o),
(108,6,o),
(105,0,c),
(122,18,o),
(136,30,o),
(153,43,c),
(151,44,o),
(148,47,o),
(148,50,c),
(148,63,o),
(148,88,o),
(148,104,c)
);
}
);
width = 222;
}
);
unicode = 2353;
},
{
glyphname = ladeva;
lastChange = "2025-02-13 06:28:31 +0000";
layers = (
{
background = {
shapes = (
{
closed = 1;
nodes = (
(351,484,l),
(351,408,l),
(445,388,l),
(443,411,l),
(427,416,o),
(392,421,o),
(369,421,cs),
(232,421,o),
(139,355,o),
(104,209,c),
(270,159,l),
(294,257,o),
(332,289,o),
(365,289,cs),
(397,289,o),
(410,287,o),
(428,277,c),
(351,347,l),
(351,0,l),
(528,0,l),
(528,484,l),
(613,484,l),
(613,622,l),
(-178,622,l),
(-178,484,l)
);
},
{
closed = 1;
nodes = (
(233,355,l),
(166,403,o),
(128,423,o),
(41,423,cs),
(-39,423,o),
(-149,383,o),
(-149,252,cs),
(-149,156,o),
(-71,69,o),
(39,-19,c),
(148,89,l),
(52,159,o),
(28,201,o),
(28,238,cs),
(28,267,o),
(46,284,o),
(75,284,cs),
(116,284,o),
(140,261,o),
(173,225,c)
);
}
);
};
layerId = "AB31CCB0-FABB-42DD-B4D9-C6BC88EA8185";
shapes = (
{
closed = 1;
nodes = (
(-18,20,o),
(6,34,o),
(26,46,c),
(18,53,o),
(16,59,o),
(16,74,c),
(16,334,l),
(27,339,o),
(43,350,o),
(55,359,c),
(52,303,o),
(53,221,o),
(56,169,c),
(73,188,o),
(88,200,o),
(102,210,c),
(95,247,o),
(99,368,o),
(104,415,c),
(97,403,o),
(-22,333,o),
(-37,328,c),
(-33,317,o),
(-33,309,o),
(-33,296,c),
(-33,37,ls),
(-33,21,o),
(-34,10,o),
(-37,-3,c)
);
},
{
closed = 1;
nodes = (
(110,311,o),
(134,332,o),
(159,357,c),
(159,372,l),
(133,350,o),
(109,328,o),
(82,310,c),
(84,292,l)
);
},
{
closed = 1;
nodes = (
(157,19,o),
(174,33,o),
(194,45,c),
(186,52,o),
(184,58,o),
(184,73,c),
(184,548,l),
(184,564,o),
(186,576,o),
(188,588,c),
(186,588,l),
(170,570,o),
(155,555,o),
(133,544,c),
(139,537,o),
(142,530,o),
(142,521,c),
(142,36,l),
(142,20,o),
(141,9,o),
(138,-4,c)
);
},
{
closed = 1;
nodes = (
(214,578,l),
(260,621,l),
(-44,621,l),
(-90,578,l)
);
}
);
width = 260;
}
);
unicode = 2354;
},
{
glyphname = lladeva;
lastChange = "2025-02-13 06:28:43 +0000";
layers = (
{
anchors = (
{
name = Anchor2;
pos = (411,622);
},
{
name = Anchor6;
pos = (401,0);
}
);
background = {
shapes = (
{
closed = 1;
nodes = (
(411,484,l),
(411,399,l),
(584,399,l),
(584,484,l),
(769,484,l),
(769,622,l),
(-88,622,l),
(-88,484,l)
);
},
{
closed = 1;
nodes = (
(385,332,l),
(313,411,o),
(246,444,o),
(154,444,cs),
(23,444,o),
(-58,369,o),
(-58,244,cs),
(-58,94,o),
(34,22,o),
(165,22,cs),
(242,22,o),
(354,46,o),
(405,196,cs),
(413,220,ls),
(433,279,o),
(452,304,o),
(493,304,cs),
(520,304,o),
(547,286,o),
(547,236,cs),
(547,178,o),
(517,161,o),
(478,161,cs),
(428,161,o),
(399,190,o),
(353,249,c),
(281,135,l),
(353,56,o),
(420,22,o),
(512,22,cs),
(643,22,o),
(724,96,o),
(724,226,cs),
(724,367,o),
(632,443,o),
(501,443,cs),
(424,443,o),
(312,421,o),
(261,269,cs),
(253,245,ls),
(233,186,o),
(214,161,o),
(173,161,cs),
(146,161,o),
(119,179,o),
(119,229,cs),
(119,287,o),
(149,305,o),
(188,305,cs),
(238,305,o),
(267,275,o),
(313,216,c)
);
}
);
};
layerId = "AB31CCB0-FABB-42DD-B4D9-C6BC88EA8185";
shapes = (
{
closed = 1;
nodes = (
(182,19,o),
(252,76,o),
(264,83,c),
(256,116,o),
(261,444,o),
(265,474,c),
(250,488,o),
(233,501,o),
(225,521,c),
(241,536,o),
(261,557,o),
(282,578,c),
(261,579,l),
(211,519,o),
(154,469,o),
(86,444,c),
(86,433,l),
(129,453,l),
(141,416,o),
(132,89,o),
(128,58,c),
(142,48,o),
(162,19,o),
(171,4,c)
);
},
{
closed = 1;
nodes = (
(14,18,o),
(84,75,o),
(96,82,c),
(88,115,o),
(93,443,o),
(97,473,c),
(82,487,o),
(60,513,o),
(52,533,c),
(27,507,o),
(-9,477,o),
(-42,456,c),
(-30,419,o),
(-36,88,o),
(-40,57,c),
(-26,47,o),
(-6,18,o),
(3,3,c)
);
},
{
closed = 1;
nodes = (
(14,18,o),
(84,75,o),
(96,82,c),
(88,115,o),
(93,443,o),
(97,473,c),
(82,487,o),
(60,513,o),
(52,533,c),
(27,507,o),
(-9,477,o),
(-42,456,c),
(-30,419,o),
(-36,88,o),
(-40,57,c),
(-26,47,o),
(-6,18,o),
(3,3,c)
);
},
{
closed = 1;
nodes = (
(18,56,o),
(8,69,o),
(-3,80,c),
(6,84,o),
(10,444,o),
(0,471,c),
(10,478,o),
(16,483,o),
(26,492,c),
(34,479,o),
(45,466,o),
(54,455,c),
(46,405,o),
(45,113,o),
(51,63,c),
(43,57,o),
(33,49,o),
(26,42,c)
);
},
{
closed = 1;
nodes = (
(18,56,o),
(8,69,o),
(-3,80,c),
(6,84,o),
(10,444,o),
(0,471,c),
(10,478,o),
(16,483,o),
(26,492,c),
(34,479,o),
(45,466,o),
(54,455,c),
(46,405,o),
(45,113,o),
(51,63,c),
(43,57,o),
(33,49,o),
(26,42,c)
);
},
{
closed = 1;
nodes = (
(186,57,o),
(176,70,o),
(165,81,c),
(174,85,o),
(178,446,o),
(168,473,c),
(178,480,o),
(187,486,o),
(197,495,c),
(205,482,o),
(213,468,o),
(222,457,c),
(214,407,o),
(213,114,o),
(219,64,c),
(211,58,o),
(201,50,o),
(194,43,c)
);
},
{
closed = 0;
nodes = (
(264,83,l),
(256,116,o),
(261,444,o),
(265,474,c)
);
},
{
closed = 1;
nodes = (
(-44,621,l),
(-90,578,l),
(297,578,l),
(343,621,l)
);
}
);
width = 343;
}
);
unicode = 2355;
},
{
glyphname = vadeva;
lastChange = "2025-02-13 06:28:53 +0000";
layers = (
{
background = {
shapes = (
{
closed = 1;
nodes = (
(559,622,l),
(-90,622,l),
(-90,484,l),
(297,484,l),
(297,185,l),
(325,308,l),
(300,264,o),
(245,212,o),
(171,212,cs),
(147,212,o),
(115,217,o),
(115,257,cs),
(115,285,o),
(140,302,o),
(188,302,cs),
(218,302,o),
(239,299,o),
(255,296,c),
(270,431,l),
(238,436,o),
(207,440,o),
(164,440,cs),
(23,440,o),
(-62,369,o),
(-62,261,cs),
(-62,134,o),
(24,73,o),
(153,73,cs),
(236,73,o),
(288,94,o),
(351,140,c),
(297,174,l),
(297,0,l),
(474,0,l),
(474,484,l),
(559,484,l)
);
}
);
};
layerId = "AB31CCB0-FABB-42DD-B4D9-C6BC88EA8185";
shapes = (
{
closed = 1;
nodes = (
(31,482,o),
(-32,414,o),
(-48,405,c),
(-35,398,o),
(-34,158,o),
(-45,154,c),
(-14,140,o),
(14,103,o),
(17,86,c),
(50,121,l),
(-3,172,l),
(2,187,o),
(11,386,o),
(-2,434,c),
(11,447,o),
(37,477,o),
(45,490,c),
(45,511,l)
);
},
{
closed = 1;
nodes = (
(73,573,o),
(58,558,o),
(36,547,c),
(42,540,o),
(45,533,o),
(45,524,c),
(45,362,o),
(45,201,o),
(45,39,c),
(45,23,o),
(44,12,o),
(41,-1,c),
(60,22,o),
(77,36,o),
(97,48,c),
(89,55,o),
(87,61,o),
(87,76,c),
(87,551,l),
(87,567,o),
(89,579,o),
(91,591,c),
(89,591,l)
);
},
{
closed = 1;
nodes = (
(-54,621,l),
(-100,578,l),
(146,578,l),
(192,621,l)
);
}
);
width = 192;
}
);
unicode = 2357;
},
{
glyphname = shadeva;
lastChange = "2025-02-13 06:56:09 +0000";
layers = (
{
background = {
shapes = (
{
closed = 1;
nodes = (
(687,484,l),
(687,622,l),
(359,622,l),
(359,484,l),
(425,484,l),
(425,0,l),
(602,0,l),
(602,484,l)
);
},
{
closed = 1;
nodes = (
(210,135,o),
(348,246,o),
(348,420,cs),
(348,561,o),
(237,632,o),
(101,632,cs),
(-24,632,o),
(-90,578,o),
(-90,490,cs),
(-90,409,o),
(-25,352,o),
(114,337,c),
(152,444,l),
(94,451,o),
(74,466,o),
(74,491,cs),
(74,510,o),
(89,519,o),
(107,519,cs),
(144,519,o),
(171,486,o),
(171,428,cs),
(171,335,o),
(101,275,o),
(11,266,c),
(1,219,l),
(59,172,o),
(142,94,o),
(227,-8,c),
(351,87,l),
(295,142,o),
(225,202,o),
(166,244,cs),
(147,258,l),
(107,300,o),
(42,322,o),
(-3,322,cs),
(-71,322,o),
(-109,288,o),
(-109,235,cs),
(-109,166,o),
(-51,134,o),
(22,134,cs)
);
}
);
};
backgroundImage = {
imagePath = "Images/shadeva-Bold.tif";
pos = (-56,-1);
scale = (1.194,1.194);
};
layerId = "AB31CCB0-FABB-42DD-B4D9-C6BC88EA8185";
shapes = (
{
closed = 1;
nodes = (
(301,621,l),
(202,621,l),
(181,589,o),
(153,555,o),
(120,523,c),
(126,516,o),
(127,509,o),
(127,500,c),
(126,431,l),
(124,24,l),
(124,8,o),
(123,-3,o),
(120,-16,c),
(139,7,o),
(156,21,o),
(176,33,c),
(168,40,o),
(166,46,o),
(166,61,c),
(168,530,l),
(168,546,o),
(168,553,o),
(170,565,c),
(180,578,l),
(254,578,l)
);
},
{
closed = 0;
nodes = (
(29,144,l),
(53,157,o),
(64,165,o),
(84,185,c),
(80,187,o),
(81,212,o),
(81,218,c)
);
},
{
closed = 1;
nodes = (
(39,158,o),
(35,154,o),
(27,149,c),
(25,153,o),
(25,153,o),
(24,158,c),
(12,143,o),
(-9,131,o),
(-16,130,c),
(-5,103,o),
(20,72,o),
(38,59,c),
(38,38,o),
(39,16,o),
(39,-5,c),
(39,-11,o),
(40,-15,o),
(37,-21,c),
(54,-3,o),
(68,9,o),
(85,22,c),
(83,23,o),
(80,26,o),
(80,29,c),
(80,42,o),
(80,67,o),
(80,83,c),
(59,97,o),
(40,118,o),
(29,142,c),
(53,155,o),
(64,163,o),
(84,183,c),
(81,201,o),
(71,568,o),
(92,622,c),
(75,619,o),
(46,616,o),
(26,621,c),
(11,600,o),
(-28,562,o),
(-40,555,c),
(-20,540,o),
(-4,523,o),
(3,502,c),
(14,510,o),
(29,522,o),
(39,533,c),
(28,550,o),
(11,564,o),
(-6,578,c),
(-4,580,o),
(-3,581,o),
(-1,583,c),
(16,580,o),
(29,580,o),
(44,583,c),
(28,573,o),
(45,166,o),
(39,159,c)
);
}
);
width = 331;
}
);
unicode = 2358;
},
{
glyphname = ssadeva;
lastChange = "2025-02-13 06:31:57 +0000";
layers = (
{
background = {
shapes = (
{
closed = 1;
nodes = (
(-175,622,l),
(-175,484,l),
(-118,484,l),
(-118,349,ls),
(-118,247,o),
(-96,205,o),
(-65,170,cs),
(-40,141,o),
(11,113,o),
(87,113,cs),
(173,113,o),
(227,128,o),
(295,172,c),
(240,215,l),
(240,0,l),
(417,0,l),
(417,484,l),
(502,484,l),
(502,622,l)
);
},
{
closed = 1;
nodes = (
(240,303,l),
(215,284,l),
(187,261,o),
(154,251,o),
(120,251,cs),
(96,251,o),
(81,257,o),
(72,266,cs),
(57,281,o),
(54,300,o),
(54,349,cs),
(54,484,l),
(240,484,l)
);
},
{
closed = 1;
nodes = (
(193,245,l),
(263,295,l),
(84,526,l),
(14,476,l)
);
}
);
};
layerId = "AB31CCB0-FABB-42DD-B4D9-C6BC88EA8185";
shapes = (
{
closed = 1;
nodes = (
(-16,89,o),
(22,120,o),
(48,133,c),
(19,122,l),
(-8,102,l),
(-19,115,o),
(-27,126,o),
(-40,138,c),
(-40,544,l),
(-40,560,o),
(-38,571,o),
(-36,583,c),
(-38,583,l),
(-54,565,o),
(-69,551,o),
(-91,539,c),
(-85,532,o),
(-82,525,o),
(-82,517,cs),
(-83,157,l),
(-83,142,o),
(-88,136,o),
(-94,132,c),
(-78,125,o),
(-36,83,o),
(-29,67,c)
);
},
{
closed = 1;
nodes = (
(18,21,o),
(35,35,o),
(55,48,c),
(47,55,o),
(45,60,o),
(45,75,c),
(45,544,l),
(45,560,o),
(47,571,o),
(49,583,c),
(47,583,l),
(31,565,o),
(16,551,o),
(-6,539,c),
(0,532,o),
(3,525,o),
(3,517,c),
(3,357,o),
(3,198,o),
(3,38,c),
(3,22,o),
(2,12,o),
(-1,-1,c)
);
},
{
closed = 1;
nodes = (
(74,578,l),
(129,621,l),
(-108,621,l),
(-154,578,l)
);
},
{
closed = 1;
nodes = (
(-31,357,o),
(-16,194,o),
(9,129,c),
(14,153,l),
(-8,206,o),
(-27,373,o),
(-51,514,c),
(-56,480,l)
);
}
);
width = 129;
}
);
unicode = 2359;
},
{
glyphname = sadeva;
lastChange = "2025-02-13 06:32:05 +0000";
layers = (
{
background = {
shapes = (
{
closed = 1;
nodes = (
(350,484,l),
(350,622,l),
(-123,622,l),
(-123,484,l),
(143,484,l),
(44,530,l),
(62,507,o),
(71,469,o),
(71,432,cs),
(71,393,o),
(59,363,o),
(31,327,c),
(136,280,l),
(95,346,o),
(64,398,o),
(-3,398,cs),
(-69,398,o),
(-96,356,o),
(-96,311,cs),
(-96,276,o),
(-82,242,o),
(-49,202,cs),
(6,136,o),
(98,61,o),
(204,-18,c),
(303,101,l),
(240,143,o),
(168,195,o),
(117,237,c),
(100,217,l),
(133,230,o),
(163,252,o),
(188,275,c),
(207,295,l),
(230,323,o),
(248,362,o),
(248,411,cs),
(248,460,o),
(235,496,o),
(221,525,c),
(222,484,l)
);
},
{
closed = 1;
nodes = (
(670,484,l),
(670,622,l),
(309,622,l),
(309,484,l),
(408,484,l),
(408,0,l),
(585,0,l),
(585,484,l)
);
},
{
closed = 1;
nodes = (
(234,340,o),
(199,347,o),
(138,363,c),
(124,245,l),
(165,225,o),
(231,202,o),
(309,202,cs),
(364,202,o),
(421,212,o),
(478,233,c),
(478,372,l),
(403,346,o),
(359,340,o),
(297,340,cs)
);
}
);
};
layerId = "AB31CCB0-FABB-42DD-B4D9-C6BC88EA8185";
shapes = (
{
closed = 1;
nodes = (
(147,20,o),
(163,35,o),
(183,46,c),
(175,53,o),
(173,58,o),
(173,73,c),
(173,224,o),
(173,387,o),
(173,539,c),
(173,553,o),
(175,564,o),
(177,576,c),
(175,581,l),
(159,562,o),
(145,546,o),
(124,536,c),
(130,528,o),
(133,521,o),
(133,512,c),
(133,357,o),
(133,192,o),
(133,37,c),
(133,22,o),
(132,11,o),
(129,-1,c)
);
},
{
closed = 1;
nodes = (
(-54,621,l),
(-100,578,l),
(214,578,l),
(260,621,l)
);
},
{
closed = 1;
nodes = (
(27,118,o),
(8,139,o),
(-3,163,c),
(21,176,o),
(32,184,o),
(52,204,c),
(49,222,o),
(46,503,o),
(50,527,c),
(27,541,o),
(15,555,o),
(1,583,c),
(-9,570,o),
(-24,560,o),
(-35,557,c),
(-24,532,o),
(-8,516,o),
(7,506,c),
(8,447,o),
(7,201,o),
(7,180,c),
(7,179,o),
(3,175,o),
(-5,170,c),
(-7,174,o),
(-7,174,o),
(-8,179,c),
(-20,164,o),
(-41,152,o),
(-48,151,c),
(-37,124,o),
(-12,93,o),
(6,80,c),
(6,59,o),
(7,37,o),
(7,16,c),
(7,10,o),
(8,6,o),
(5,0,c),
(22,18,o),
(36,30,o),
(53,43,c),
(51,44,o),
(48,47,o),
(48,50,c),
(48,63,o),
(48,88,o),
(48,104,c)
);
},
{
closed = 1;
nodes = (
(64,203,o),
(84,203,o),
(100,205,c),
(134,233,l),
(104,232,o),
(76,230,o),
(47,232,c),
(46,204,l)
);
}
);
width = 260;
}
);
unicode = 2360;
},
{
glyphname = hadeva;
lastChange = "2025-02-13 09:06:08 +0000";
layers = (
{
anchors = (
{
name = Anchor8;
pos = (219,0);
}
);
background = {
shapes = (
{
closed = 1;
nodes = (
(204,216,l),
(173,233,o),
(145,259,o),
(145,284,cs),
(145,293,o),
(148,300,o),
(153,304,cs),
(161,311,o),
(173,313,o),
(196,313,cs),
(446,313,l),
(446,484,l),
(531,484,l),
(531,622,l),
(-73,622,l),
(-73,484,l),
(272,484,l),
(272,444,l),
(199,444,ls),
(92,444,o),
(54,432,o),
(18,404,cs),
(-8,383,o),
(-28,352,o),
(-28,308,cs),
(-28,241,o),
(11,197,o),
(46,164,c)
);
},
{
closed = 1;
nodes = (
(304,-47,l),
(420,-20,o),
(486,21,o),
(486,109,cs),
(486,193,o),
(417,268,o),
(247,268,cs),
(86,268,o),
(-41,211,o),
(-41,89,cs),
(-41,-6,o),
(32,-87,o),
(132,-173,c),
(241,-65,l),
(164,-6,o),
(136,32,o),
(136,70,cs),
(136,114,o),
(170,137,o),
(236,137,cs),
(293,137,o),
(311,127,o),
(311,108,cs),
(311,93,o),
(298,83,o),
(262,77,c)
);
}
);
};
layerId = "AB31CCB0-FABB-42DD-B4D9-C6BC88EA8185";
shapes = (
{
closed = 1;
nodes = (
(183,520,o),
(217,517,o),
(234,521,c),
(213,506,o),
(206,488,o),
(201,473,c),
(192,477,o),
(160,476,o),
(133,476,c),
(123,462,o),
(115,451,o),
(105,438,c),
(104,335,l),
(104,333,l),
(104,335,o),
(145,332,o),
(170,333,cs),
(180,333,o),
(188,334,o),
(189,336,c),
(189,323,o),
(190,291,o),
(189,257,cs),
(189,245,o),
(189,232,o),
(189,220,cs),
(188,184,o),
(187,151,o),
(185,145,c),
(182,131,o),
(163,111,o),
(135,91,c),
(142,102,o),
(146,116,o),
(146,131,c),
(146,205,l),
(146,292,l),
(131,277,o),
(118,264,o),
(104,251,c),
(103,86,l),
(119,79,o),
(132,69,o),
(146,56,c),
(175,69,o),
(208,98,o),
(217,131,c),
(216,71,o),
(179,36,o),
(146,-1,c),
(128,18,o),
(76,51,o),
(55,57,c),
(60,58,o),
(61,61,o),
(61,64,cs),
(62,237,l),
(88,253,o),
(107,270,o),
(129,294,c),
(106,296,o),
(81,295,o),
(60,292,c),
(65,303,o),
(63,412,o),
(61,419,c),
(83,419,o),
(150,527,o),
(177,607,c),
(190,607,l),
(179,576,o),
(167,544,o),
(154,519,c)
);
},
{
closed = 1;
nodes = (
(250,578,l),
(0,578,l),
(46,621,l),
(296,621,l)
);
}
);
width = 416;
}
);
unicode = 2361;
},
{
glyphname = oevowelsigndeva;
layers = (
{
anchors = (
{
name = _Anchor2;
pos = (-247,622);
}
);
background = {
shapes = (
{
closed = 1;
nodes = (
(-70,617,l),
(-70,805,l),
(-247,805,l),
(-247,617,l)
);
}
);
};
layerId = "AB31CCB0-FABB-42DD-B4D9-C6BC88EA8185";
shapes = (
{
closed = 1;
nodes = (
(-70,617,l),
(-70,805,l),
(-247,805,l),
(-247,617,l)
);
}
);
width = 0;
}
);
unicode = 2362;
},
{
glyphname = nuktadeva;
layers = (
{
anchors = (
{
name = _Anchor8;
pos = (-281,0);
}
);
background = {
shapes = (
{
closed = 1;
nodes = (
(-364,-181,o),
(-330,-215,o),
(-281,-215,cs),
(-233,-215,o),
(-199,-181,o),
(-199,-134,cs),
(-199,-88,o),
(-233,-53,o),
(-281,-53,cs),
(-330,-53,o),
(-364,-88,o),
(-364,-134,cs)
);
}
);
};
layerId = "AB31CCB0-FABB-42DD-B4D9-C6BC88EA8185";
shapes = (
{
closed = 1;
nodes = (
(-364,-181,o),
(-330,-215,o),
(-281,-215,cs),
(-233,-215,o),
(-199,-181,o),
(-199,-134,cs),
(-199,-88,o),
(-233,-53,o),
(-281,-53,cs),
(-330,-53,o),
(-364,-88,o),
(-364,-134,cs)
);
}
);
width = 0;
}
);
unicode = 2364;
},
{
glyphname = avagrahadeva;
layers = (
{
anchors = (
{
name = Anchor4;
pos = (202,622);
}
);
background = {
shapes = (
{
closed = 1;
nodes = (
(541,266,o),
(514,316,o),
(412,390,cs),
(344,439,o),
(337,452,o),
(337,467,cs),
(337,472,o),
(339,475,o),
(342,478,cs),
(347,483,o),
(353,484,o),
(368,484,cs),
(520,484,l),
(520,622,l),
(406,622,ls),
(292,622,o),
(257,609,o),
(221,588,c),
(180,561,o),
(158,525,o),
(158,474,cs),
(158,404,o),
(193,349,o),
(290,280,cs),
(354,234,o),
(364,221,o),
(364,199,cs),
(364,177,o),
(345,167,o),
(323,167,cs),
(264,167,o),
(214,221,o),
(157,319,c),
(17,252,l),
(102,95,o),
(206,26,o),
(329,26,cs),
(466,26,o),
(541,86,o),
(541,189,cs)
);
}
);
};
layerId = "AB31CCB0-FABB-42DD-B4D9-C6BC88EA8185";
shapes = (
{
closed = 1;
nodes = (
(541,266,o),
(514,316,o),
(412,390,cs),
(344,439,o),
(337,452,o),
(337,467,cs),
(337,472,o),
(339,475,o),
(342,478,cs),
(347,483,o),
(353,484,o),
(368,484,cs),
(520,484,l),
(520,622,l),
(406,622,ls),
(292,622,o),
(257,609,o),
(221,588,c),
(180,561,o),
(158,525,o),
(158,474,cs),
(158,404,o),
(193,349,o),
(290,280,cs),
(354,234,o),
(364,221,o),
(364,199,cs),
(364,177,o),
(345,167,o),
(323,167,cs),
(264,167,o),
(214,221,o),
(157,319,c),
(17,252,l),
(102,95,o),
(206,26,o),
(329,26,cs),
(466,26,o),
(541,86,o),
(541,189,cs)
);
}
);
width = 568;
}
);
unicode = 2365;
},
{
glyphname = aavowelsigndeva;
lastChange = "2025-02-13 07:14:17 +0000";
layers = (
{
background = {
shapes = (
{
closed = 1;
nodes = (
(249,484,l),
(249,622,l),
(-83,622,l),
(-83,484,l),
(-13,484,l),
(-13,0,l),
(164,0,l),
(164,484,l)
);
}
);
};
layerId = "AB31CCB0-FABB-42DD-B4D9-C6BC88EA8185";
shapes = (
{
closed = 1;
nodes = (
(-1,569,o),
(-16,554,o),
(-38,543,c),
(-32,536,o),
(-29,529,o),
(-29,520,c),
(-29,35,l),
(-29,19,o),
(-30,8,o),
(-33,-5,c),
(-14,18,o),
(3,32,o),
(23,44,c),
(15,51,o),
(13,57,o),
(13,72,c),
(13,547,l),
(13,563,o),
(15,575,o),
(17,587,c),
(15,587,l)
);
},
{
closed = 1;
nodes = (
(-74,621,l),
(-120,578,l),
(78,578,l),
(124,621,l)
);
}
);
width = 124;
}
);
unicode = 2366;
},
{
glyphname = iivowelsigndeva;
lastChange = "2025-02-13 08:58:17 +0000";
layers = (
{
background = {
shapes = (
{
closed = 1;
nodes = (
(-287,615,l),
(-299,638,o),
(-309,666,o),
(-309,695,cs),
(-309,733,o),
(-289,758,o),
(-253,758,cs),
(-196,758,o),
(-161,707,o),
(-132,622,c),
(-205,622,l),
(-205,484,l),
(-135,484,l),
(-135,0,l),
(42,0,l),
(42,484,l),
(127,484,l),
(127,622,l),
(23,622,l),
(-7,747,o),
(-85,896,o),
(-274,896,cs),
(-404,896,o),
(-486,829,o),
(-486,722,cs),
(-486,688,o),
(-477,649,o),
(-460,615,c)
);
}
);
};
layerId = "AB31CCB0-FABB-42DD-B4D9-C6BC88EA8185";
shapes = (
{
closed = 1;
nodes = (
(-3,629,o),
(9,637,o),
(17,655,c),
(-23,681,o),
(-48,720,o),
(-80,766,c),
(-88,749,o),
(-96,743,o),
(-115,733,c),
(-83,688,o),
(-63,655,o),
(-20,619,c)
);
},
{
closed = 1;
nodes = (
(-124,718,o),
(-137,708,o),
(-151,702,c),
(-146,675,o),
(-149,647,o),
(-152,620,c),
(-134,630,o),
(-121,643,o),
(-109,660,c),
(-106,686,o),
(-106,708,o),
(-109,736,c)
);
},
{
closed = 1;
nodes = (
(-184,621,l),
(-240,578,l),
(38,578,l),
(84,621,l)
);
},
{
closed = 1;
nodes = (
(1,573,o),
(-14,558,o),
(-36,547,c),
(-30,540,o),
(-27,533,o),
(-27,524,c),
(-27,362,o),
(-27,201,o),
(-27,39,c),
(-27,23,o),
(-28,12,o),
(-31,-1,c),
(-12,22,o),
(5,36,o),
(25,48,c),
(17,55,o),
(15,61,o),
(15,76,c),
(15,551,l),
(15,567,o),
(17,579,o),
(19,591,c),
(17,591,l)
);
}
);
width = 74;
}
);
unicode = 2368;
},
{
glyphname = uvowelsigndeva;
layers = (
{
anchors = (
{
name = _Anchor6;
pos = (-247,0);
}
);
background = {
shapes = (
{
closed = 1;
nodes = (
(-253,-94,l),
(-233,-87,o),
(-208,-82,o),
(-190,-82,cs),
(-161,-82,o),
(-147,-92,o),
(-147,-113,cs),
(-147,-134,o),
(-164,-144,o),
(-196,-144,cs),
(-263,-144,o),
(-326,-117,o),
(-412,-22,c),
(-525,-100,l),
(-438,-200,o),
(-331,-268,o),
(-188,-268,cs),
(-57,-268,o),
(7,-203,o),
(7,-118,cs),
(7,-24,o),
(-60,41,o),
(-170,41,cs),
(-217,41,o),
(-252,33,o),
(-295,18,c)
);
}
);
};
layerId = "AB31CCB0-FABB-42DD-B4D9-C6BC88EA8185";
shapes = (
{
closed = 1;
nodes = (
(-253,-94,l),
(-233,-87,o),
(-208,-82,o),
(-190,-82,cs),
(-161,-82,o),
(-147,-92,o),
(-147,-113,cs),
(-147,-134,o),
(-164,-144,o),
(-196,-144,cs),
(-263,-144,o),
(-326,-117,o),
(-412,-22,c),
(-525,-100,l),
(-438,-200,o),
(-331,-268,o),
(-188,-268,cs),
(-57,-268,o),
(7,-203,o),
(7,-118,cs),
(7,-24,o),
(-60,41,o),
(-170,41,cs),
(-217,41,o),
(-252,33,o),
(-295,18,c)
);
}
);
width = 0;
}
);
unicode = 2369;
},
{
glyphname = uuvowelsigndeva;
lastChange = "2025-02-13 08:57:28 +0000";
layers = (
{
anchors = (
{
name = _Anchor6;
pos = (-247,0);
}
);
background = {
shapes = (
{
closed = 1;
nodes = (
(-132,-132,l),
(-151,-140,o),
(-175,-145,o),
(-195,-145,cs),
(-224,-145,o),
(-238,-135,o),
(-238,-114,cs),
(-238,-93,o),
(-221,-83,o),
(-186,-83,cs),
(-110,-83,o),
(-44,-144,o),
(24,-245,c),
(145,-178,l),
(48,-53,o),
(-39,41,o),
(-194,41,cs),
(-326,41,o),
(-392,-24,o),
(-392,-113,cs),
(-392,-203,o),
(-320,-268,o),
(-212,-268,cs),
(-169,-268,o),
(-133,-261,o),
(-90,-245,c)
);
}
);
};
layerId = "AB31CCB0-FABB-42DD-B4D9-C6BC88EA8185";
shapes = (
{
closed = 1;
nodes = (
(-98,-56,o),
(-31,-101,o),
(33,-129,c),
(47,-118,o),
(50,-114,o),
(51,-94,c),
(12,-87,o),
(-87,-15,o),
(-124,17,c),
(-140,-26,o),
(-155,-43,o),
(-183,-78,c),
(-150,-93,o),
(-131,-103,o),
(-115,-125,c),
(-87,-109,o),
(-71,-97,o),
(-40,-107,c),
(-51,-97,l),
(-61,-95,o),
(-73,-90,o),
(-88,-97,c),
(-112,-78,o),
(-122,-73,o),
(-152,-58,c),
(-143,-49,o),
(-136,-41,o),
(-131,-26,c)
);
}
);
width = 0;
}
);
unicode = 2370;
},
{
glyphname = rvocalicvowelsigndeva;
layers = (
{
anchors = (
{
name = _Anchor6;
pos = (-247,0);
}
);
background = {
shapes = (
{
closed = 1;
nodes = (
(7,-116,l),
(-36,-137,o),
(-62,-145,o),
(-93,-145,cs),
(-123,-145,o),
(-139,-131,o),
(-139,-108,cs),
(-139,-85,o),
(-124,-63,o),
(-60,-60,c),
(-76,52,l),
(-214,42,o),
(-297,-9,o),
(-297,-110,cs),
(-297,-207,o),
(-217,-268,o),
(-110,-268,cs),
(-37,-268,o),
(16,-247,o),
(54,-231,c)
);
}
);
};
layerId = "AB31CCB0-FABB-42DD-B4D9-C6BC88EA8185";
shapes = (
{
closed = 1;
nodes = (
(7,-116,l),
(-36,-137,o),
(-62,-145,o),
(-93,-145,cs),
(-123,-145,o),
(-139,-131,o),
(-139,-108,cs),
(-139,-85,o),
(-124,-63,o),
(-60,-60,c),
(-76,52,l),
(-214,42,o),
(-297,-9,o),
(-297,-110,cs),
(-297,-207,o),
(-217,-268,o),
(-110,-268,cs),
(-37,-268,o),
(16,-247,o),
(54,-231,c)
);
}
);
width = 0;
}
);
unicode = 2371;
},
{
glyphname = rrvocalicvowelsigndeva;
layers = (
{
anchors = (
{
name = _Anchor6;
pos = (-247,0);
}
);
background = {
shapes = (
{
closed = 1;
nodes = (
(9,-97,l),
(-34,-118,o),
(-62,-125,o),
(-93,-125,cs),
(-123,-125,o),
(-139,-115,o),
(-139,-97,cs),
(-139,-77,o),
(-123,-61,o),
(-60,-60,c),
(-76,52,l),
(-214,43,o),
(-297,-3,o),
(-297,-95,cs),
(-297,-183,o),
(-217,-238,o),
(-110,-238,cs),
(-37,-238,o),
(16,-219,o),
(54,-205,c)
);
},
{
closed = 1;
nodes = (
(51,-253,l),
(8,-274,o),
(-20,-281,o),
(-51,-281,cs),
(-81,-281,o),
(-97,-271,o),
(-97,-253,cs),
(-97,-241,o),
(-91,-230,o),
(-73,-224,c),
(-196,-146,l),
(-234,-170,o),
(-255,-205,o),
(-255,-251,cs),
(-255,-339,o),
(-175,-394,o),
(-68,-394,cs),
(5,-394,o),
(58,-376,o),
(96,-362,c)
);
}
);
};
layerId = "AB31CCB0-FABB-42DD-B4D9-C6BC88EA8185";
shapes = (
{
closed = 1;
nodes = (
(9,-97,l),
(-34,-118,o),
(-62,-125,o),
(-93,-125,cs),
(-123,-125,o),
(-139,-115,o),
(-139,-97,cs),
(-139,-77,o),
(-123,-61,o),
(-60,-60,c),
(-76,52,l),
(-214,43,o),
(-297,-3,o),
(-297,-95,cs),
(-297,-183,o),
(-217,-238,o),
(-110,-238,cs),
(-37,-238,o),
(16,-219,o),
(54,-205,c)
);
},
{
closed = 1;
nodes = (
(51,-253,l),
(8,-274,o),
(-20,-281,o),
(-51,-281,cs),
(-81,-281,o),
(-97,-271,o),
(-97,-253,cs),
(-97,-241,o),
(-91,-230,o),
(-73,-224,c),
(-196,-146,l),
(-234,-170,o),
(-255,-205,o),
(-255,-251,cs),
(-255,-339,o),
(-175,-394,o),
(-68,-394,cs),
(5,-394,o),
(58,-376,o),
(96,-362,c)
);
}
);
width = 0;
}
);
unicode = 2372;
},
{
glyphname = ecandravowelsigndeva;
layers = (
{
anchors = (
{
name = _Anchor2;
pos = (-267,622);
}
);
background = {
shapes = (
{
closed = 1;
nodes = (
(-53,896,l),
(-71,808,o),
(-105,767,o),
(-178,767,cs),
(-243,767,o),
(-282,799,o),
(-322,896,c),
(-434,856,l),
(-379,709,o),
(-290,649,o),
(-179,649,cs),
(-55,649,o),
(32,704,o),
(70,858,c)
);
}
);
};
layerId = "AB31CCB0-FABB-42DD-B4D9-C6BC88EA8185";
shapes = (
{
closed = 1;
nodes = (
(-53,896,l),
(-71,808,o),
(-105,767,o),
(-178,767,cs),
(-243,767,o),
(-282,799,o),
(-322,896,c),
(-434,856,l),
(-379,709,o),
(-290,649,o),
(-179,649,cs),
(-55,649,o),
(32,704,o),
(70,858,c)
);
}
);
width = 0;
}
);
unicode = 2373;
},
{
glyphname = eshortvowelsigndeva;
layers = (
{
anchors = (
{
name = _Anchor2;
pos = (-247,622);
}
);
background = {
shapes = (
{
closed = 1;
nodes = (
(-88,615,l),
(-136,803,o),
(-189,833,o),
(-263,833,cs),
(-292,833,o),
(-313,830,o),
(-339,830,cs),
(-376,830,o),
(-389,847,o),
(-411,896,c),
(-534,851,l),
(-492,741,o),
(-449,706,o),
(-384,706,cs),
(-371,706,o),
(-352,709,o),
(-328,709,cs),
(-298,709,o),
(-265,697,o),
(-241,615,c)
);
}
);
};
layerId = "AB31CCB0-FABB-42DD-B4D9-C6BC88EA8185";
shapes = (
{
closed = 1;
nodes = (
(-88,615,l),
(-136,803,o),
(-189,833,o),
(-263,833,cs),
(-292,833,o),
(-313,830,o),
(-339,830,cs),
(-376,830,o),
(-389,847,o),
(-411,896,c),
(-534,851,l),
(-492,741,o),
(-449,706,o),
(-384,706,cs),
(-371,706,o),
(-352,709,o),
(-328,709,cs),
(-298,709,o),
(-265,697,o),
(-241,615,c)
);
}
);
width = 0;
}
);
unicode = 2374;
},
{
glyphname = evowelsigndeva;
lastChange = "2025-02-13 09:09:08 +0000";
layers = (
{
anchors = (
{
name = _Anchor2;
pos = (-247,622);
}
);
background = {
shapes = (
{
closed = 1;
nodes = (
(-88,615,l),
(-154,868,o),
(-243,896,o),
(-344,896,cs),
(-390,896,o),
(-429,888,o),
(-464,873,c),
(-419,743,l),
(-402,751,o),
(-376,756,o),
(-352,756,cs),
(-296,756,o),
(-275,715,o),
(-241,615,c)
);
}
);
};
layerId = "AB31CCB0-FABB-42DD-B4D9-C6BC88EA8185";
shapes = (
{
closed = 1;
nodes = (
(-259,687,o),
(-257,643,o),
(-252,617,c),
(-242,628,o),
(-230,634,o),
(-220,639,c),
(-226,651,o),
(-232,698,o),
(-220,729,c),
(-248,737,o),
(-272,755,o),
(-286,778,c),
(-288,765,o),
(-302,756,o),
(-313,751,c),
(-297,728,o),
(-269,710,o),
(-253,706,c)
);
}
);
width = 0;
}
);
unicode = 2375;
},
{
glyphname = aivowelsigndeva;
lastChange = "2025-02-13 09:10:20 +0000";
layers = (
{
anchors = (
{
name = _Anchor2;
pos = (-247,622);
}
);
background = {
shapes = (
{
closed = 1;
nodes = (
(-88,615,l),
(-154,868,o),
(-243,896,o),
(-343,896,cs),
(-391,896,o),
(-431,888,o),
(-462,877,c),
(-428,783,l),
(-405,791,o),
(-382,796,o),
(-359,796,cs),
(-316,796,o),
(-282,783,o),
(-244,715,c),
(-248,714,l),
(-298,758,o),
(-329,766,o),
(-371,766,cs),
(-407,766,o),
(-443,754,o),
(-477,740,c),
(-439,645,l),
(-411,658,o),
(-382,665,o),
(-354,665,cs),
(-320,665,o),
(-295,657,o),
(-244,615,c)
);
}
);
};
layerId = "AB31CCB0-FABB-42DD-B4D9-C6BC88EA8185";
shapes = (
{
closed = 1;
nodes = (
(-234,699,o),
(-233,640,o),
(-228,614,c),
(-222,625,o),
(-210,638,o),
(-200,643,c),
(-206,655,o),
(-206,713,o),
(-194,744,c),
(-222,752,o),
(-252,771,o),
(-266,794,c),
(-273,784,o),
(-277,775,o),
(-287,770,c),
(-268,749,o),
(-241,723,o),
(-228,718,c)
);
},
{
closed = 1;
nodes = (
(-240,690,o),
(-261,707,o),
(-276,730,c),
(-279,720,o),
(-287,709,o),
(-296,706,c),
(-277,682,o),
(-255,664,o),
(-228,656,c),
(-212,682,l)
);
}
);
width = 0;
}
);
unicode = 2376;
},
{
glyphname = viramadeva;
layers = (
{
anchors = (
{
name = _Anchor6;
pos = (-247,0);
}
);
background = {
shapes = (
{
closed = 1;
nodes = (
(-230,-157,l),
(-213,-153,o),
(-193,-150,o),
(-174,-150,cs),
(-91,-150,o),
(-55,-179,o),
(20,-268,c),
(126,-198,l),
(35,-84,o),
(-34,-18,o),
(-168,-18,cs),
(-201,-18,o),
(-230,-23,o),
(-258,-30,c)
);
}
);
};
layerId = "AB31CCB0-FABB-42DD-B4D9-C6BC88EA8185";
shapes = (
{
closed = 1;
nodes = (
(-230,-157,l),
(-213,-153,o),
(-193,-150,o),
(-174,-150,cs),
(-91,-150,o),
(-55,-179,o),
(20,-268,c),
(126,-198,l),
(35,-84,o),
(-34,-18,o),
(-168,-18,cs),
(-201,-18,o),
(-230,-23,o),
(-258,-30,c)
);
}
);
width = 0;
}
);
unicode = 2381;
},
{
glyphname = uni094E;
layers = (
{
background = {
shapes = (
{
closed = 1;
nodes = (
(349,484,l),
(349,622,l),
(88,622,l),
(88,0,l),
(265,0,l),
(265,484,l)
);
}
);
};
layerId = "AB31CCB0-FABB-42DD-B4D9-C6BC88EA8185";
shapes = (
{
closed = 1;
nodes = (
(349,484,l),
(349,622,l),
(88,622,l),
(88,0,l),
(265,0,l),
(265,484,l)
);
}
);
width = 335;
}
);
unicode = 2382;
},
{
glyphname = omdeva;
layers = (
{
background = {
shapes = (
{
closed = 1;
nodes = (
(388,332,l),
(422,251,o),
(505,202,o),
(555,202,cs),
(648,202,o),
(690,245,o),
(760,337,cs),
(781,365,ls),
(807,398,o),
(821,409,o),
(843,409,cs),
(871,409,o),
(886,385,o),
(886,347,cs),
(886,292,o),
(861,277,o),
(825,277,cs),
(806,277,o),
(786,283,o),
(763,299,c),
(678,188,l),
(717,156,o),
(777,138,o),
(844,138,cs),
(1011,138,o),
(1063,227,o),
(1063,346,cs),
(1063,476,o),
(975,547,o),
(847,547,cs),
(733,547,o),
(674,494,o),
(616,417,cs),
(589,382,ls),
(563,349,o),
(545,330,o),
(519,330,cs),
(487,330,o),
(474,366,o),
(465,404,c)
);
},
{
closed = 1;
nodes = (
(215,464,l),
(254,483,o),
(292,494,o),
(328,494,cs),
(355,494,o),
(375,484,o),
(375,458,cs),
(375,432,o),
(358,418,o),
(292,414,c),
(298,282,l),
(460,287,o),
(550,356,o),
(550,468,cs),
(550,560,o),
(484,632,o),
(356,632,cs),
(283,632,o),
(222,612,o),
(170,588,c)
);
},
{
closed = 1;
nodes = (
(563,259,o),
(533,302,o),
(490,341,c),
(463,372,l),
(315,341,l),
(362,309,o),
(388,275,o),
(388,231,cs),
(388,206,o),
(371,193,o),
(343,193,cs),
(273,193,o),
(210,277,o),
(161,401,c),
(14,346,l),
(108,115,o),
(223,52,o),
(357,52,cs),
(489,52,o),
(563,111,o),
(563,211,cs)
);
},
{
closed = 1;
nodes = (
(565,778,o),
(591,753,o),
(634,753,cs),
(677,753,o),
(703,777,o),
(703,817,cs),
(703,854,o),
(675,879,o),
(634,879,cs),
(591,879,o),
(565,854,o),
(565,817,cs)
);
},
{
closed = 1;
nodes = (
(760,879,l),
(742,777,o),
(708,730,o),
(635,730,cs),
(570,730,o),
(531,767,o),
(491,880,c),
(379,839,l),
(434,688,o),
(523,627,o),
(634,627,cs),
(758,627,o),
(845,683,o),
(883,841,c)
);
}
);
};
layerId = "AB31CCB0-FABB-42DD-B4D9-C6BC88EA8185";
shapes = (
{
closed = 1;
nodes = (
(388,332,l),
(422,251,o),
(505,202,o),
(555,202,cs),
(648,202,o),
(690,245,o),
(760,337,cs),
(781,365,ls),
(807,398,o),
(821,409,o),
(843,409,cs),
(871,409,o),
(886,385,o),
(886,347,cs),
(886,292,o),
(861,277,o),
(825,277,cs),
(806,277,o),
(786,283,o),
(763,299,c),
(678,188,l),
(717,156,o),
(777,138,o),
(844,138,cs),
(1011,138,o),
(1063,227,o),
(1063,346,cs),
(1063,476,o),
(975,547,o),
(847,547,cs),
(733,547,o),
(674,494,o),
(616,417,cs),
(589,382,ls),
(563,349,o),
(545,330,o),
(519,330,cs),
(487,330,o),
(474,366,o),
(465,404,c)
);
},
{
closed = 1;
nodes = (
(215,464,l),
(254,483,o),
(292,494,o),
(328,494,cs),
(355,494,o),
(375,484,o),
(375,458,cs),
(375,432,o),
(358,418,o),
(292,414,c),
(298,282,l),
(460,287,o),
(550,356,o),
(550,468,cs),
(550,560,o),
(484,632,o),
(356,632,cs),
(283,632,o),
(222,612,o),
(170,588,c)
);
},
{
closed = 1;
nodes = (
(563,259,o),
(533,302,o),
(490,341,c),
(463,372,l),
(315,341,l),
(362,309,o),
(388,275,o),
(388,231,cs),
(388,206,o),
(371,193,o),
(343,193,cs),
(273,193,o),
(210,277,o),
(161,401,c),
(14,346,l),
(108,115,o),
(223,52,o),
(357,52,cs),
(489,52,o),
(563,111,o),
(563,211,cs)
);
},
{
closed = 1;
nodes = (
(565,778,o),
(591,753,o),
(634,753,cs),
(677,753,o),
(703,777,o),
(703,817,cs),
(703,854,o),
(675,879,o),
(634,879,cs),
(591,879,o),
(565,854,o),
(565,817,cs)
);
},
{
closed = 1;
nodes = (
(760,879,l),
(742,777,o),
(708,730,o),
(635,730,cs),
(570,730,o),
(531,767,o),
(491,880,c),
(379,839,l),
(434,688,o),
(523,627,o),
(634,627,cs),
(758,627,o),
(845,683,o),
(883,841,c)
);
}
);
width = 1098;
}
);
unicode = 2384;
},
{
glyphname = udattadeva;
layers = (
{
anchors = (
{
name = _Anchor2;
pos = (-247,622);
},
{
name = _Anchor4;
pos = (-247,622);
}
);
background = {
shapes = (
{
closed = 1;
nodes = (
(-102,886,l),
(-220,886,l),
(-220,668,l),
(-102,668,l)
);
}
);
};
layerId = "AB31CCB0-FABB-42DD-B4D9-C6BC88EA8185";
shapes = (
{
closed = 1;
nodes = (
(-102,886,l),
(-220,886,l),
(-220,668,l),
(-102,668,l)
);
}
);
width = 0;
}
);
unicode = 2385;
},
{
glyphname = anudattadeva;
layers = (
{
anchors = (
{
name = _Anchor8;
pos = (-271,0);
}
);
background = {
shapes = (
{
closed = 1;
nodes = (
(-474,-165,l),
(-67,-165,l),
(-67,-60,l),
(-474,-60,l)
);
}
);
};
layerId = "AB31CCB0-FABB-42DD-B4D9-C6BC88EA8185";
shapes = (
{
closed = 1;
nodes = (
(-474,-165,l),
(-67,-165,l),
(-67,-60,l),
(-474,-60,l)
);
}
);
width = 0;
}
);
unicode = 2386;
},
{
glyphname = uni0953;
layers = (
{
anchors = (
{
name = _Anchor2;
pos = (-247,622);
}
);
background = {
shapes = (
{
closed = 1;
nodes = (
(-82,683,l),
(-157,890,l),
(-338,890,l),
(-219,683,l)
);
}
);
};
layerId = "AB31CCB0-FABB-42DD-B4D9-C6BC88EA8185";
shapes = (
{
closed = 1;
nodes = (
(-82,683,l),
(-157,890,l),
(-338,890,l),
(-219,683,l)
);
}
);
width = 0;
}
);
unicode = 2387;
},
{
glyphname = uni0954;
layers = (
{
anchors = (
{
name = _Anchor2;
pos = (-247,622);
}
);
background = {
shapes = (
{
closed = 1;
nodes = (
(-161,890,l),
(-235,683,l),
(-98,683,l),
(20,890,l)
);
}
);
};
layerId = "AB31CCB0-FABB-42DD-B4D9-C6BC88EA8185";
shapes = (
{
closed = 1;
nodes = (
(-161,890,l),
(-235,683,l),
(-98,683,l),
(20,890,l)
);
}
);
width = 0;
}
);
unicode = 2388;
},
{
glyphname = candralongevowelsigndeva;
layers = (
{
anchors = (
{
name = _Anchor2;
pos = (-272,622);
}
);
background = {
shapes = (
{
closed = 1;
nodes = (
(-387,647,l),
(19,647,l),
(19,736,l),
(-387,736,l)
);
},
{
closed = 1;
nodes = (
(-93,896,l),
(-105,837,o),
(-134,806,o),
(-180,806,cs),
(-224,806,o),
(-258,831,o),
(-283,896,c),
(-393,859,l),
(-344,764,o),
(-286,724,o),
(-180,724,cs),
(-67,724,o),
(-14,754,o),
(24,862,c)
);
}
);
};
layerId = "AB31CCB0-FABB-42DD-B4D9-C6BC88EA8185";
shapes = (
{
closed = 1;
nodes = (
(-387,647,l),
(19,647,l),
(19,736,l),
(-387,736,l)
);
},
{
closed = 1;
nodes = (
(-93,896,l),
(-105,837,o),
(-134,806,o),
(-180,806,cs),
(-224,806,o),
(-258,831,o),
(-283,896,c),
(-393,859,l),
(-344,764,o),
(-286,724,o),
(-180,724,cs),
(-67,724,o),
(-14,754,o),
(24,862,c)
);
}
);
width = 0;
}
);
unicode = 2389;
},
{
glyphname = uevowelsigndeva;
layers = (
{
anchors = (
{
name = _Anchor8;
pos = (-313,0);
}
);
background = {
shapes = (
{
closed = 1;
nodes = (
(-214,-214,o),
(-137,-180,o),
(-82,-143,c),
(-133,-27,l),
(-189,-61,o),
(-243,-78,o),
(-313,-78,cs),
(-383,-78,o),
(-437,-61,o),
(-493,-27,c),
(-544,-143,l),
(-489,-180,o),
(-412,-214,o),
(-313,-214,cs)
);
}
);
};
layerId = "AB31CCB0-FABB-42DD-B4D9-C6BC88EA8185";
shapes = (
{
closed = 1;
nodes = (
(-214,-214,o),
(-137,-180,o),
(-82,-143,c),
(-133,-27,l),
(-189,-61,o),
(-243,-78,o),
(-313,-78,cs),
(-383,-78,o),
(-437,-61,o),
(-493,-27,c),
(-544,-143,l),
(-489,-180,o),
(-412,-214,o),
(-313,-214,cs)
);
}
);
width = 0;
}
);
unicode = 2390;
},
{
glyphname = uuevowelsigndeva;
layers = (
{
anchors = (
{
name = _Anchor8;
pos = (-313,0);
}
);
background = {
shapes = (
{
closed = 1;
nodes = (
(-229,-146,o),
(-160,-127,o),
(-85,-91,c),
(-120,-5,l),
(-175,-29,o),
(-223,-47,o),
(-305,-47,cs),
(-386,-47,o),
(-434,-29,o),
(-489,-5,c),
(-524,-91,l),
(-449,-127,o),
(-379,-146,o),
(-305,-146,cs)
);
},
{
closed = 1;
nodes = (
(-212,-268,o),
(-137,-242,o),
(-85,-213,c),
(-116,-129,l),
(-177,-155,o),
(-231,-169,o),
(-305,-169,cs),
(-378,-169,o),
(-432,-155,o),
(-493,-129,c),
(-524,-213,l),
(-472,-242,o),
(-397,-268,o),
(-305,-268,cs)
);
}
);
};
layerId = "AB31CCB0-FABB-42DD-B4D9-C6BC88EA8185";
shapes = (
{
closed = 1;
nodes = (
(-229,-146,o),
(-160,-127,o),
(-85,-91,c),
(-120,-5,l),
(-175,-29,o),
(-223,-47,o),
(-305,-47,cs),
(-386,-47,o),
(-434,-29,o),
(-489,-5,c),
(-524,-91,l),
(-449,-127,o),
(-379,-146,o),
(-305,-146,cs)
);
},
{
closed = 1;
nodes = (
(-212,-268,o),
(-137,-242,o),
(-85,-213,c),
(-116,-129,l),
(-177,-155,o),
(-231,-169,o),
(-305,-169,cs),
(-378,-169,o),
(-432,-155,o),
(-493,-129,c),
(-524,-213,l),
(-472,-242,o),
(-397,-268,o),
(-305,-268,cs)
);
}
);
width = 0;
}
);
unicode = 2391;
},
{
glyphname = rrvocalicdeva;
layers = (
{
anchors = (
{
name = Anchor2;
pos = (390,622);
},
{
name = Anchor8;
pos = (478,0);
}
);
background = {
shapes = (
{
closed = 1;
nodes = (
(992,484,l),
(992,622,l),
(0,622,l),
(0,484,l),
(390,484,l),
(390,0,l),
(567,0,l),
(567,484,l)
);
},
{
closed = 1;
nodes = (
(79,252,l),
(136,280,o),
(169,292,o),
(209,292,cs),
(247,292,o),
(267,280,o),
(310,238,c),
(416,267,l),
(416,302,l),
(335,404,o),
(290,435,o),
(205,435,cs),
(146,435,o),
(94,418,o),
(24,387,c)
);
},
{
closed = 1;
nodes = (
(476,216,l),
(359,293,l),
(52,134,l),
(137,15,l)
);
},
{
closed = 1;
nodes = (
(533,198,l),
(602,201,o),
(662,210,o),
(713,226,c),
(725,203,o),
(743,171,o),
(763,139,c),
(861,137,l),
(888,183,l),
(862,217,o),
(847,241,o),
(830,269,c),
(849,281,o),
(862,309,o),
(862,340,cs),
(862,386,o),
(833,435,o),
(756,435,cs),
(705,435,o),
(657,406,o),
(657,349,cs),
(657,334,o),
(661,320,o),
(664,311,c),
(686,349,l),
(647,332,o),
(581,328,o),
(536,326,c)
);
},
{
closed = 1;
nodes = (
(943,100,l),
(900,79,o),
(872,72,o),
(841,72,cs),
(811,72,o),
(795,82,o),
(795,100,cs),
(795,122,o),
(815,135,o),
(861,137,c),
(773,235,l),
(687,214,o),
(637,169,o),
(637,102,cs),
(637,14,o),
(717,-41,o),
(824,-41,cs),
(897,-41,o),
(950,-22,o),
(988,-8,c)
);
},
{
closed = 1;
nodes = (
(985,-56,l),
(942,-77,o),
(914,-84,o),
(883,-84,cs),
(853,-84,o),
(837,-74,o),
(837,-56,cs),
(837,-44,o),
(843,-33,o),
(861,-27,c),
(738,51,l),
(700,27,o),
(679,-8,o),
(679,-54,cs),
(679,-142,o),
(759,-197,o),
(866,-197,cs),
(939,-197,o),
(992,-179,o),
(1030,-165,c)
);
}
);
};
layerId = "AB31CCB0-FABB-42DD-B4D9-C6BC88EA8185";
shapes = (
{
closed = 1;
nodes = (
(992,484,l),
(992,622,l),
(0,622,l),
(0,484,l),
(390,484,l),
(390,0,l),
(567,0,l),
(567,484,l)
);
},
{
closed = 1;
nodes = (
(79,252,l),
(136,280,o),
(169,292,o),
(209,292,cs),
(247,292,o),
(267,280,o),
(310,238,c),
(416,267,l),
(416,302,l),
(335,404,o),
(290,435,o),
(205,435,cs),
(146,435,o),
(94,418,o),
(24,387,c)
);
},
{
closed = 1;
nodes = (
(476,216,l),
(359,293,l),
(52,134,l),
(137,15,l)
);
},
{
closed = 1;
nodes = (
(533,198,l),
(602,201,o),
(662,210,o),
(713,226,c),
(725,203,o),
(743,171,o),
(763,139,c),
(861,137,l),
(888,183,l),
(862,217,o),
(847,241,o),
(830,269,c),
(849,281,o),
(862,309,o),
(862,340,cs),
(862,386,o),
(833,435,o),
(756,435,cs),
(705,435,o),
(657,406,o),
(657,349,cs),
(657,334,o),
(661,320,o),
(664,311,c),
(686,349,l),
(647,332,o),
(581,328,o),
(536,326,c)
);
},
{
closed = 1;
nodes = (
(943,100,l),
(900,79,o),
(872,72,o),
(841,72,cs),
(811,72,o),
(795,82,o),
(795,100,cs),
(795,122,o),
(815,135,o),
(861,137,c),
(773,235,l),
(687,214,o),
(637,169,o),
(637,102,cs),
(637,14,o),
(717,-41,o),
(824,-41,cs),
(897,-41,o),
(950,-22,o),
(988,-8,c)
);
},
{
closed = 1;
nodes = (
(985,-56,l),
(942,-77,o),
(914,-84,o),
(883,-84,cs),
(853,-84,o),
(837,-74,o),
(837,-56,cs),
(837,-44,o),
(843,-33,o),
(861,-27,c),
(738,51,l),
(700,27,o),
(679,-8,o),
(679,-54,cs),
(679,-142,o),
(759,-197,o),
(866,-197,cs),
(939,-197,o),
(992,-179,o),
(1030,-165,c)
);
}
);
width = 977;
}
);
unicode = 2400;
},
{
glyphname = llvocalicdeva;
layers = (
{
anchors = (
{
name = Anchor2;
pos = (477,622);
}
);
background = {
shapes = (
{
closed = 1;
nodes = (
(824,-92,l),
(781,-113,o),
(753,-120,o),
(722,-120,cs),
(692,-120,o),
(676,-110,o),
(676,-92,cs),
(676,-80,o),
(682,-69,o),
(700,-63,c),
(577,15,l),
(539,-9,o),
(518,-44,o),
(518,-90,cs),
(518,-178,o),
(598,-233,o),
(705,-233,cs),
(778,-233,o),
(831,-215,o),
(869,-201,c)
);
},
{
closed = 1;
nodes = (
(782,64,l),
(739,43,o),
(711,36,o),
(680,36,cs),
(650,36,o),
(634,46,o),
(634,64,cs),
(634,84,o),
(650,101,o),
(717,101,c),
(697,213,l),
(559,204,o),
(476,158,o),
(476,66,cs),
(476,-22,o),
(556,-77,o),
(663,-77,cs),
(736,-77,o),
(789,-58,o),
(827,-44,c)
);
},
{
closed = 1;
nodes = (
(759,348,o),
(679,421,o),
(552,421,cs),
(407,421,o),
(317,355,o),
(282,209,c),
(448,159,l),
(472,257,o),
(510,289,o),
(543,289,cs),
(567,289,o),
(582,273,o),
(582,242,cs),
(582,205,o),
(574,174,o),
(546,133,c),
(717,101,l),
(742,145,o),
(759,193,o),
(759,237,cs)
);
},
{
closed = 1;
nodes = (
(139,423,o),
(29,383,o),
(29,252,cs),
(29,156,o),
(109,70,o),
(219,-18,c),
(328,90,l),
(232,159,o),
(206,201,o),
(206,238,cs),
(206,267,o),
(224,284,o),
(253,284,cs),
(294,284,o),
(318,261,o),
(351,225,c),
(411,355,l),
(344,403,o),
(306,423,o),
(219,423,cs)
);
},
{
closed = 1;
nodes = (
(477,403,l),
(651,359,l),
(651,484,l),
(813,484,l),
(813,622,l),
(0,622,l),
(0,484,l),
(477,484,l)
);
}
);
};
layerId = "AB31CCB0-FABB-42DD-B4D9-C6BC88EA8185";
shapes = (
{
closed = 1;
nodes = (
(824,-92,l),
(781,-113,o),
(753,-120,o),
(722,-120,cs),
(692,-120,o),
(676,-110,o),
(676,-92,cs),
(676,-80,o),
(682,-69,o),
(700,-63,c),
(577,15,l),
(539,-9,o),
(518,-44,o),
(518,-90,cs),
(518,-178,o),
(598,-233,o),
(705,-233,cs),
(778,-233,o),
(831,-215,o),
(869,-201,c)
);
},
{
closed = 1;
nodes = (
(782,64,l),
(739,43,o),
(711,36,o),
(680,36,cs),
(650,36,o),
(634,46,o),
(634,64,cs),
(634,84,o),
(650,101,o),
(717,101,c),
(697,213,l),
(559,204,o),
(476,158,o),
(476,66,cs),
(476,-22,o),
(556,-77,o),
(663,-77,cs),
(736,-77,o),
(789,-58,o),
(827,-44,c)
);
},
{
closed = 1;
nodes = (
(759,348,o),
(679,421,o),
(552,421,cs),
(407,421,o),
(317,355,o),
(282,209,c),
(448,159,l),
(472,257,o),
(510,289,o),
(543,289,cs),
(567,289,o),
(582,273,o),
(582,242,cs),
(582,205,o),
(574,174,o),
(546,133,c),
(717,101,l),
(742,145,o),
(759,193,o),
(759,237,cs)
);
},
{
closed = 1;
nodes = (
(139,423,o),
(29,383,o),
(29,252,cs),
(29,156,o),
(109,70,o),
(219,-18,c),
(328,90,l),
(232,159,o),
(206,201,o),
(206,238,cs),
(206,267,o),
(224,284,o),
(253,284,cs),
(294,284,o),
(318,261,o),
(351,225,c),
(411,355,l),
(344,403,o),
(306,423,o),
(219,423,cs)
);
},
{
closed = 1;
nodes = (
(477,403,l),
(651,359,l),
(651,484,l),
(813,484,l),
(813,622,l),
(0,622,l),
(0,484,l),
(477,484,l)
);
}
);
width = 798;
}
);
unicode = 2401;
},
{
glyphname = lvocalicvowelsigndeva;
layers = (
{
anchors = (
{
name = _Anchor6;
pos = (-247,0);
}
);
background = {
shapes = (
{
closed = 1;
nodes = (
(-224,-36,l),
(-275,0,o),
(-315,15,o),
(-377,15,cs),
(-461,15,o),
(-537,-24,o),
(-537,-118,cs),
(-537,-192,o),
(-490,-257,o),
(-373,-350,c),
(-283,-256,l),
(-373,-190,o),
(-390,-164,o),
(-390,-132,cs),
(-390,-116,o),
(-377,-98,o),
(-350,-98,cs),
(-325,-98,o),
(-307,-107,o),
(-290,-123,c)
);
},
{
closed = 1;
nodes = (
(-228,15,o),
(-289,-45,o),
(-322,-151,c),
(-200,-187,l),
(-174,-115,o),
(-147,-99,o),
(-120,-99,cs),
(-95,-99,o),
(-85,-116,o),
(-85,-136,cs),
(-85,-163,o),
(-98,-192,o),
(-119,-219,c),
(-36,-143,l),
(-116,-151,o),
(-186,-188,o),
(-186,-270,cs),
(-186,-352,o),
(-117,-394,o),
(-31,-394,cs),
(28,-394,o),
(66,-381,o),
(100,-365,c),
(62,-271,l),
(28,-289,o),
(10,-295,o),
(-22,-295,cs),
(-42,-295,o),
(-58,-285,o),
(-58,-266,cs),
(-58,-244,o),
(-35,-229,o),
(41,-228,c),
(52,-202,o),
(60,-171,o),
(60,-128,cs),
(60,-50,o),
(3,15,o),
(-107,15,cs)
);
}
);
};
layerId = "AB31CCB0-FABB-42DD-B4D9-C6BC88EA8185";
shapes = (
{
closed = 1;
nodes = (
(-224,-36,l),
(-275,0,o),
(-315,15,o),
(-377,15,cs),
(-461,15,o),
(-537,-24,o),
(-537,-118,cs),
(-537,-192,o),
(-490,-257,o),
(-373,-350,c),
(-283,-256,l),
(-373,-190,o),
(-390,-164,o),
(-390,-132,cs),
(-390,-116,o),
(-377,-98,o),
(-350,-98,cs),
(-325,-98,o),
(-307,-107,o),
(-290,-123,c)
);
},
{
closed = 1;
nodes = (
(-228,15,o),
(-289,-45,o),
(-322,-151,c),
(-200,-187,l),
(-174,-115,o),
(-147,-99,o),
(-120,-99,cs),
(-95,-99,o),
(-85,-116,o),
(-85,-136,cs),
(-85,-163,o),
(-98,-192,o),
(-119,-219,c),
(-36,-143,l),
(-116,-151,o),
(-186,-188,o),
(-186,-270,cs),
(-186,-352,o),
(-117,-394,o),
(-31,-394,cs),
(28,-394,o),
(66,-381,o),
(100,-365,c),
(62,-271,l),
(28,-289,o),
(10,-295,o),
(-22,-295,cs),
(-42,-295,o),
(-58,-285,o),
(-58,-266,cs),
(-58,-244,o),
(-35,-229,o),
(41,-228,c),
(52,-202,o),
(60,-171,o),
(60,-128,cs),
(60,-50,o),
(3,15,o),
(-107,15,cs)
);
}
);
width = 0;
}
);
unicode = 2402;
},
{
glyphname = llvocalicvowelsigndeva;
layers = (
{
anchors = (
{
name = _Anchor6;
pos = (-247,0);
}
);
background = {
shapes = (
{
closed = 1;
nodes = (
(69,-282,o),
(109,-268,o),
(138,-257,c),
(104,-179,l),
(72,-194,o),
(51,-200,o),
(27,-200,cs),
(1,-200,o),
(-8,-192,o),
(-8,-179,cs),
(-8,-168,o),
(2,-154,o),
(59,-154,c),
(60,-147,o),
(60,-137,o),
(60,-128,cs),
(60,-50,o),
(3,15,o),
(-107,15,cs),
(-228,15,o),
(-289,-45,o),
(-322,-151,c),
(-200,-187,l),
(-174,-115,o),
(-147,-99,o),
(-120,-99,cs),
(-95,-99,o),
(-85,-116,o),
(-85,-136,c),
(-20,-81,l),
(-88,-97,o),
(-127,-125,o),
(-127,-177,cs),
(-127,-241,o),
(-66,-282,o),
(15,-282,cs)
);
},
{
closed = 1;
nodes = (
(-461,15,o),
(-537,-24,o),
(-537,-118,cs),
(-537,-192,o),
(-490,-257,o),
(-373,-350,c),
(-283,-256,l),
(-373,-190,o),
(-390,-164,o),
(-390,-132,cs),
(-390,-116,o),
(-377,-98,o),
(-350,-98,cs),
(-325,-98,o),
(-307,-107,o),
(-290,-123,c),
(-224,-36,l),
(-275,0,o),
(-315,15,o),
(-377,15,cs)
);
},
{
closed = 1;
nodes = (
(118,-394,o),
(158,-381,o),
(187,-370,c),
(153,-292,l),
(120,-307,o),
(100,-312,o),
(76,-312,cs),
(50,-312,o),
(41,-304,o),
(41,-293,cs),
(41,-285,o),
(46,-277,o),
(61,-272,c),
(-33,-215,l),
(-63,-233,o),
(-78,-257,o),
(-78,-291,cs),
(-78,-354,o),
(-18,-394,o),
(63,-394,cs)
);
}
);
};
layerId = "AB31CCB0-FABB-42DD-B4D9-C6BC88EA8185";
shapes = (
{
closed = 1;
nodes = (
(69,-282,o),
(109,-268,o),
(138,-257,c),
(104,-179,l),
(72,-194,o),
(51,-200,o),
(27,-200,cs),
(1,-200,o),
(-8,-192,o),
(-8,-179,cs),
(-8,-168,o),
(2,-154,o),
(59,-154,c),
(60,-147,o),
(60,-137,o),
(60,-128,cs),
(60,-50,o),
(3,15,o),
(-107,15,cs),
(-228,15,o),
(-289,-45,o),
(-322,-151,c),
(-200,-187,l),
(-174,-115,o),
(-147,-99,o),
(-120,-99,cs),
(-95,-99,o),
(-85,-116,o),
(-85,-136,c),
(-20,-81,l),
(-88,-97,o),
(-127,-125,o),
(-127,-177,cs),
(-127,-241,o),
(-66,-282,o),
(15,-282,cs)
);
},
{
closed = 1;
nodes = (
(-461,15,o),
(-537,-24,o),
(-537,-118,cs),
(-537,-192,o),
(-490,-257,o),
(-373,-350,c),
(-283,-256,l),
(-373,-190,o),
(-390,-164,o),
(-390,-132,cs),
(-390,-116,o),
(-377,-98,o),
(-350,-98,cs),
(-325,-98,o),
(-307,-107,o),
(-290,-123,c),
(-224,-36,l),
(-275,0,o),
(-315,15,o),
(-377,15,cs)
);
},
{
closed = 1;
nodes = (
(118,-394,o),
(158,-381,o),
(187,-370,c),
(153,-292,l),
(120,-307,o),
(100,-312,o),
(76,-312,cs),
(50,-312,o),
(41,-304,o),
(41,-293,cs),
(41,-285,o),
(46,-277,o),
(61,-272,c),
(-33,-215,l),
(-63,-233,o),
(-78,-257,o),
(-78,-291,cs),
(-78,-354,o),
(-18,-394,o),
(63,-394,cs)
);
}
);
width = 0;
}
);
unicode = 2403;
},
{
glyphname = dandadeva;
lastChange = "2025-02-13 07:16:38 +0000";
layers = (
{
background = {
shapes = (
{
closed = 1;
nodes = (
(63,0,l),
(240,0,l),
(240,622,l),
(63,622,l)
);
}
);
};
layerId = "AB31CCB0-FABB-42DD-B4D9-C6BC88EA8185";
shapes = (
{
closed = 1;
nodes = (
(37,567,o),
(22,552,o),
(0,541,c),
(6,534,o),
(9,527,o),
(9,518,c),
(9,33,l),
(9,17,o),
(8,6,o),
(5,-7,c),
(24,16,o),
(41,30,o),
(61,42,c),
(53,49,o),
(51,55,o),
(51,70,c),
(51,545,l),
(51,561,o),
(53,573,o),
(55,585,c),
(53,585,l)
);
}
);
width = 61;
}
);
unicode = 2404;
},
{
glyphname = dbldandadeva;
layers = (
{
background = {
shapes = (
{
closed = 1;
nodes = (
(419,0,l),
(596,0,l),
(596,622,l),
(419,622,l)
);
},
{
closed = 1;
nodes = (
(165,0,l),
(342,0,l),
(342,622,l),
(165,622,l)
);
}
);
};
layerId = "AB31CCB0-FABB-42DD-B4D9-C6BC88EA8185";
shapes = (
{
closed = 1;
nodes = (
(419,0,l),
(596,0,l),
(596,622,l),
(419,622,l)
);
},
{
closed = 1;
nodes = (
(165,0,l),
(342,0,l),
(342,622,l),
(165,622,l)
);
}
);
width = 673;
}
);
unicode = 2405;
},
{
glyphname = zerodeva;
layers = (
{
anchors = (
{
name = Anchor4;
pos = (204,622);
}
);
background = {
shapes = (
{
closed = 1;
nodes = (
(447,92,o),
(545,176,o),
(545,319,cs),
(545,462,o),
(440,547,o),
(292,547,cs),
(144,547,o),
(40,462,o),
(40,321,cs),
(40,178,o),
(145,92,o),
(293,92,cs)
);
},
{
closed = 1;
nodes = (
(248,232,o),
(220,260,o),
(220,318,cs),
(220,377,o),
(250,407,o),
(293,407,cs),
(339,407,o),
(365,379,o),
(365,322,cs),
(365,261,o),
(336,232,o),
(291,232,cs)
);
}
);
};
layerId = "AB31CCB0-FABB-42DD-B4D9-C6BC88EA8185";
shapes = (
{
closed = 1;
nodes = (
(447,92,o),
(545,176,o),
(545,319,cs),
(545,462,o),
(440,547,o),
(292,547,cs),
(144,547,o),
(40,462,o),
(40,321,cs),
(40,178,o),
(145,92,o),
(293,92,cs)
);
},
{
closed = 1;
nodes = (
(248,232,o),
(220,260,o),
(220,318,cs),
(220,377,o),
(250,407,o),
(293,407,cs),
(339,407,o),
(365,379,o),
(365,322,cs),
(365,261,o),
(336,232,o),
(291,232,cs)
);
}
);
width = 585;
}
);
unicode = 2406;
},
{
glyphname = onedeva;
layers = (
{
anchors = (
{
name = Anchor4;
pos = (204,622);
},
{
name = Anchor8;
pos = (292,0);
}
);
background = {
shapes = (
{
closed = 1;
nodes = (
(164,632,o),
(95,573,o),
(95,493,cs),
(95,432,o),
(138,385,o),
(186,352,c),
(285,434,l),
(263,447,o),
(251,460,o),
(251,476,cs),
(251,491,o),
(261,504,o),
(284,504,cs),
(311,504,o),
(320,487,o),
(320,467,cs),
(320,412,o),
(244,362,o),
(102,280,c),
(90,218,l),
(291,64,ls),
(317,44,o),
(326,29,o),
(326,10,cs),
(326,-8,o),
(318,-21,o),
(307,-33,c),
(433,-121,l),
(480,-70,o),
(505,-28,o),
(505,22,cs),
(505,83,o),
(482,116,o),
(403,174,cs),
(263,276,l),
(242,168,l),
(466,309,o),
(498,376,o),
(498,466,cs),
(498,557,o),
(430,632,o),
(288,632,cs)
);
}
);
};
layerId = "AB31CCB0-FABB-42DD-B4D9-C6BC88EA8185";
shapes = (
{
closed = 1;
nodes = (
(164,632,o),
(95,573,o),
(95,493,cs),
(95,432,o),
(138,385,o),
(186,352,c),
(285,434,l),
(263,447,o),
(251,460,o),
(251,476,cs),
(251,491,o),
(261,504,o),
(284,504,cs),
(311,504,o),
(320,487,o),
(320,467,cs),
(320,412,o),
(244,362,o),
(102,280,c),
(90,218,l),
(291,64,ls),
(317,44,o),
(326,29,o),
(326,10,cs),
(326,-8,o),
(318,-21,o),
(307,-33,c),
(433,-121,l),
(480,-70,o),
(505,-28,o),
(505,22,cs),
(505,83,o),
(482,116,o),
(403,174,cs),
(263,276,l),
(242,168,l),
(466,309,o),
(498,376,o),
(498,466,cs),
(498,557,o),
(430,632,o),
(288,632,cs)
);
}
);
width = 585;
}
);
unicode = 2407;
},
{
glyphname = twodeva;
layers = (
{
anchors = (
{
name = Anchor4;
pos = (204,622);
}
);
background = {
shapes = (
{
closed = 1;
nodes = (
(172,240,l),
(240,181,o),
(323,88,o),
(400,-16,c),
(527,69,l),
(466,144,o),
(399,224,o),
(323,277,c),
(313,292,l),
(259,342,o),
(220,354,o),
(186,354,cs),
(125,354,o),
(87,320,o),
(87,267,cs),
(87,198,o),
(145,166,o),
(212,166,cs),
(385,166,o),
(501,271,o),
(501,420,cs),
(501,561,o),
(403,632,o),
(268,632,cs),
(193,632,o),
(130,616,o),
(63,589,c),
(113,461,l),
(148,480,o),
(190,494,o),
(232,494,cs),
(284,494,o),
(322,472,o),
(322,413,cs),
(322,339,o),
(262,304,o),
(213,304,c)
);
}
);
};
layerId = "AB31CCB0-FABB-42DD-B4D9-C6BC88EA8185";
shapes = (
{
closed = 1;
nodes = (
(172,240,l),
(240,181,o),
(323,88,o),
(400,-16,c),
(527,69,l),
(466,144,o),
(399,224,o),
(323,277,c),
(313,292,l),
(259,342,o),
(220,354,o),
(186,354,cs),
(125,354,o),
(87,320,o),
(87,267,cs),
(87,198,o),
(145,166,o),
(212,166,cs),
(385,166,o),
(501,271,o),
(501,420,cs),
(501,561,o),
(403,632,o),
(268,632,cs),
(193,632,o),
(130,616,o),
(63,589,c),
(113,461,l),
(148,480,o),
(190,494,o),
(232,494,cs),
(284,494,o),
(322,472,o),
(322,413,cs),
(322,339,o),
(262,304,o),
(213,304,c)
);
}
);
width = 585;
}
);
unicode = 2408;
},
{
glyphname = threedeva;
layers = (
{
anchors = (
{
name = Anchor4;
pos = (204,622);
},
{
name = Anchor8;
pos = (292,0);
}
);
background = {
shapes = (
{
closed = 1;
nodes = (
(159,134,l),
(209,94,o),
(310,-13,o),
(375,-96,c),
(499,-8,l),
(439,60,o),
(371,127,o),
(317,167,c),
(302,188,l),
(253,233,o),
(214,245,o),
(180,245,cs),
(119,245,o),
(81,211,o),
(81,158,cs),
(81,92,o),
(134,57,o),
(204,57,cs),
(407,57,o),
(498,141,o),
(498,248,cs),
(498,326,o),
(445,383,o),
(353,406,c),
(232,300,l),
(293,300,o),
(319,287,o),
(319,254,cs),
(319,220,o),
(292,200,o),
(210,200,c)
);
},
{
closed = 1;
nodes = (
(118,465,l),
(150,479,o),
(191,494,o),
(237,494,cs),
(266,494,o),
(290,488,o),
(290,459,cs),
(290,432,o),
(266,412,o),
(187,409,c),
(193,278,l),
(278,282,o),
(343,299,o),
(389,330,c),
(397,339,l),
(436,367,o),
(467,408,o),
(467,477,cs),
(467,557,o),
(405,632,o),
(266,632,cs),
(192,632,o),
(125,611,o),
(73,589,c)
);
}
);
};
layerId = "AB31CCB0-FABB-42DD-B4D9-C6BC88EA8185";
shapes = (
{
closed = 1;
nodes = (
(159,134,l),
(209,94,o),
(310,-13,o),
(375,-96,c),
(499,-8,l),
(439,60,o),
(371,127,o),
(317,167,c),
(302,188,l),
(253,233,o),
(214,245,o),
(180,245,cs),
(119,245,o),
(81,211,o),
(81,158,cs),
(81,92,o),
(134,57,o),
(204,57,cs),
(407,57,o),
(498,141,o),
(498,248,cs),
(498,326,o),
(445,383,o),
(353,406,c),
(232,300,l),
(293,300,o),
(319,287,o),
(319,254,cs),
(319,220,o),
(292,200,o),
(210,200,c)
);
},
{
closed = 1;
nodes = (
(118,465,l),
(150,479,o),
(191,494,o),
(237,494,cs),
(266,494,o),
(290,488,o),
(290,459,cs),
(290,432,o),
(266,412,o),
(187,409,c),
(193,278,l),
(278,282,o),
(343,299,o),
(389,330,c),
(397,339,l),
(436,367,o),
(467,408,o),
(467,477,cs),
(467,557,o),
(405,632,o),
(266,632,cs),
(192,632,o),
(125,611,o),
(73,589,c)
);
}
);
width = 585;
}
);
unicode = 2409;
},
{
glyphname = fourdeva;
layers = (
{
anchors = (
{
name = Anchor4;
pos = (204,622);
}
);
background = {
shapes = (
{
closed = 1;
nodes = (
(242,305,l),
(312,244,o),
(328,210,o),
(328,183,cs),
(328,149,o),
(312,136,o),
(290,136,cs),
(265,136,o),
(252,153,o),
(252,181,cs),
(252,210,o),
(266,241,o),
(331,296,cs),
(372,331,l),
(517,438,o),
(539,509,o),
(539,565,cs),
(539,594,o),
(535,613,o),
(526,632,c),
(354,603,l),
(357,591,o),
(358,581,o),
(358,569,cs),
(358,527,o),
(342,490,o),
(240,401,c),
(199,360,l),
(95,272,o),
(80,217,o),
(80,160,cs),
(80,56,o),
(168,-2,o),
(292,-2,cs),
(430,-2,o),
(503,61,o),
(503,162,cs),
(503,226,o),
(478,274,o),
(374,372,c),
(317,421,ls),
(236,489,o),
(231,526,o),
(231,570,cs),
(231,581,o),
(233,592,o),
(236,603,c),
(63,632,l),
(56,615,o),
(51,593,o),
(51,572,cs),
(51,509,o),
(56,447,o),
(196,338,c)
);
}
);
};
layerId = "AB31CCB0-FABB-42DD-B4D9-C6BC88EA8185";
shapes = (
{
closed = 1;
nodes = (
(242,305,l),
(312,244,o),
(328,210,o),
(328,183,cs),
(328,149,o),
(312,136,o),
(290,136,cs),
(265,136,o),
(252,153,o),
(252,181,cs),
(252,210,o),
(266,241,o),
(331,296,c),
(372,331,l),
(517,438,o),
(539,509,o),
(539,565,cs),
(539,594,o),
(535,613,o),
(526,632,c),
(354,603,l),
(357,591,o),
(358,581,o),
(358,569,cs),
(358,527,o),
(342,490,o),
(240,401,c),
(199,360,l),
(95,272,o),
(80,217,o),
(80,160,cs),
(80,56,o),
(168,-2,o),
(292,-2,cs),
(430,-2,o),
(503,61,o),
(503,162,cs),
(503,226,o),
(478,274,o),
(374,372,c),
(317,421,l),
(236,489,o),
(231,526,o),
(231,570,cs),
(231,581,o),
(233,592,o),
(236,603,c),
(63,632,l),
(56,615,o),
(51,593,o),
(51,572,cs),
(51,509,o),
(56,447,o),
(196,338,c)
);
}
);
width = 585;
}
);
unicode = 2410;
},
{
glyphname = fivedeva;
layers = (
{
anchors = (
{
name = Anchor4;
pos = (204,622);
}
);
background = {
shapes = (
{
closed = 1;
nodes = (
(588,-4,l),
(543,63,o),
(484,165,o),
(456,232,c),
(358,301,ls),
(356,302,o),
(345,303,o),
(339,303,cs),
(269,303,o),
(237,340,o),
(237,410,cs),
(237,476,o),
(262,524,o),
(300,580,c),
(118,632,l),
(79,560,o),
(59,474,o),
(59,413,cs),
(59,220,o),
(194,166,o),
(321,166,cs),
(433,166,o),
(526,200,o),
(526,285,cs),
(526,342,o),
(485,394,o),
(403,394,cs),
(340,394,o),
(300,359,o),
(300,304,cs),
(300,266,o),
(308,226,o),
(315,206,cs),
(346,123,o),
(395,20,o),
(445,-67,c)
);
}
);
};
layerId = "AB31CCB0-FABB-42DD-B4D9-C6BC88EA8185";
shapes = (
{
closed = 1;
nodes = (
(588,-4,l),
(543,63,o),
(484,165,o),
(456,232,c),
(358,301,l),
(356,302,o),
(345,303,o),
(339,303,cs),
(269,303,o),
(237,340,o),
(237,410,cs),
(237,476,o),
(262,524,o),
(300,580,c),
(118,632,l),
(79,560,o),
(59,474,o),
(59,413,cs),
(59,220,o),
(194,166,o),
(321,166,cs),
(433,166,o),
(526,200,o),
(526,285,cs),
(526,342,o),
(485,394,o),
(403,394,cs),
(340,394,o),
(300,359,o),
(300,304,cs),
(300,266,o),
(308,226,o),
(315,206,cs),
(346,123,o),
(395,20,o),
(445,-67,c)
);
}
);
width = 585;
}
);
unicode = 2411;
},
{
glyphname = sixdeva;
layers = (
{
anchors = (
{
name = Anchor4;
pos = (204,622);
}
);
background = {
shapes = (
{
closed = 1;
nodes = (
(574,-62,l),
(530,8,o),
(490,77,o),
(467,121,c),
(380,203,l),
(376,202,o),
(355,201,o),
(352,201,cs),
(285,201,o),
(263,220,o),
(263,251,cs),
(263,288,o),
(296,299,o),
(336,299,cs),
(356,299,o),
(372,297,o),
(385,295,c),
(400,429,l),
(386,433,o),
(350,437,o),
(324,437,cs),
(270,437,o),
(222,427,o),
(177,401,c),
(165,387,l),
(108,355,o),
(86,312,o),
(86,262,cs),
(86,157,o),
(172,61,o),
(333,61,cs),
(468,61,o),
(539,105,o),
(539,177,cs),
(539,237,o),
(496,279,o),
(417,279,cs),
(366,279,o),
(314,253,o),
(314,200,cs),
(314,194,o),
(314,191,o),
(314,183,c),
(338,79,l),
(360,26,o),
(393,-52,o),
(435,-127,c)
);
},
{
closed = 1;
nodes = (
(291,420,l),
(246,429,o),
(236,450,o),
(236,462,cs),
(236,483,o),
(252,494,o),
(296,494,cs),
(330,494,o),
(371,488,o),
(397,482,c),
(410,621,l),
(373,627,o),
(318,632,o),
(270,632,cs),
(132,632,o),
(59,579,o),
(59,487,cs),
(59,399,o),
(121,326,o),
(259,302,c)
);
}
);
};
layerId = "AB31CCB0-FABB-42DD-B4D9-C6BC88EA8185";
shapes = (
{
closed = 1;
nodes = (
(574,-62,l),
(530,8,o),
(490,77,o),
(467,121,c),
(380,203,l),
(376,202,o),
(355,201,o),
(352,201,c),
(285,201,o),
(263,220,o),
(263,251,cs),
(263,288,o),
(296,299,o),
(336,299,cs),
(356,299,o),
(372,297,o),
(385,295,c),
(400,429,l),
(386,433,o),
(350,437,o),
(324,437,cs),
(270,437,o),
(222,427,o),
(177,401,c),
(165,387,l),
(108,355,o),
(86,312,o),
(86,262,cs),
(86,157,o),
(172,61,o),
(333,61,cs),
(468,61,o),
(539,105,o),
(539,177,cs),
(539,237,o),
(496,279,o),
(417,279,cs),
(366,279,o),
(314,253,o),
(314,200,cs),
(314,194,o),
(314,191,o),
(314,183,c),
(338,79,l),
(360,26,o),
(393,-52,o),
(435,-127,c)
);
},
{
closed = 1;
nodes = (
(291,420,l),
(246,429,o),
(236,450,o),
(236,462,cs),
(236,483,o),
(252,494,o),
(296,494,cs),
(330,494,o),
(371,488,o),
(397,482,c),
(410,621,l),
(373,627,o),
(318,632,o),
(270,632,cs),
(132,632,o),
(59,579,o),
(59,487,cs),
(59,399,o),
(121,326,o),
(259,302,c)
);
}
);
width = 585;
}
);
unicode = 2412;
},
{
glyphname = sevendeva;
layers = (
{
anchors = (
{
name = Anchor4;
pos = (204,622);
}
);
background = {
shapes = (
{
closed = 1;
nodes = (
(557,440,o),
(466,560,o),
(333,560,cs),
(239,560,o),
(178,499,o),
(178,421,cs),
(178,330,o),
(252,272,o),
(353,253,c),
(374,365,l),
(331,372,o),
(310,385,o),
(310,411,cs),
(310,425,o),
(317,433,o),
(329,433,cs),
(364,433,o),
(382,375,o),
(382,280,cs),
(382,208,o),
(373,166,o),
(329,166,cs),
(243,166,o),
(186,325,o),
(177,614,c),
(20,596,l),
(47,149,o),
(162,25,o),
(346,25,cs),
(476,25,o),
(557,96,o),
(557,269,cs)
);
}
);
};
layerId = "AB31CCB0-FABB-42DD-B4D9-C6BC88EA8185";
shapes = (
{
closed = 1;
nodes = (
(557,440,o),
(466,560,o),
(333,560,cs),
(239,560,o),
(178,499,o),
(178,421,cs),
(178,330,o),
(252,272,o),
(353,253,c),
(374,365,l),
(331,372,o),
(310,385,o),
(310,411,cs),
(310,425,o),
(317,433,o),
(329,433,cs),
(364,433,o),
(382,375,o),
(382,280,cs),
(382,208,o),
(373,166,o),
(329,166,cs),
(243,166,o),
(186,325,o),
(177,614,c),
(20,596,l),
(47,149,o),
(162,25,o),
(346,25,cs),
(476,25,o),
(557,96,o),
(557,269,cs)
);
}
);
width = 585;
}
);
unicode = 2413;
},
{
glyphname = eightdeva;
layers = (
{
anchors = (
{
name = Anchor4;
pos = (204,622);
}
);
background = {
shapes = (
{
closed = 1;
nodes = (
(414,0,o),
(486,29,o),
(560,66,c),
(491,201,l),
(429,164,o),
(371,141,o),
(309,141,cs),
(260,141,o),
(242,162,o),
(242,192,cs),
(242,212,o),
(251,228,o),
(285,269,cs),
(492,514,l),
(337,633,l),
(174,432,ls),
(88,327,o),
(61,263,o),
(61,192,cs),
(61,59,o),
(173,0,o),
(298,0,cs)
);
}
);
};
layerId = "AB31CCB0-FABB-42DD-B4D9-C6BC88EA8185";
shapes = (
{
closed = 1;
nodes = (
(414,0,o),
(486,29,o),
(560,66,c),
(491,201,l),
(429,164,o),
(371,141,o),
(309,141,cs),
(260,141,o),
(242,162,o),
(242,192,cs),
(242,212,o),
(251,228,o),
(285,269,cs),
(492,514,l),
(337,633,l),
(174,432,ls),
(88,327,o),
(61,263,o),
(61,192,cs),
(61,59,o),
(173,0,o),
(298,0,cs)
);
}
);
width = 585;
}
);
unicode = 2414;
},
{
glyphname = ninedeva;
layers = (
{
anchors = (
{
name = Anchor4;
pos = (204,622);
}
);
background = {
shapes = (
{
closed = 1;
nodes = (
(48,338,o),
(89,266,o),
(217,168,cs),
(353,64,ls),
(379,44,o),
(388,29,o),
(388,10,cs),
(388,-8,o),
(380,-21,o),
(369,-33,c),
(495,-121,l),
(542,-70,o),
(567,-28,o),
(567,22,cs),
(567,83,o),
(545,118,o),
(466,176,cs),
(390,231,ls),
(359,254,o),
(319,278,o),
(288,290,c),
(264,260,l),
(272,259,o),
(279,258,o),
(287,258,c),
(435,274,o),
(481,357,o),
(481,443,cs),
(481,554,o),
(397,632,o),
(266,632,cs),
(130,632,o),
(48,546,o),
(48,432,cs)
);
},
{
closed = 1;
nodes = (
(212,476,o),
(232,492,o),
(261,492,cs),
(289,492,o),
(308,477,o),
(308,445,cs),
(308,413,o),
(286,395,o),
(258,395,cs),
(230,395,o),
(212,413,o),
(212,443,cs)
);
}
);
};
layerId = "AB31CCB0-FABB-42DD-B4D9-C6BC88EA8185";
shapes = (
{
closed = 1;
nodes = (
(48,338,o),
(89,266,o),
(217,168,cs),
(353,64,ls),
(379,44,o),
(388,29,o),
(388,10,cs),
(388,-8,o),
(380,-21,o),
(369,-33,c),
(495,-121,l),
(542,-70,o),
(567,-28,o),
(567,22,cs),
(567,83,o),
(545,118,o),
(466,176,cs),
(390,231,ls),
(359,254,o),
(319,278,o),
(288,290,c),
(264,260,l),
(272,259,o),
(279,258,o),
(287,258,c),
(435,274,o),
(481,357,o),
(481,443,cs),
(481,554,o),
(397,632,o),
(266,632,cs),
(130,632,o),
(48,546,o),
(48,432,cs)
);
},
{
closed = 1;
nodes = (
(212,476,o),
(232,492,o),
(261,492,cs),
(289,492,o),
(308,477,o),
(308,445,cs),
(308,413,o),
(286,395,o),
(258,395,cs),
(230,395,o),
(212,413,o),
(212,443,cs)
);
}
);
width = 585;
}
);
unicode = 2415;
},
{
glyphname = abbreviationsigndeva;
layers = (
{
background = {
shapes = (
{
closed = 1;
nodes = (
(342,255,o),
(415,319,o),
(415,419,cs),
(415,520,o),
(340,582,o),
(240,582,cs),
(135,582,o),
(64,516,o),
(64,419,cs),
(64,313,o),
(144,255,o),
(240,255,cs)
);
},
{
closed = 1;
nodes = (
(208,362,o),
(182,382,o),
(182,419,cs),
(182,450,o),
(204,475,o),
(240,475,cs),
(274,475,o),
(297,452,o),
(297,419,cs),
(297,385,o),
(275,362,o),
(240,362,cs)
);
}
);
};
layerId = "AB31CCB0-FABB-42DD-B4D9-C6BC88EA8185";
shapes = (
{
closed = 1;
nodes = (
(342,255,o),
(415,319,o),
(415,419,cs),
(415,520,o),
(340,582,o),
(240,582,cs),
(135,582,o),
(64,516,o),
(64,419,cs),
(64,313,o),
(144,255,o),
(240,255,cs)
);
},
{
closed = 1;
nodes = (
(208,362,o),
(182,382,o),
(182,419,cs),
(182,450,o),
(204,475,o),
(240,475,cs),
(274,475,o),
(297,452,o),
(297,419,cs),
(297,385,o),
(275,362,o),
(240,362,cs)
);
}
);
width = 460;
}
);
unicode = 2416;
},
{
glyphname = uni0971;
layers = (
{
background = {
shapes = (
{
closed = 1;
nodes = (
(98,512,o),
(132,478,o),
(181,478,cs),
(229,478,o),
(263,512,o),
(263,559,cs),
(263,605,o),
(229,640,o),
(181,640,cs),
(132,640,o),
(98,605,o),
(98,559,cs)
);
}
);
};
layerId = "AB31CCB0-FABB-42DD-B4D9-C6BC88EA8185";
shapes = (
{
closed = 1;
nodes = (
(98,512,o),
(132,478,o),
(181,478,cs),
(229,478,o),
(263,512,o),
(263,559,cs),
(263,605,o),
(229,640,o),
(181,640,cs),
(132,640,o),
(98,605,o),
(98,559,cs)
);
}
);
width = 343;
}
);
unicode = 2417;
},
{
glyphname = marwariddadeva;
layers = (
{
anchors = (
{
name = Anchor6;
pos = (261,0);
}
);
background = {
shapes = (
{
closed = 1;
nodes = (
(650,484,l),
(650,622,l),
(0,622,l),
(0,484,l),
(103,484,l),
(103,355,l),
(206,248,l),
(249,267,o),
(296,278,o),
(338,278,cs),
(399,278,o),
(431,259,o),
(431,209,cs),
(431,169,o),
(412,134,o),
(381,94,c),
(534,11,l),
(589,87,o),
(608,152,o),
(608,215,cs),
(608,321,o),
(547,416,o),
(344,416,cs),
(309,416,o),
(266,411,o),
(224,402,c),
(186,400,l),
(65,388,o),
(26,366,o),
(26,312,cs),
(26,247,o),
(120,147,o),
(197,147,cs),
(252,147,o),
(280,179,o),
(280,253,cs),
(280,484,l)
);
}
);
};
layerId = "AB31CCB0-FABB-42DD-B4D9-C6BC88EA8185";
shapes = (
{
closed = 1;
nodes = (
(650,484,l),
(650,622,l),
(0,622,l),
(0,484,l),
(103,484,l),
(103,355,l),
(206,248,l),
(249,267,o),
(296,278,o),
(338,278,cs),
(399,278,o),
(431,259,o),
(431,209,cs),
(431,169,o),
(412,134,o),
(381,94,c),
(534,11,l),
(589,87,o),
(608,152,o),
(608,215,cs),
(608,321,o),
(547,416,o),
(344,416,cs),
(309,416,o),
(266,411,o),
(224,402,c),
(186,400,l),
(65,388,o),
(26,366,o),
(26,312,cs),
(26,247,o),
(120,147,o),
(197,147,cs),
(252,147,o),
(280,179,o),
(280,253,cs),
(280,484,l)
);
}
);
width = 635;
}
);
unicode = 2424;
},
{
glyphname = zhadeva;
layers = (
{
background = {
shapes = (
{
closed = 1;
nodes = (
(894,484,l),
(894,622,l),
(0,622,l),
(0,484,l),
(632,484,l),
(632,436,l),
(347,436,l),
(299,338,l),
(358,307,o),
(384,282,o),
(384,249,cs),
(384,225,o),
(369,215,o),
(346,215,cs),
(274,215,o),
(222,277,o),
(158,430,c),
(14,376,l),
(112,121,o),
(245,77,o),
(361,77,cs),
(480,77,o),
(559,124,o),
(559,219,cs),
(559,296,o),
(503,335,o),
(403,383,c),
(502,308,l),
(521,304,o),
(554,303,o),
(590,303,cs),
(632,303,l),
(632,0,l),
(809,0,l),
(809,484,l)
);
},
{
closed = 1;
nodes = (
(295,-125,o),
(324,-153,o),
(359,-153,cs),
(394,-153,o),
(423,-125,o),
(423,-89,cs),
(423,-53,o),
(394,-26,o),
(359,-26,cs),
(324,-26,o),
(295,-53,o),
(295,-89,cs)
);
},
{
closed = 1;
nodes = (
(388,-20,o),
(417,-48,o),
(452,-48,cs),
(486,-48,o),
(515,-20,o),
(515,15,cs),
(515,51,o),
(486,79,o),
(452,79,cs),
(417,79,o),
(388,51,o),
(388,15,cs)
);
},
{
closed = 1;
nodes = (
(203,-20,o),
(231,-48,o),
(266,-48,cs),
(301,-48,o),
(330,-20,o),
(330,15,cs),
(330,51,o),
(301,79,o),
(266,79,cs),
(231,79,o),
(203,51,o),
(203,15,cs)
);
}
);
};
layerId = "AB31CCB0-FABB-42DD-B4D9-C6BC88EA8185";
shapes = (
{
closed = 1;
nodes = (
(894,484,l),
(894,622,l),
(0,622,l),
(0,484,l),
(632,484,l),
(632,436,l),
(347,436,l),
(299,338,l),
(358,307,o),
(384,282,o),
(384,249,cs),
(384,225,o),
(369,215,o),
(346,215,cs),
(274,215,o),
(222,277,o),
(158,430,c),
(14,376,l),
(112,121,o),
(245,77,o),
(361,77,cs),
(480,77,o),
(559,124,o),
(559,219,cs),
(559,296,o),
(503,335,o),
(403,383,c),
(502,308,l),
(521,304,o),
(554,303,o),
(590,303,cs),
(632,303,l),
(632,0,l),
(809,0,l),
(809,484,l)
);
},
{
closed = 1;
nodes = (
(295,-125,o),
(324,-153,o),
(359,-153,cs),
(394,-153,o),
(423,-125,o),
(423,-89,cs),
(423,-53,o),
(394,-26,o),
(359,-26,cs),
(324,-26,o),
(295,-53,o),
(295,-89,cs)
);
},
{
closed = 1;
nodes = (
(388,-20,o),
(417,-48,o),
(452,-48,cs),
(486,-48,o),
(515,-20,o),
(515,15,cs),
(515,51,o),
(486,79,o),
(452,79,cs),
(417,79,o),
(388,51,o),
(388,15,cs)
);
},
{
closed = 1;
nodes = (
(203,-20,o),
(231,-48,o),
(266,-48,cs),
(301,-48,o),
(330,-20,o),
(330,15,cs),
(330,51,o),
(301,79,o),
(266,79,cs),
(231,79,o),
(203,51,o),
(203,15,cs)
);
}
);
width = 879;
}
);
unicode = 2425;
},
{
glyphname = heavyyadeva;
layers = (
{
background = {
shapes = (
{
closed = 1;
nodes = (
(690,484,l),
(690,622,l),
(0,622,l),
(0,484,l),
(199,484,l),
(90,518,l),
(112,497,o),
(129,472,o),
(129,437,cs),
(129,387,o),
(100,362,o),
(23,345,c),
(57,191,o),
(129,85,o),
(282,85,cs),
(351,85,o),
(400,100,o),
(470,146,c),
(428,199,l),
(428,0,l),
(605,0,l),
(605,484,l)
);
},
{
closed = 1;
nodes = (
(428,484,l),
(428,252,l),
(419,272,l),
(384,234,o),
(351,222,o),
(298,222,cs),
(254,222,o),
(222,246,o),
(204,282,c),
(200,275,l),
(251,297,o),
(287,330,o),
(296,379,c),
(299,410,l),
(299,462,o),
(277,500,o),
(252,534,c),
(202,484,l)
);
},
{
closed = 1;
nodes = (
(257,529,l),
(210,488,l),
(245,430,o),
(282,358,o),
(321,307,cs),
(390,217,l),
(460,267,l)
);
}
);
};
layerId = "AB31CCB0-FABB-42DD-B4D9-C6BC88EA8185";
shapes = (
{
closed = 1;
nodes = (
(690,484,l),
(690,622,l),
(0,622,l),
(0,484,l),
(199,484,l),
(90,518,l),
(112,497,o),
(129,472,o),
(129,437,cs),
(129,387,o),
(100,362,o),
(23,345,c),
(57,191,o),
(129,85,o),
(282,85,cs),
(351,85,o),
(400,100,o),
(470,146,c),
(428,199,l),
(428,0,l),
(605,0,l),
(605,484,l)
);
},
{
closed = 1;
nodes = (
(428,484,l),
(428,252,l),
(419,272,l),
(384,234,o),
(351,222,o),
(298,222,cs),
(254,222,o),
(222,246,o),
(204,282,c),
(200,275,l),
(251,297,o),
(287,330,o),
(296,379,c),
(299,410,l),
(299,462,o),
(277,500,o),
(252,534,c),
(202,484,l)
);
},
{
closed = 1;
nodes = (
(257,529,l),
(210,488,l),
(245,430,o),
(282,358,o),
(321,307,cs),
(390,217,l),
(460,267,l)
);
}
);
width = 675;
}
);
unicode = 2426;
},
{
glyphname = gabardeva;
layers = (
{
background = {
shapes = (
{
closed = 1;
nodes = (
(405,484,l),
(405,-23,l),
(582,-23,l),
(582,484,l),
(667,484,l),
(667,622,l),
(0,622,l),
(0,484,l),
(103,484,l),
(103,388,l),
(116,391,l),
(45,391,o),
(27,361,o),
(27,317,cs),
(27,245,o),
(120,145,o),
(197,145,cs),
(252,145,o),
(280,177,o),
(280,251,cs),
(280,484,l)
);
},
{
closed = 1;
nodes = (
(82,-23,l),
(437,-23,l),
(437,82,l),
(82,82,l)
);
}
);
};
layerId = "AB31CCB0-FABB-42DD-B4D9-C6BC88EA8185";
shapes = (
{
closed = 1;
nodes = (
(405,484,l),
(405,-23,l),
(582,-23,l),
(582,484,l),
(667,484,l),
(667,622,l),
(0,622,l),
(0,484,l),
(103,484,l),
(103,388,l),
(116,391,l),
(45,391,o),
(27,361,o),
(27,317,cs),
(27,245,o),
(120,145,o),
(197,145,cs),
(252,145,o),
(280,177,o),
(280,251,cs),
(280,484,l)
);
},
{
closed = 1;
nodes = (
(82,-23,l),
(437,-23,l),
(437,82,l),
(82,82,l)
);
}
);
width = 652;
}
);
unicode = 2427;
},
{
glyphname = jabardeva;
layers = (
{
background = {
shapes = (
{
closed = 1;
nodes = (
(889,484,l),
(889,622,l),
(0,622,l),
(0,484,l),
(627,484,l),
(627,436,l),
(347,436,l),
(300,341,l),
(359,311,o),
(384,287,o),
(384,256,cs),
(384,233,o),
(369,223,o),
(345,223,cs),
(274,223,o),
(222,281,o),
(158,430,c),
(14,376,l),
(110,130,o),
(252,86,o),
(361,86,cs),
(470,86,o),
(559,129,o),
(559,222,cs),
(559,298,o),
(503,336,o),
(403,383,c),
(502,308,l),
(521,304,o),
(554,303,o),
(590,303,cs),
(627,303,l),
(627,-23,l),
(804,-23,l),
(804,484,l)
);
},
{
closed = 1;
nodes = (
(82,-23,l),
(659,-23,l),
(659,82,l),
(82,82,l)
);
}
);
};
layerId = "AB31CCB0-FABB-42DD-B4D9-C6BC88EA8185";
shapes = (
{
closed = 1;
nodes = (
(889,484,l),
(889,622,l),
(0,622,l),
(0,484,l),
(627,484,l),
(627,436,l),
(347,436,l),
(300,341,l),
(359,311,o),
(384,287,o),
(384,256,cs),
(384,233,o),
(369,223,o),
(345,223,cs),
(274,223,o),
(222,281,o),
(158,430,c),
(14,376,l),
(110,130,o),
(252,86,o),
(361,86,cs),
(470,86,o),
(559,129,o),
(559,222,cs),
(559,298,o),
(503,336,o),
(403,383,c),
(502,308,l),
(521,304,o),
(554,303,o),
(590,303,cs),
(627,303,l),
(627,-23,l),
(804,-23,l),
(804,484,l)
);
},
{
closed = 1;
nodes = (
(82,-23,l),
(659,-23,l),
(659,82,l),
(82,82,l)
);
}
);
width = 874;
}
);
unicode = 2428;
},
{
glyphname = uni097D;
layers = (
{
background = {
shapes = (
{
closed = 1;
nodes = (
(171,632,o),
(107,617,o),
(45,591,c),
(95,462,l),
(135,479,o),
(176,492,o),
(223,492,cs),
(279,492,o),
(311,468,o),
(311,421,cs),
(311,366,o),
(274,335,o),
(142,332,c),
(142,0,l),
(319,0,l),
(319,214,l),
(420,241,o),
(488,302,o),
(488,420,cs),
(488,546,o),
(407,632,o),
(251,632,cs)
);
}
);
};
layerId = "AB31CCB0-FABB-42DD-B4D9-C6BC88EA8185";
shapes = (
{
closed = 1;
nodes = (
(171,632,o),
(107,617,o),
(45,591,c),
(95,462,l),
(135,479,o),
(176,492,o),
(223,492,cs),
(279,492,o),
(311,468,o),
(311,421,cs),
(311,366,o),
(274,335,o),
(142,332,c),
(142,0,l),
(319,0,l),
(319,214,l),
(420,241,o),
(488,302,o),
(488,420,cs),
(488,546,o),
(407,632,o),
(251,632,cs)
);
}
);
width = 525;
}
);
unicode = 2429;
},
{
glyphname = ddabardeva;
layers = (
{
anchors = (
{
name = Anchor2;
pos = (416,622);
},
{
name = Anchor6;
pos = (336,0);
}
);
background = {
shapes = (
{
closed = 1;
nodes = (
(458,232,o),
(469,226,o),
(469,213,cs),
(469,198,o),
(452,189,o),
(385,189,cs),
(273,189,o),
(191,239,o),
(120,305,c),
(11,223,l),
(121,131,o),
(234,83,o),
(391,83,cs),
(581,83,o),
(643,140,o),
(643,210,cs),
(643,279,o),
(583,331,o),
(453,331,cs),
(405,331,o),
(383,328,o),
(355,323,c),
(347,331,o),
(342,337,o),
(342,345,cs),
(342,356,o),
(352,359,o),
(366,359,cs),
(590,359,l),
(590,484,l),
(687,484,l),
(687,622,l),
(0,622,l),
(0,484,l),
(416,484,l),
(416,451,l),
(367,451,ls),
(270,451,o),
(237,444,o),
(206,422,cs),
(179,403,o),
(169,380,o),
(169,352,cs),
(169,296,o),
(231,245,o),
(297,220,c),
(330,228,o),
(375,232,o),
(405,232,cs)
);
},
{
closed = 1;
nodes = (
(79,-23,l),
(635,-23,l),
(635,82,l),
(79,82,l)
);
}
);
};
layerId = "AB31CCB0-FABB-42DD-B4D9-C6BC88EA8185";
shapes = (
{
closed = 1;
nodes = (
(458,232,o),
(469,226,o),
(469,213,cs),
(469,198,o),
(452,189,o),
(385,189,cs),
(273,189,o),
(191,239,o),
(120,305,c),
(11,223,l),
(121,131,o),
(234,83,o),
(391,83,cs),
(581,83,o),
(643,140,o),
(643,210,cs),
(643,279,o),
(583,331,o),
(453,331,cs),
(405,331,o),
(383,328,o),
(355,323,c),
(347,331,o),
(342,337,o),
(342,345,cs),
(342,356,o),
(352,359,o),
(366,359,cs),
(590,359,l),
(590,484,l),
(687,484,l),
(687,622,l),
(0,622,l),
(0,484,l),
(416,484,l),
(416,451,l),
(367,451,ls),
(270,451,o),
(237,444,o),
(206,422,cs),
(179,403,o),
(169,380,o),
(169,352,cs),
(169,296,o),
(231,245,o),
(297,220,c),
(330,228,o),
(375,232,o),
(405,232,cs)
);
},
{
closed = 1;
nodes = (
(79,-23,l),
(635,-23,l),
(635,82,l),
(79,82,l)
);
}
);
width = 672;
}
);
unicode = 2430;
},
{
glyphname = babardeva;
layers = (
{
background = {
shapes = (
{
closed = 1;
nodes = (
(664,622,l),
(0,622,l),
(0,484,l),
(402,484,l),
(402,219,l),
(429,323,l),
(403,282,o),
(347,228,o),
(257,228,cs),
(218,228,o),
(191,237,o),
(191,282,cs),
(191,318,o),
(221,337,o),
(282,337,cs),
(316,337,o),
(341,332,o),
(360,329,c),
(376,450,l),
(341,455,o),
(310,459,o),
(266,459,cs),
(112,459,o),
(28,391,o),
(28,284,cs),
(28,163,o),
(117,105,o),
(241,105,cs),
(334,105,o),
(388,126,o),
(453,172,c),
(402,202,l),
(402,-23,l),
(579,-23,l),
(579,484,l),
(664,484,l)
);
},
{
closed = 1;
nodes = (
(149,396,l),
(337,161,l),
(408,208,l),
(236,423,l)
);
},
{
closed = 1;
nodes = (
(82,-23,l),
(437,-23,l),
(437,82,l),
(82,82,l)
);
}
);
};
layerId = "AB31CCB0-FABB-42DD-B4D9-C6BC88EA8185";
shapes = (
{
closed = 1;
nodes = (
(664,622,l),
(0,622,l),
(0,484,l),
(402,484,l),
(402,219,l),
(429,323,l),
(403,282,o),
(347,228,o),
(257,228,cs),
(218,228,o),
(191,237,o),
(191,282,cs),
(191,318,o),
(221,337,o),
(282,337,cs),
(316,337,o),
(341,332,o),
(360,329,c),
(376,450,l),
(341,455,o),
(310,459,o),
(266,459,cs),
(112,459,o),
(28,391,o),
(28,284,cs),
(28,163,o),
(117,105,o),
(241,105,cs),
(334,105,o),
(388,126,o),
(453,172,c),
(402,202,l),
(402,-23,l),
(579,-23,l),
(579,484,l),
(664,484,l)
);
},
{
closed = 1;
nodes = (
(149,396,l),
(337,161,l),
(408,208,l),
(236,423,l)
);
},
{
closed = 1;
nodes = (
(82,-23,l),
(437,-23,l),
(437,82,l),
(82,82,l)
);
}
);
width = 649;
}
);
unicode = 2431;
},
{
glyphname = uni200C;
layers = (
{
background = {
shapes = (
{
closed = 1;
nodes = (
(-26,-166,l),
(26,-166,l),
(26,788,l),
(-26,788,l)
);
}
);
};
layerId = "AB31CCB0-FABB-42DD-B4D9-C6BC88EA8185";
shapes = (
{
closed = 1;
nodes = (
(-26,-166,l),
(26,-166,l),
(26,788,l),
(-26,788,l)
);
}
);
width = 0;
}
);
unicode = 8204;
},
{
glyphname = uni200D;
layers = (
{
background = {
shapes = (
{
closed = 1;
nodes = (
(36,646,l),
(146,751,l),
(109,788,l),
(0,680,l),
(-109,788,l),
(-146,752,l),
(-36,646,l),
(-146,539,l),
(-109,503,l),
(-26,585,l),
(-26,-165,l),
(26,-165,l),
(26,585,l),
(109,503,l),
(146,539,l)
);
}
);
};
layerId = "AB31CCB0-FABB-42DD-B4D9-C6BC88EA8185";
shapes = (
{
closed = 1;
nodes = (
(36,646,l),
(146,751,l),
(109,788,l),
(0,680,l),
(-109,788,l),
(-146,752,l),
(-36,646,l),
(-146,539,l),
(-109,503,l),
(-26,585,l),
(-26,-165,l),
(26,-165,l),
(26,585,l),
(109,503,l),
(146,539,l)
);
}
);
width = 0;
}
);
unicode = 8205;
},
{
glyphname = uni25CC;
layers = (
{
anchors = (
{
name = Anchor8;
pos = (255,0);
}
);
background = {
shapes = (
{
closed = 1;
nodes = (
(403,407,o),
(413,417,o),
(413,436,cs),
(413,456,o),
(403,465,o),
(384,465,cs),
(365,465,o),
(355,456,o),
(355,436,cs),
(355,417,o),
(365,407,o),
(384,407,cs)
);
},
{
closed = 1;
nodes = (
(145,158,o),
(154,167,o),
(154,187,cs),
(154,207,o),
(145,216,o),
(125,216,cs),
(106,216,o),
(97,207,o),
(97,187,cs),
(97,167,o),
(106,158,o),
(125,158,cs)
);
},
{
closed = 1;
nodes = (
(100,283,o),
(109,292,o),
(109,312,cs),
(109,331,o),
(100,340,o),
(81,340,cs),
(61,340,o),
(52,331,o),
(52,312,cs),
(52,292,o),
(61,283,o),
(81,283,cs)
);
},
{
closed = 1;
nodes = (
(274,108,o),
(284,118,o),
(284,137,cs),
(284,157,o),
(274,166,o),
(254,166,cs),
(235,166,o),
(226,157,o),
(226,137,cs),
(226,118,o),
(235,108,o),
(254,108,cs)
);
},
{
closed = 1;
nodes = (
(145,407,o),
(154,417,o),
(154,436,cs),
(154,456,o),
(145,465,o),
(125,465,cs),
(106,465,o),
(97,456,o),
(97,436,cs),
(97,417,o),
(106,407,o),
(125,407,cs)
);
},
{
closed = 1;
nodes = (
(403,158,o),
(413,167,o),
(413,187,cs),
(413,207,o),
(403,216,o),
(384,216,cs),
(365,216,o),
(355,207,o),
(355,187,cs),
(355,167,o),
(365,158,o),
(384,158,cs)
);
},
{
closed = 1;
nodes = (
(274,457,o),
(284,466,o),
(284,486,cs),
(284,505,o),
(274,514,o),
(254,514,cs),
(235,514,o),
(226,505,o),
(226,486,cs),
(226,466,o),
(235,457,o),
(254,457,cs)
);
},
{
closed = 1;
nodes = (
(448,283,o),
(458,292,o),
(458,312,cs),
(458,331,o),
(448,340,o),
(429,340,cs),
(410,340,o),
(400,331,o),
(400,312,cs),
(400,292,o),
(410,283,o),
(429,283,cs)
);
}
);
};
layerId = "AB31CCB0-FABB-42DD-B4D9-C6BC88EA8185";
shapes = (
{
closed = 1;
nodes = (
(403,407,o),
(413,417,o),
(413,436,cs),
(413,456,o),
(403,465,o),
(384,465,cs),
(365,465,o),
(355,456,o),
(355,436,cs),
(355,417,o),
(365,407,o),
(384,407,cs)
);
},
{
closed = 1;
nodes = (
(145,158,o),
(154,167,o),
(154,187,cs),
(154,207,o),
(145,216,o),
(125,216,cs),
(106,216,o),
(97,207,o),
(97,187,cs),
(97,167,o),
(106,158,o),
(125,158,cs)
);
},
{
closed = 1;
nodes = (
(100,283,o),
(109,292,o),
(109,312,cs),
(109,331,o),
(100,340,o),
(81,340,cs),
(61,340,o),
(52,331,o),
(52,312,cs),
(52,292,o),
(61,283,o),
(81,283,cs)
);
},
{
closed = 1;
nodes = (
(274,108,o),
(284,118,o),
(284,137,cs),
(284,157,o),
(274,166,o),
(254,166,cs),
(235,166,o),
(226,157,o),
(226,137,cs),
(226,118,o),
(235,108,o),
(254,108,cs)
);
},
{
closed = 1;
nodes = (
(145,407,o),
(154,417,o),
(154,436,cs),
(154,456,o),
(145,465,o),
(125,465,cs),
(106,465,o),
(97,456,o),
(97,436,cs),
(97,417,o),
(106,407,o),
(125,407,cs)
);
},
{
closed = 1;
nodes = (
(403,158,o),
(413,167,o),
(413,187,cs),
(413,207,o),
(403,216,o),
(384,216,cs),
(365,216,o),
(355,207,o),
(355,187,cs),
(355,167,o),
(365,158,o),
(384,158,cs)
);
},
{
closed = 1;
nodes = (
(274,457,o),
(284,466,o),
(284,486,cs),
(284,505,o),
(274,514,o),
(254,514,cs),
(235,514,o),
(226,505,o),
(226,486,cs),
(226,466,o),
(235,457,o),
(254,457,cs)
);
},
{
closed = 1;
nodes = (
(448,283,o),
(458,292,o),
(458,312,cs),
(458,331,o),
(448,340,o),
(429,340,cs),
(410,340,o),
(400,331,o),
(400,312,cs),
(400,292,o),
(410,283,o),
(429,283,cs)
);
}
);
width = 510;
}
);
unicode = 9676;
},
{
glyphname = kassadeva;
lastChange = "2025-02-13 06:37:09 +0000";
layers = (
{
background = {
shapes = (
{
closed = 1;
nodes = (
(672,484,l),
(672,622,l),
(347,622,l),
(347,484,l),
(410,484,l),
(410,396,l),
(428,445,l),
(378,410,o),
(315,384,o),
(237,384,cs),
(212,384,o),
(181,385,o),
(157,390,c),
(130,397,ls),
(93,406,o),
(41,430,o),
(41,467,cs),
(41,492,o),
(59,505,o),
(84,505,cs),
(117,505,o),
(129,488,o),
(129,469,cs),
(129,450,o),
(112,424,o),
(45,402,c),
(13,398,l),
(-120,333,o),
(-162,279,o),
(-162,203,cs),
(-162,108,o),
(-98,28,o),
(95,28,cs),
(113,28,o),
(148,29,o),
(172,34,c),
(227,40,l),
(283,57,o),
(310,88,o),
(310,141,cs),
(310,195,o),
(264,238,o),
(185,238,cs),
(122,238,o),
(98,202,o),
(98,167,cs),
(98,150,o),
(100,134,o),
(105,124,c),
(130,36,l),
(151,2,o),
(180,-40,o),
(213,-77,c),
(334,-2,l),
(304,28,o),
(275,60,o),
(254,85,c),
(135,170,l),
(120,167,o),
(110,165,o),
(90,165,cs),
(45,165,o),
(16,176,o),
(16,208,cs),
(16,235,o),
(33,262,o),
(121,301,c),
(159,337,l),
(278,393,o),
(297,442,o),
(297,488,cs),
(297,576,o),
(222,632,o),
(81,632,cs),
(-56,632,o),
(-127,563,o),
(-127,483,cs),
(-127,419,o),
(-89,360,o),
(-10,317,c),
(4,310,l),
(79,268,o),
(169,256,o),
(237,256,cs),
(321,256,o),
(374,268,o),
(421,292,c),
(410,361,l),
(410,0,l),
(587,0,l),
(587,484,l)
);
}
);
};
layerId = "AB31CCB0-FABB-42DD-B4D9-C6BC88EA8185";
shapes = (
{
closed = 1;
nodes = (
(-39,51,o),
(8,96,o),
(17,101,c),
(13,108,l),
(3,100,o),
(-17,84,o),
(-27,73,c),
(-35,87,o),
(-46,102,o),
(-54,112,c),
(-51,179,o),
(-49,291,o),
(-51,380,c),
(-43,394,o),
(-36,406,o),
(-30,423,c),
(-39,426,l),
(-55,396,o),
(-76,369,o),
(-98,350,c),
(-96,338,o),
(-95,116,o),
(-100,89,c),
(-79,70,o),
(-64,50,o),
(-54,31,c)
);
},
{
closed = 1;
nodes = (
(54,40,l),
(53,146,l),
(31,181,l),
(31,359,l),
(-17,321,l),
(-18,138,l),
(14,102,l),
(9,-8,l)
);
},
{
closed = 1;
nodes = (
(76,475,l),
(33,450,o),
(-13,457,o),
(-55,487,c),
(-52,519,o),
(-54,551,o),
(-56,583,c),
(-49,593,l),
(-37,590,o),
(-25,589,o),
(-16,591,c),
(-18,577,o),
(-17,505,o),
(-16,494,c),
(-17,489,o),
(-22,484,o),
(-25,480,c),
(-18,476,l),
(0,494,o),
(14,508,o),
(33,520,c),
(28,542,o),
(29,603,o),
(34,639,c),
(17,634,o),
(-7,632,o),
(-27,639,c),
(-39,618,o),
(-76,565,o),
(-99,548,c),
(-95,544,o),
(-93,464,o),
(-97,460,c),
(-69,426,o),
(2,400,o),
(35,420,c)
);
},
{
closed = 1;
nodes = (
(115,565,l),
(113,553,o),
(113,546,o),
(113,530,c),
(114,68,l),
(114,53,o),
(116,47,o),
(124,40,c),
(104,28,o),
(87,14,o),
(68,-9,c),
(71,4,o),
(72,15,o),
(72,31,c),
(72,480,l),
(72,500,l),
(72,509,o),
(71,516,o),
(65,523,c),
(98,555,o),
(125,589,o),
(146,621,c),
(188,621,l),
(148,578,l),
(125,578,l)
);
}
);
width = 215;
}
);
},
{
glyphname = janyadeva;
layers = (
{
background = {
shapes = (
{
closed = 1;
nodes = (
(774,484,l),
(774,622,l),
(0,622,l),
(0,484,l),
(512,484,l),
(512,0,l),
(689,0,l),
(689,484,l)
);
},
{
closed = 1;
nodes = (
(244,194,o),
(222,178,o),
(178,178,c),
(153,170,o),
(120,156,o),
(89,163,c),
(141,73,l),
(209,27,o),
(306,-27,o),
(391,-59,c),
(444,50,l),
(387,66,o),
(299,97,o),
(253,120,c),
(201,189,o),
(154,229,o),
(96,229,cs),
(61,229,o),
(22,207,o),
(22,151,cs),
(22,75,o),
(91,56,o),
(192,56,cs),
(216,56,o),
(242,60,o),
(248,60,c),
(358,67,o),
(421,130,o),
(421,206,cs),
(421,287,o),
(368,323,o),
(251,354,c),
(360,298,l),
(380,295,o),
(416,293,o),
(469,293,cs),
(554,293,l),
(571,426,l),
(132,426,l),
(85,328,l),
(188,305,o),
(244,272,o),
(244,225,cs)
);
}
);
};
layerId = "AB31CCB0-FABB-42DD-B4D9-C6BC88EA8185";
shapes = (
{
closed = 1;
nodes = (
(774,484,l),
(774,622,l),
(0,622,l),
(0,484,l),
(512,484,l),
(512,0,l),
(689,0,l),
(689,484,l)
);
},
{
closed = 1;
nodes = (
(244,194,o),
(222,178,o),
(178,178,c),
(153,170,o),
(120,156,o),
(89,163,c),
(141,73,l),
(209,27,o),
(306,-27,o),
(391,-59,c),
(444,50,l),
(387,66,o),
(299,97,o),
(253,120,c),
(201,189,o),
(154,229,o),
(96,229,cs),
(61,229,o),
(22,207,o),
(22,151,cs),
(22,75,o),
(91,56,o),
(192,56,cs),
(216,56,o),
(242,60,o),
(248,60,c),
(358,67,o),
(421,130,o),
(421,206,cs),
(421,287,o),
(368,323,o),
(251,354,c),
(360,298,l),
(380,295,o),
(416,293,o),
(469,293,cs),
(554,293,l),
(571,426,l),
(132,426,l),
(85,328,l),
(188,305,o),
(244,272,o),
(244,225,cs)
);
}
);
width = 759;
}
);
},
{
glyphname = rephdeva;
lastChange = "2025-02-13 06:12:25 +0000";
layers = (
{
anchors = (
{
name = _Anchor2;
pos = (-382,622);
}
);
background = {
shapes = (
{
closed = 1;
nodes = (
(-232,615,l),
(-247,636,o),
(-267,679,o),
(-267,714,cs),
(-267,750,o),
(-249,774,o),
(-207,774,cs),
(-185,774,o),
(-163,771,o),
(-143,765,c),
(-115,881,l),
(-145,889,o),
(-188,896,o),
(-237,896,cs),
(-357,896,o),
(-436,851,o),
(-436,743,cs),
(-436,702,o),
(-417,651,o),
(-391,615,c)
);
}
);
};
layerId = "AB31CCB0-FABB-42DD-B4D9-C6BC88EA8185";
shapes = (
{
closed = 1;
nodes = (
(-507,631,o),
(-492,640,o),
(-476,647,c),
(-474,678,o),
(-474,708,o),
(-476,739,c),
(-462,749,l),
(-442,748,o),
(-422,747,o),
(-402,749,c),
(-397,760,o),
(-389,771,o),
(-378,782,c),
(-396,779,o),
(-415,780,o),
(-433,782,c),
(-460,758,o),
(-490,735,o),
(-523,715,c),
(-521,684,o),
(-521,652,o),
(-523,617,c)
);
}
);
width = 145;
}
);
},
{
glyphname = vattudeva;
layers = (
{
background = {
shapes = (
{
closed = 1;
nodes = (
(-420,-257,l),
(-228,-138,l),
(-133,-257,l),
(-10,-172,l),
(-161,-19,l),
(-273,-19,l),
(-505,-138,l)
);
}
);
};
layerId = "AB31CCB0-FABB-42DD-B4D9-C6BC88EA8185";
shapes = (
{
closed = 1;
nodes = (
(-420,-257,l),
(-228,-138,l),
(-133,-257,l),
(-10,-172,l),
(-161,-19,l),
(-273,-19,l),
(-505,-138,l)
);
}
);
width = 0;
}
);
},
{
glyphname = kaprehalfdeva;
layers = (
{
background = {
shapes = (
{
closed = 1;
nodes = (
(703,622,l),
(0,622,l),
(0,484,l),
(381,484,l),
(381,190,l),
(409,308,l),
(382,260,o),
(328,212,o),
(258,212,cs),
(237,212,o),
(205,217,o),
(205,257,cs),
(205,284,o),
(230,302,o),
(275,302,cs),
(302,302,o),
(323,299,o),
(339,296,c),
(354,431,l),
(323,436,o),
(291,440,o),
(250,440,cs),
(113,440,o),
(28,369,o),
(28,261,cs),
(28,134,o),
(114,73,o),
(241,73,cs),
(321,73,o),
(373,93,o),
(435,137,c),
(381,175,l),
(381,0,l),
(558,0,l),
(558,229,l),
(530,185,l),
(557,207,o),
(576,217,o),
(639,217,cs),
(707,217,l),
(707,355,l),
(645,355,ls),
(590,355,o),
(560,347,o),
(525,325,c),
(558,329,l),
(558,484,l),
(703,484,l)
);
}
);
};
layerId = "AB31CCB0-FABB-42DD-B4D9-C6BC88EA8185";
shapes = (
{
closed = 1;
nodes = (
(703,622,l),
(0,622,l),
(0,484,l),
(381,484,l),
(381,190,l),
(409,308,l),
(382,260,o),
(328,212,o),
(258,212,cs),
(237,212,o),
(205,217,o),
(205,257,cs),
(205,284,o),
(230,302,o),
(275,302,cs),
(302,302,o),
(323,299,o),
(339,296,c),
(354,431,l),
(323,436,o),
(291,440,o),
(250,440,cs),
(113,440,o),
(28,369,o),
(28,261,cs),
(28,134,o),
(114,73,o),
(241,73,cs),
(321,73,o),
(373,93,o),
(435,137,c),
(381,175,l),
(381,0,l),
(558,0,l),
(558,229,l),
(530,185,l),
(557,207,o),
(576,217,o),
(639,217,cs),
(707,217,l),
(707,355,l),
(645,355,ls),
(590,355,o),
(560,347,o),
(525,325,c),
(558,329,l),
(558,484,l),
(703,484,l)
);
}
);
width = 689;
}
);
},
{
glyphname = khaprehalfdeva;
layers = (
{
background = {
shapes = (
{
closed = 1;
nodes = (
(697,484,l),
(697,622,l),
(0,622,l),
(0,484,l),
(266,484,l),
(167,530,l),
(185,507,o),
(194,469,o),
(194,432,cs),
(194,393,o),
(182,363,o),
(154,327,c),
(259,280,l),
(218,346,o),
(187,398,o),
(120,398,cs),
(53,398,o),
(27,356,o),
(27,311,cs),
(27,275,o),
(41,236,o),
(87,185,cs),
(147,118,o),
(290,2,o),
(501,2,cs),
(599,2,o),
(661,17,o),
(729,51,c),
(695,178,l),
(631,147,o),
(579,137,o),
(501,137,cs),
(392,137,o),
(297,175,o),
(235,238,c),
(223,218,l),
(309,257,o),
(371,322,o),
(371,411,cs),
(371,460,o),
(358,496,o),
(344,525,c),
(328,484,l)
);
},
{
closed = 1;
nodes = (
(681,320,l),
(654,300,o),
(630,288,o),
(589,288,cs),
(566,288,o),
(547,297,o),
(547,316,cs),
(547,334,o),
(557,345,o),
(592,345,cs),
(607,345,o),
(628,343,o),
(640,340,c),
(652,454,l),
(622,460,o),
(595,462,o),
(573,462,cs),
(452,462,o),
(390,404,o),
(390,313,cs),
(390,218,o),
(466,169,o),
(564,169,cs),
(619,169,o),
(661,182,o),
(707,207,c)
);
}
);
};
layerId = "AB31CCB0-FABB-42DD-B4D9-C6BC88EA8185";
shapes = (
{
closed = 1;
nodes = (
(697,484,l),
(697,622,l),
(0,622,l),
(0,484,l),
(266,484,l),
(167,530,l),
(185,507,o),
(194,469,o),
(194,432,cs),
(194,393,o),
(182,363,o),
(154,327,c),
(259,280,l),
(218,346,o),
(187,398,o),
(120,398,cs),
(53,398,o),
(27,356,o),
(27,311,cs),
(27,275,o),
(41,236,o),
(87,185,cs),
(147,118,o),
(290,2,o),
(501,2,cs),
(599,2,o),
(661,17,o),
(729,51,c),
(695,178,l),
(631,147,o),
(579,137,o),
(501,137,cs),
(392,137,o),
(297,175,o),
(235,238,c),
(223,218,l),
(309,257,o),
(371,322,o),
(371,411,cs),
(371,460,o),
(358,496,o),
(344,525,c),
(328,484,l)
);
},
{
closed = 1;
nodes = (
(681,320,l),
(654,300,o),
(630,288,o),
(589,288,cs),
(566,288,o),
(547,297,o),
(547,316,cs),
(547,334,o),
(557,345,o),
(592,345,cs),
(607,345,o),
(628,343,o),
(640,340,c),
(652,454,l),
(622,460,o),
(595,462,o),
(573,462,cs),
(452,462,o),
(390,404,o),
(390,313,cs),
(390,218,o),
(466,169,o),
(564,169,cs),
(619,169,o),
(661,182,o),
(707,207,c)
);
}
);
width = 682;
}
);
},
{
glyphname = gaprehalfdeva;
layers = (
{
background = {
shapes = (
{
closed = 1;
nodes = (
(342,484,l),
(342,622,l),
(0,622,l),
(0,484,l),
(103,484,l),
(103,366,l),
(116,369,l),
(45,369,o),
(27,339,o),
(27,295,cs),
(27,223,o),
(120,123,o),
(197,123,cs),
(252,123,o),
(280,155,o),
(280,229,cs),
(280,484,l)
);
}
);
};
layerId = "AB31CCB0-FABB-42DD-B4D9-C6BC88EA8185";
shapes = (
{
closed = 1;
nodes = (
(342,484,l),
(342,622,l),
(0,622,l),
(0,484,l),
(103,484,l),
(103,366,l),
(116,369,l),
(45,369,o),
(27,339,o),
(27,295,cs),
(27,223,o),
(120,123,o),
(197,123,cs),
(252,123,o),
(280,155,o),
(280,229,cs),
(280,484,l)
);
}
);
width = 327;
}
);
},
{
glyphname = ghaprehalfdeva;
layers = (
{
background = {
shapes = (
{
closed = 1;
nodes = (
(243,268,o),
(260,279,o),
(297,279,cs),
(307,279,o),
(319,279,o),
(328,278,c),
(337,410,l),
(322,413,o),
(301,415,o),
(286,415,cs),
(232,415,o),
(182,407,o),
(145,383,c),
(135,368,l),
(88,338,o),
(66,291,o),
(66,245,cs),
(66,143,o),
(145,75,o),
(281,75,cs),
(364,75,o),
(437,98,o),
(520,163,c),
(438,282,l),
(406,247,o),
(358,213,o),
(295,213,cs),
(263,213,o),
(243,224,o),
(243,247,cs)
);
},
{
closed = 1;
nodes = (
(109,561,l),
(54,535,o),
(27,491,o),
(27,437,cs),
(27,345,o),
(120,284,o),
(245,284,c),
(258,404,l),
(226,405,o),
(204,423,o),
(204,452,cs),
(204,475,o),
(216,490,o),
(251,507,c)
);
},
{
closed = 1;
nodes = (
(427,622,l),
(0,622,l),
(0,484,l),
(427,484,l)
);
}
);
};
layerId = "AB31CCB0-FABB-42DD-B4D9-C6BC88EA8185";
shapes = (
{
closed = 1;
nodes = (
(243,268,o),
(260,279,o),
(297,279,cs),
(307,279,o),
(319,279,o),
(328,278,c),
(337,410,l),
(322,413,o),
(301,415,o),
(286,415,cs),
(232,415,o),
(182,407,o),
(145,383,c),
(135,368,l),
(88,338,o),
(66,291,o),
(66,245,cs),
(66,143,o),
(145,75,o),
(281,75,cs),
(364,75,o),
(437,98,o),
(520,163,c),
(438,282,l),
(406,247,o),
(358,213,o),
(295,213,cs),
(263,213,o),
(243,224,o),
(243,247,cs)
);
},
{
closed = 1;
nodes = (
(109,561,l),
(54,535,o),
(27,491,o),
(27,437,cs),
(27,345,o),
(120,284,o),
(245,284,c),
(258,404,l),
(226,405,o),
(204,423,o),
(204,452,cs),
(204,475,o),
(216,490,o),
(251,507,c)
);
},
{
closed = 1;
nodes = (
(427,622,l),
(0,622,l),
(0,484,l),
(427,484,l)
);
}
);
width = 412;
}
);
},
{
glyphname = caprehalfdeva;
layers = (
{
background = {
shapes = (
{
closed = 1;
nodes = (
(483,269,l),
(450,234,o),
(409,212,o),
(361,212,cs),
(322,212,o),
(305,229,o),
(305,255,cs),
(305,281,o),
(324,297,o),
(374,297,cs),
(406,297,l),
(418,429,l),
(402,431,o),
(377,433,o),
(360,433,cs),
(34,433,l),
(34,296,l),
(154,300,l),
(138,284,o),
(128,257,o),
(128,228,cs),
(128,129,o),
(204,73,o),
(341,73,cs),
(420,73,o),
(490,95,o),
(564,156,c)
);
},
{
closed = 1;
nodes = (
(0,484,l),
(470,484,l),
(470,622,l),
(0,622,l)
);
}
);
};
layerId = "AB31CCB0-FABB-42DD-B4D9-C6BC88EA8185";
shapes = (
{
closed = 1;
nodes = (
(483,269,l),
(450,234,o),
(409,212,o),
(361,212,cs),
(322,212,o),
(305,229,o),
(305,255,cs),
(305,281,o),
(324,297,o),
(374,297,cs),
(406,297,l),
(418,429,l),
(402,431,o),
(377,433,o),
(360,433,cs),
(34,433,l),
(34,296,l),
(154,300,l),
(138,284,o),
(128,257,o),
(128,228,cs),
(128,129,o),
(204,73,o),
(341,73,cs),
(420,73,o),
(490,95,o),
(564,156,c)
);
},
{
closed = 1;
nodes = (
(0,484,l),
(470,484,l),
(470,622,l),
(0,622,l)
);
}
);
width = 455;
}
);
},
{
glyphname = chaprehalfdeva;
layers = (
{
background = {
shapes = (
{
closed = 1;
nodes = (
(810,484,l),
(810,622,l),
(0,622,l),
(0,484,l)
);
},
{
closed = 1;
nodes = (
(274,135,o),
(248,144,o),
(248,164,cs),
(248,177,o),
(259,185,o),
(292,185,cs),
(304,185,o),
(315,184,o),
(321,183,c),
(338,297,l),
(323,300,o),
(305,303,o),
(278,303,cs),
(238,303,o),
(193,298,o),
(158,275,c),
(154,274,o),
(152,268,o),
(148,263,c),
(102,235,o),
(83,194,o),
(83,155,cs),
(83,64,o),
(164,0,o),
(346,0,cs),
(631,0,o),
(768,135,o),
(768,274,cs),
(768,398,o),
(678,459,o),
(545,459,cs),
(413,459,o),
(353,406,o),
(353,331,cs),
(353,261,o),
(407,213,o),
(504,182,c),
(567,283,l),
(524,298,o),
(511,309,o),
(511,329,cs),
(511,342,o),
(521,351,o),
(540,351,cs),
(576,351,o),
(589,322,o),
(589,292,cs),
(589,198,o),
(502,135,o),
(347,135,cs)
);
},
{
closed = 1;
nodes = (
(251,291,l),
(214,296,o),
(195,305,o),
(195,321,cs),
(195,337,o),
(208,344,o),
(244,344,cs),
(266,344,o),
(287,342,o),
(308,338,c),
(320,453,l),
(291,459,o),
(247,462,o),
(223,462,cs),
(97,462,o),
(25,417,o),
(25,335,cs),
(25,249,o),
(102,195,o),
(222,174,c)
);
}
);
};
layerId = "AB31CCB0-FABB-42DD-B4D9-C6BC88EA8185";
shapes = (
{
closed = 1;
nodes = (
(810,484,l),
(810,622,l),
(0,622,l),
(0,484,l)
);
},
{
closed = 1;
nodes = (
(274,135,o),
(248,144,o),
(248,164,cs),
(248,177,o),
(259,185,o),
(292,185,cs),
(304,185,o),
(315,184,o),
(321,183,c),
(338,297,l),
(323,300,o),
(305,303,o),
(278,303,cs),
(238,303,o),
(193,298,o),
(158,275,c),
(154,274,o),
(152,268,o),
(148,263,c),
(102,235,o),
(83,194,o),
(83,155,cs),
(83,64,o),
(164,0,o),
(346,0,cs),
(631,0,o),
(768,135,o),
(768,274,cs),
(768,398,o),
(678,459,o),
(545,459,cs),
(413,459,o),
(353,406,o),
(353,331,cs),
(353,261,o),
(407,213,o),
(504,182,c),
(567,283,l),
(524,298,o),
(511,309,o),
(511,329,cs),
(511,342,o),
(521,351,o),
(540,351,cs),
(576,351,o),
(589,322,o),
(589,292,cs),
(589,198,o),
(502,135,o),
(347,135,cs)
);
},
{
closed = 1;
nodes = (
(251,291,l),
(214,296,o),
(195,305,o),
(195,321,cs),
(195,337,o),
(208,344,o),
(244,344,cs),
(266,344,o),
(287,342,o),
(308,338,c),
(320,453,l),
(291,459,o),
(247,462,o),
(223,462,cs),
(97,462,o),
(25,417,o),
(25,335,cs),
(25,249,o),
(102,195,o),
(222,174,c)
);
}
);
width = 795;
}
);
},
{
glyphname = japrehalfdeva;
layers = (
{
background = {
shapes = (
{
closed = 1;
nodes = (
(0,484,l),
(652,484,l),
(652,622,l),
(0,622,l)
);
},
{
closed = 1;
nodes = (
(637,426,l),
(347,426,l),
(299,328,l),
(358,293,o),
(384,266,o),
(384,229,cs),
(384,202,o),
(369,191,o),
(346,191,cs),
(274,191,o),
(219,265,o),
(158,420,c),
(14,366,l),
(109,106,o),
(239,52,o),
(361,52,cs),
(480,52,o),
(559,105,o),
(559,200,cs),
(559,281,o),
(503,323,o),
(403,373,c),
(502,298,l),
(521,294,o),
(554,293,o),
(590,293,cs),
(637,293,l)
);
}
);
};
layerId = "AB31CCB0-FABB-42DD-B4D9-C6BC88EA8185";
shapes = (
{
closed = 1;
nodes = (
(0,484,l),
(652,484,l),
(652,622,l),
(0,622,l)
);
},
{
closed = 1;
nodes = (
(637,426,l),
(347,426,l),
(299,328,l),
(358,293,o),
(384,266,o),
(384,229,cs),
(384,202,o),
(369,191,o),
(346,191,cs),
(274,191,o),
(219,265,o),
(158,420,c),
(14,366,l),
(109,106,o),
(239,52,o),
(361,52,cs),
(480,52,o),
(559,105,o),
(559,200,cs),
(559,281,o),
(503,323,o),
(403,373,c),
(502,298,l),
(521,294,o),
(554,293,o),
(590,293,cs),
(637,293,l)
);
}
);
width = 637;
}
);
},
{
glyphname = jhaprehalfdeva;
layers = (
{
background = {
shapes = (
{
closed = 1;
nodes = (
(325,181,o),
(337,174,o),
(337,157,cs),
(337,139,o),
(315,126,o),
(248,126,cs),
(222,126,o),
(175,129,o),
(124,150,c),
(152,18,l),
(232,-34,o),
(333,-91,o),
(428,-132,c),
(484,-13,l),
(413,4,o),
(310,37,o),
(261,59,c),
(214,124,o),
(160,164,o),
(108,164,cs),
(73,164,o),
(34,147,o),
(34,92,cs),
(34,20,o),
(102,0,o),
(227,0,cs),
(258,0,o),
(259,6,o),
(265,6,c),
(450,-3,o),
(511,73,o),
(511,153,cs),
(511,237,o),
(451,299,o),
(321,299,cs),
(276,299,o),
(254,295,o),
(225,290,c),
(216,299,o),
(210,306,o),
(210,317,cs),
(210,321,o),
(211,324,o),
(214,327,cs),
(218,331,o),
(225,333,o),
(238,333,cs),
(458,333,l),
(458,484,l),
(549,484,l),
(549,622,l),
(0,622,l),
(0,484,l),
(284,484,l),
(284,444,l),
(238,444,ls),
(139,444,o),
(107,436,o),
(75,409,cs),
(47,386,o),
(37,358,o),
(37,325,cs),
(37,254,o),
(103,196,o),
(169,166,c),
(202,176,o),
(243,181,o),
(273,181,cs)
);
},
{
closed = 1;
nodes = (
(443,281,o),
(397,288,o),
(376,294,c),
(377,262,l),
(428,161,l),
(443,155,o),
(470,149,o),
(522,149,cs),
(555,149,o),
(596,154,o),
(629,169,c),
(606,298,l),
(568,285,o),
(531,281,o),
(496,281,cs)
);
}
);
};
layerId = "AB31CCB0-FABB-42DD-B4D9-C6BC88EA8185";
shapes = (
{
closed = 1;
nodes = (
(325,181,o),
(337,174,o),
(337,157,cs),
(337,139,o),
(315,126,o),
(248,126,cs),
(222,126,o),
(175,129,o),
(124,150,c),
(152,18,l),
(232,-34,o),
(333,-91,o),
(428,-132,c),
(484,-13,l),
(413,4,o),
(310,37,o),
(261,59,c),
(214,124,o),
(160,164,o),
(108,164,cs),
(73,164,o),
(34,147,o),
(34,92,cs),
(34,20,o),
(102,0,o),
(227,0,cs),
(258,0,o),
(259,6,o),
(265,6,c),
(450,-3,o),
(511,73,o),
(511,153,cs),
(511,237,o),
(451,299,o),
(321,299,cs),
(276,299,o),
(254,295,o),
(225,290,c),
(216,299,o),
(210,306,o),
(210,317,cs),
(210,321,o),
(211,324,o),
(214,327,cs),
(218,331,o),
(225,333,o),
(238,333,cs),
(458,333,l),
(458,484,l),
(549,484,l),
(549,622,l),
(0,622,l),
(0,484,l),
(284,484,l),
(284,444,l),
(238,444,ls),
(139,444,o),
(107,436,o),
(75,409,cs),
(47,386,o),
(37,358,o),
(37,325,cs),
(37,254,o),
(103,196,o),
(169,166,c),
(202,176,o),
(243,181,o),
(273,181,cs)
);
},
{
closed = 1;
nodes = (
(443,281,o),
(397,288,o),
(376,294,c),
(377,262,l),
(428,161,l),
(443,155,o),
(470,149,o),
(522,149,cs),
(555,149,o),
(596,154,o),
(629,169,c),
(606,298,l),
(568,285,o),
(531,281,o),
(496,281,cs)
);
}
);
width = 534;
}
);
},
{
glyphname = nyaprehalfdeva;
layers = (
{
background = {
shapes = (
{
closed = 1;
nodes = (
(0,484,l),
(655,484,l),
(655,622,l),
(0,622,l)
);
},
{
closed = 1;
nodes = (
(650,329,l),
(635,323,o),
(610,321,o),
(593,321,cs),
(569,321,o),
(552,325,o),
(537,331,c),
(550,206,l),
(563,204,o),
(574,203,o),
(586,203,cs),
(616,203,o),
(639,205,o),
(658,210,c)
);
},
{
closed = 1;
nodes = (
(275,285,l),
(303,296,o),
(326,302,o),
(354,302,cs),
(390,302,o),
(413,289,o),
(413,255,cs),
(413,221,o),
(391,206,o),
(344,206,cs),
(272,206,o),
(206,261,o),
(155,361,c),
(14,302,l),
(96,130,o),
(227,68,o),
(351,68,cs),
(467,68,o),
(584,102,o),
(584,254,cs),
(584,374,o),
(511,440,o),
(385,440,cs),
(322,440,o),
(274,429,o),
(226,411,c)
);
}
);
};
layerId = "AB31CCB0-FABB-42DD-B4D9-C6BC88EA8185";
shapes = (
{
closed = 1;
nodes = (
(0,484,l),
(655,484,l),
(655,622,l),
(0,622,l)
);
},
{
closed = 1;
nodes = (
(650,329,l),
(635,323,o),
(610,321,o),
(593,321,cs),
(569,321,o),
(552,325,o),
(537,331,c),
(550,206,l),
(563,204,o),
(574,203,o),
(586,203,cs),
(616,203,o),
(639,205,o),
(658,210,c)
);
},
{
closed = 1;
nodes = (
(275,285,l),
(303,296,o),
(326,302,o),
(354,302,cs),
(390,302,o),
(413,289,o),
(413,255,cs),
(413,221,o),
(391,206,o),
(344,206,cs),
(272,206,o),
(206,261,o),
(155,361,c),
(14,302,l),
(96,130,o),
(227,68,o),
(351,68,cs),
(467,68,o),
(584,102,o),
(584,254,cs),
(584,374,o),
(511,440,o),
(385,440,cs),
(322,440,o),
(274,429,o),
(226,411,c)
);
}
);
width = 640;
}
);
},
{
glyphname = nnaprehalfdeva;
layers = (
{
background = {
shapes = (
{
closed = 1;
nodes = (
(379,103,o),
(436,122,o),
(470,162,cs),
(499,196,o),
(516,232,o),
(516,328,cs),
(516,484,l),
(554,484,l),
(554,622,l),
(0,622,l),
(0,484,l),
(59,484,l),
(59,338,ls),
(59,244,o),
(75,203,o),
(105,169,cs),
(144,124,o),
(204,103,o),
(289,103,cs)
);
},
{
closed = 1;
nodes = (
(268,241,o),
(254,247,o),
(246,260,cs),
(238,273,o),
(236,289,o),
(236,323,cs),
(236,484,l),
(339,484,l),
(339,323,ls),
(339,289,o),
(336,270,o),
(325,256,cs),
(317,246,o),
(304,241,o),
(287,241,cs)
);
}
);
};
layerId = "AB31CCB0-FABB-42DD-B4D9-C6BC88EA8185";
shapes = (
{
closed = 1;
nodes = (
(379,103,o),
(436,122,o),
(470,162,cs),
(499,196,o),
(516,232,o),
(516,328,cs),
(516,484,l),
(554,484,l),
(554,622,l),
(0,622,l),
(0,484,l),
(59,484,l),
(59,338,ls),
(59,244,o),
(75,203,o),
(105,169,cs),
(144,124,o),
(204,103,o),
(289,103,cs)
);
},
{
closed = 1;
nodes = (
(268,241,o),
(254,247,o),
(246,260,cs),
(238,273,o),
(236,289,o),
(236,323,cs),
(236,484,l),
(339,484,l),
(339,323,ls),
(339,289,o),
(336,270,o),
(325,256,cs),
(317,246,o),
(304,241,o),
(287,241,cs)
);
}
);
width = 539;
}
);
},
{
glyphname = taprehalfdeva;
layers = (
{
background = {
shapes = (
{
closed = 1;
nodes = (
(29,136,o),
(98,54,o),
(187,-18,c),
(296,90,l),
(239,132,o),
(207,175,o),
(207,208,cs),
(207,225,o),
(212,239,o),
(224,249,cs),
(239,263,o),
(262,267,o),
(315,267,cs),
(389,267,l),
(389,405,l),
(293,405,ls),
(167,405,o),
(121,389,o),
(80,354,cs),
(49,327,o),
(29,289,o),
(29,234,cs)
);
},
{
closed = 1;
nodes = (
(0,484,l),
(390,484,l),
(390,622,l),
(0,622,l)
);
}
);
};
layerId = "AB31CCB0-FABB-42DD-B4D9-C6BC88EA8185";
shapes = (
{
closed = 1;
nodes = (
(29,136,o),
(98,54,o),
(187,-18,c),
(296,90,l),
(239,132,o),
(207,175,o),
(207,208,cs),
(207,225,o),
(212,239,o),
(224,249,cs),
(239,263,o),
(262,267,o),
(315,267,cs),
(389,267,l),
(389,405,l),
(293,405,ls),
(167,405,o),
(121,389,o),
(80,354,cs),
(49,327,o),
(29,289,o),
(29,234,cs)
);
},
{
closed = 1;
nodes = (
(0,484,l),
(390,484,l),
(390,622,l),
(0,622,l)
);
}
);
width = 375;
}
);
},
{
glyphname = thaprehalfdeva;
layers = (
{
background = {
shapes = (
{
closed = 1;
nodes = (
(223,463,l),
(193,467,o),
(178,478,o),
(178,496,cs),
(178,511,o),
(188,522,o),
(210,522,cs),
(249,522,o),
(266,490,o),
(266,455,cs),
(266,395,o),
(231,349,o),
(108,322,c),
(145,179,o),
(227,95,o),
(376,95,cs),
(480,95,o),
(552,131,o),
(615,183,c),
(530,300,l),
(493,256,o),
(445,232,o),
(388,232,cs),
(359,232,o),
(331,240,o),
(314,258,c),
(409,297,o),
(443,369,o),
(443,443,cs),
(443,565,o),
(356,632,o),
(221,632,cs),
(119,632,o),
(40,591,o),
(40,504,cs),
(40,428,o),
(89,378,o),
(180,358,c)
);
}
);
};
layerId = "AB31CCB0-FABB-42DD-B4D9-C6BC88EA8185";
shapes = (
{
closed = 1;
nodes = (
(223,463,l),
(193,467,o),
(178,478,o),
(178,496,cs),
(178,511,o),
(188,522,o),
(210,522,cs),
(249,522,o),
(266,490,o),
(266,455,cs),
(266,395,o),
(231,349,o),
(108,322,c),
(145,179,o),
(227,95,o),
(376,95,cs),
(480,95,o),
(552,131,o),
(615,183,c),
(530,300,l),
(493,256,o),
(445,232,o),
(388,232,cs),
(359,232,o),
(331,240,o),
(314,258,c),
(409,297,o),
(443,369,o),
(443,443,cs),
(443,565,o),
(356,632,o),
(221,632,cs),
(119,632,o),
(40,591,o),
(40,504,cs),
(40,428,o),
(89,378,o),
(180,358,c)
);
}
);
width = 493;
}
);
},
{
glyphname = dhaprehalfdeva;
layers = (
{
background = {
shapes = (
{
closed = 1;
nodes = (
(496,280,l),
(457,238,o),
(410,211,o),
(353,211,cs),
(321,211,o),
(301,222,o),
(301,245,cs),
(301,266,o),
(318,277,o),
(355,277,cs),
(365,277,o),
(377,277,o),
(386,276,c),
(394,399,l),
(384,401,o),
(358,403,o),
(338,403,cs),
(287,403,o),
(240,394,o),
(202,373,cs),
(197,370,o),
(195,361,o),
(189,358,c),
(143,328,o),
(124,288,o),
(124,242,cs),
(124,140,o),
(203,73,o),
(337,73,cs),
(432,73,o),
(507,104,o),
(578,161,c)
);
},
{
closed = 1;
nodes = (
(284,396,l),
(230,403,o),
(191,431,o),
(191,473,cs),
(191,501,o),
(209,514,o),
(232,514,cs),
(253,514,o),
(265,505,o),
(265,486,cs),
(265,475,o),
(260,467,o),
(254,461,c),
(352,408,l),
(377,437,o),
(392,465,o),
(392,510,cs),
(392,578,o),
(333,632,o),
(227,632,cs),
(121,632,o),
(41,571,o),
(41,477,cs),
(41,349,o),
(152,296,o),
(269,285,c)
);
}
);
};
layerId = "AB31CCB0-FABB-42DD-B4D9-C6BC88EA8185";
shapes = (
{
closed = 1;
nodes = (
(496,280,l),
(457,238,o),
(410,211,o),
(353,211,cs),
(321,211,o),
(301,222,o),
(301,245,cs),
(301,266,o),
(318,277,o),
(355,277,cs),
(365,277,o),
(377,277,o),
(386,276,c),
(394,399,l),
(384,401,o),
(358,403,o),
(338,403,cs),
(287,403,o),
(240,394,o),
(202,373,cs),
(197,370,o),
(195,361,o),
(189,358,c),
(143,328,o),
(124,288,o),
(124,242,cs),
(124,140,o),
(203,73,o),
(337,73,cs),
(432,73,o),
(507,104,o),
(578,161,c)
);
},
{
closed = 1;
nodes = (
(284,396,l),
(230,403,o),
(191,431,o),
(191,473,cs),
(191,501,o),
(209,514,o),
(232,514,cs),
(253,514,o),
(265,505,o),
(265,486,cs),
(265,475,o),
(260,467,o),
(254,461,c),
(352,408,l),
(377,437,o),
(392,465,o),
(392,510,cs),
(392,578,o),
(333,632,o),
(227,632,cs),
(121,632,o),
(41,571,o),
(41,477,cs),
(41,349,o),
(152,296,o),
(269,285,c)
);
}
);
width = 451;
}
);
},
{
glyphname = naprehalfdeva;
layers = (
{
background = {
shapes = (
{
closed = 1;
nodes = (
(407,238,l),
(407,376,l),
(116,376,ls),
(45,376,o),
(27,346,o),
(27,302,cs),
(27,230,o),
(120,130,o),
(197,130,cs),
(252,130,o),
(280,162,o),
(280,236,cs),
(280,238,l)
);
},
{
closed = 1;
nodes = (
(0,484,l),
(408,484,l),
(408,622,l),
(0,622,l)
);
}
);
};
layerId = "AB31CCB0-FABB-42DD-B4D9-C6BC88EA8185";
shapes = (
{
closed = 1;
nodes = (
(407,238,l),
(407,376,l),
(116,376,ls),
(45,376,o),
(27,346,o),
(27,302,cs),
(27,230,o),
(120,130,o),
(197,130,cs),
(252,130,o),
(280,162,o),
(280,236,cs),
(280,238,l)
);
},
{
closed = 1;
nodes = (
(0,484,l),
(408,484,l),
(408,622,l),
(0,622,l)
);
}
);
width = 393;
}
);
},
{
glyphname = paprehalfdeva;
layers = (
{
background = {
shapes = (
{
closed = 1;
nodes = (
(376,484,l),
(376,622,l),
(0,622,l),
(0,484,l),
(57,484,l),
(57,349,ls),
(57,247,o),
(79,205,o),
(110,170,cs),
(135,141,o),
(186,113,o),
(262,113,cs),
(356,113,o),
(418,140,o),
(482,181,c),
(398,296,l),
(381,279,o),
(343,251,o),
(300,251,cs),
(276,251,o),
(261,257,o),
(252,266,cs),
(237,281,o),
(234,300,o),
(234,349,cs),
(234,484,l)
);
}
);
};
layerId = "AB31CCB0-FABB-42DD-B4D9-C6BC88EA8185";
shapes = (
{
closed = 1;
nodes = (
(376,484,l),
(376,622,l),
(0,622,l),
(0,484,l),
(57,484,l),
(57,349,ls),
(57,247,o),
(79,205,o),
(110,170,cs),
(135,141,o),
(186,113,o),
(262,113,cs),
(356,113,o),
(418,140,o),
(482,181,c),
(398,296,l),
(381,279,o),
(343,251,o),
(300,251,cs),
(276,251,o),
(261,257,o),
(252,266,cs),
(237,281,o),
(234,300,o),
(234,349,cs),
(234,484,l)
);
}
);
width = 361;
}
);
},
{
glyphname = phaprehalfdeva;
layers = (
{
background = {
shapes = (
{
closed = 1;
nodes = (
(703,622,l),
(0,622,l),
(0,484,l),
(57,484,l),
(57,349,ls),
(57,247,o),
(79,205,o),
(110,170,cs),
(136,141,o),
(186,113,o),
(262,113,cs),
(320,113,o),
(369,120,o),
(432,165,c),
(381,192,l),
(381,0,l),
(558,0,l),
(558,231,l),
(525,185,l),
(558,209,o),
(576,217,o),
(639,217,cs),
(707,217,l),
(707,355,l),
(645,355,ls),
(590,355,o),
(560,349,o),
(520,326,c),
(558,265,l),
(558,484,l),
(703,484,l)
);
},
{
closed = 1;
nodes = (
(381,484,l),
(381,220,l),
(412,308,l),
(387,282,o),
(347,251,o),
(300,251,cs),
(276,251,o),
(261,257,o),
(252,266,cs),
(237,281,o),
(234,300,o),
(234,349,cs),
(234,484,l)
);
}
);
};
layerId = "AB31CCB0-FABB-42DD-B4D9-C6BC88EA8185";
shapes = (
{
closed = 1;
nodes = (
(703,622,l),
(0,622,l),
(0,484,l),
(57,484,l),
(57,349,ls),
(57,247,o),
(79,205,o),
(110,170,cs),
(136,141,o),
(186,113,o),
(262,113,cs),
(320,113,o),
(369,120,o),
(432,165,c),
(381,192,l),
(381,0,l),
(558,0,l),
(558,231,l),
(525,185,l),
(558,209,o),
(576,217,o),
(639,217,cs),
(707,217,l),
(707,355,l),
(645,355,ls),
(590,355,o),
(560,349,o),
(520,326,c),
(558,265,l),
(558,484,l),
(703,484,l)
);
},
{
closed = 1;
nodes = (
(381,484,l),
(381,220,l),
(412,308,l),
(387,282,o),
(347,251,o),
(300,251,cs),
(276,251,o),
(261,257,o),
(252,266,cs),
(237,281,o),
(234,300,o),
(234,349,cs),
(234,484,l)
);
}
);
width = 689;
}
);
},
{
glyphname = baprehalfdeva;
layers = (
{
background = {
shapes = (
{
closed = 1;
nodes = (
(402,267,l),
(363,226,o),
(318,202,o),
(257,202,cs),
(218,202,o),
(191,212,o),
(191,257,cs),
(191,293,o),
(221,312,o),
(282,312,cs),
(316,312,o),
(341,307,o),
(360,304,c),
(375,431,l),
(341,436,o),
(309,440,o),
(265,440,cs),
(112,440,o),
(28,370,o),
(28,261,cs),
(28,134,o),
(117,73,o),
(239,73,cs),
(337,73,o),
(401,100,o),
(462,143,c)
);
},
{
closed = 1;
nodes = (
(0,484,l),
(427,484,l),
(427,622,l),
(0,622,l)
);
},
{
closed = 1;
nodes = (
(146,368,l),
(334,133,l),
(405,180,l),
(233,395,l)
);
}
);
};
layerId = "AB31CCB0-FABB-42DD-B4D9-C6BC88EA8185";
shapes = (
{
closed = 1;
nodes = (
(402,267,l),
(363,226,o),
(318,202,o),
(257,202,cs),
(218,202,o),
(191,212,o),
(191,257,cs),
(191,293,o),
(221,312,o),
(282,312,cs),
(316,312,o),
(341,307,o),
(360,304,c),
(375,431,l),
(341,436,o),
(309,440,o),
(265,440,cs),
(112,440,o),
(28,370,o),
(28,261,cs),
(28,134,o),
(117,73,o),
(239,73,cs),
(337,73,o),
(401,100,o),
(462,143,c)
);
},
{
closed = 1;
nodes = (
(0,484,l),
(427,484,l),
(427,622,l),
(0,622,l)
);
},
{
closed = 1;
nodes = (
(146,368,l),
(334,133,l),
(405,180,l),
(233,395,l)
);
}
);
width = 412;
}
);
},
{
glyphname = bhaprehalfdeva;
layers = (
{
background = {
shapes = (
{
closed = 1;
nodes = (
(584,195,l),
(584,333,l),
(442,333,l),
(442,409,ls),
(442,503,o),
(419,550,o),
(386,579,cs),
(344,615,o),
(295,632,o),
(220,632,cs),
(121,632,o),
(44,593,o),
(44,502,cs),
(44,408,o),
(122,362,o),
(228,354,c),
(238,461,l),
(199,465,o),
(185,475,o),
(185,495,cs),
(185,510,o),
(195,520,o),
(214,520,cs),
(228,520,o),
(240,516,o),
(248,508,cs),
(262,495,o),
(268,474,o),
(268,434,cs),
(268,332,l),
(274,333,l),
(204,333,o),
(189,301,o),
(189,267,cs),
(189,197,o),
(282,101,o),
(359,101,cs),
(414,101,o),
(442,129,o),
(442,193,cs),
(442,195,l)
);
},
{
closed = 1;
nodes = (
(509,484,l),
(585,484,l),
(585,622,l),
(509,622,l)
);
}
);
};
layerId = "AB31CCB0-FABB-42DD-B4D9-C6BC88EA8185";
shapes = (
{
closed = 1;
nodes = (
(584,195,l),
(584,333,l),
(442,333,l),
(442,409,ls),
(442,503,o),
(419,550,o),
(386,579,cs),
(344,615,o),
(295,632,o),
(220,632,cs),
(121,632,o),
(44,593,o),
(44,502,cs),
(44,408,o),
(122,362,o),
(228,354,c),
(238,461,l),
(199,465,o),
(185,475,o),
(185,495,cs),
(185,510,o),
(195,520,o),
(214,520,cs),
(228,520,o),
(240,516,o),
(248,508,cs),
(262,495,o),
(268,474,o),
(268,434,cs),
(268,332,l),
(274,333,l),
(204,333,o),
(189,301,o),
(189,267,cs),
(189,197,o),
(282,101,o),
(359,101,cs),
(414,101,o),
(442,129,o),
(442,193,cs),
(442,195,l)
);
},
{
closed = 1;
nodes = (
(509,484,l),
(585,484,l),
(585,622,l),
(509,622,l)
);
}
);
width = 570;
}
);
},
{
glyphname = maprehalfdeva;
layers = (
{
background = {
shapes = (
{
closed = 1;
nodes = (
(280,484,l),
(440,484,l),
(440,622,l),
(0,622,l),
(0,484,l),
(103,484,l),
(103,332,l),
(112,333,l),
(42,333,o),
(27,301,o),
(27,267,cs),
(27,197,o),
(120,101,o),
(197,101,cs),
(252,101,o),
(280,129,o),
(280,193,cs),
(280,195,l),
(439,195,l),
(439,333,l),
(280,333,l)
);
}
);
};
layerId = "AB31CCB0-FABB-42DD-B4D9-C6BC88EA8185";
shapes = (
{
closed = 1;
nodes = (
(280,484,l),
(440,484,l),
(440,622,l),
(0,622,l),
(0,484,l),
(103,484,l),
(103,332,l),
(112,333,l),
(42,333,o),
(27,301,o),
(27,267,cs),
(27,197,o),
(120,101,o),
(197,101,cs),
(252,101,o),
(280,129,o),
(280,193,cs),
(280,195,l),
(439,195,l),
(439,333,l),
(280,333,l)
);
}
);
width = 425;
}
);
},
{
glyphname = yaprehalfdeva;
layers = (
{
background = {
shapes = (
{
closed = 1;
nodes = (
(404,484,l),
(404,622,l),
(0,622,l),
(0,484,l),
(199,484,l),
(90,523,l),
(112,503,o),
(129,478,o),
(129,444,cs),
(129,396,o),
(100,372,o),
(23,355,c),
(57,201,o),
(129,95,o),
(282,95,cs),
(380,95,o),
(433,119,o),
(508,171,c),
(423,291,l),
(384,246,o),
(342,233,o),
(298,233,cs),
(254,233,o),
(222,257,o),
(206,288,c),
(267,312,o),
(305,353,o),
(305,417,cs),
(305,468,o),
(282,506,o),
(257,539,c),
(202,484,l)
);
}
);
};
layerId = "AB31CCB0-FABB-42DD-B4D9-C6BC88EA8185";
shapes = (
{
closed = 1;
nodes = (
(404,484,l),
(404,622,l),
(0,622,l),
(0,484,l),
(199,484,l),
(90,523,l),
(112,503,o),
(129,478,o),
(129,444,cs),
(129,396,o),
(100,372,o),
(23,355,c),
(57,201,o),
(129,95,o),
(282,95,cs),
(380,95,o),
(433,119,o),
(508,171,c),
(423,291,l),
(384,246,o),
(342,233,o),
(298,233,cs),
(254,233,o),
(222,257,o),
(206,288,c),
(267,312,o),
(305,353,o),
(305,417,cs),
(305,468,o),
(282,506,o),
(257,539,c),
(202,484,l)
);
}
);
width = 389;
}
);
},
{
glyphname = raprehalfdeva;
layers = (
{
background = {
shapes = (
{
closed = 1;
nodes = (
(437,484,l),
(437,622,l),
(0,622,l),
(0,484,l)
);
},
{
closed = 1;
nodes = (
(436,356,l),
(383,330,o),
(343,320,o),
(272,320,cs),
(197,320,o),
(133,347,o),
(68,380,c),
(15,258,l),
(120,199,o),
(200,179,o),
(290,179,cs),
(353,179,o),
(413,191,o),
(456,213,c)
);
}
);
};
layerId = "AB31CCB0-FABB-42DD-B4D9-C6BC88EA8185";
shapes = (
{
closed = 1;
nodes = (
(437,484,l),
(437,622,l),
(0,622,l),
(0,484,l)
);
},
{
closed = 1;
nodes = (
(436,356,l),
(383,330,o),
(343,320,o),
(272,320,cs),
(197,320,o),
(133,347,o),
(68,380,c),
(15,258,l),
(120,199,o),
(200,179,o),
(290,179,cs),
(353,179,o),
(413,191,o),
(456,213,c)
);
}
);
width = 422;
}
);
},
{
glyphname = laprehalfdeva;
layers = (
{
background = {
shapes = (
{
closed = 1;
nodes = (
(0,484,l),
(593,484,l),
(593,622,l),
(0,622,l)
);
},
{
closed = 1;
nodes = (
(411,355,l),
(344,403,o),
(306,423,o),
(219,423,cs),
(139,423,o),
(29,383,o),
(29,252,cs),
(29,156,o),
(107,69,o),
(217,-19,c),
(326,89,l),
(230,159,o),
(206,201,o),
(206,238,cs),
(206,267,o),
(224,284,o),
(253,284,cs),
(294,284,o),
(318,261,o),
(351,225,c)
);
},
{
closed = 1;
nodes = (
(613,413,l),
(595,417,o),
(575,421,o),
(547,421,cs),
(410,421,o),
(317,355,o),
(282,209,c),
(448,159,l),
(475,261,o),
(504,287,o),
(552,287,cs),
(561,287,o),
(569,286,o),
(576,285,c)
);
}
);
};
layerId = "AB31CCB0-FABB-42DD-B4D9-C6BC88EA8185";
shapes = (
{
closed = 1;
nodes = (
(0,484,l),
(593,484,l),
(593,622,l),
(0,622,l)
);
},
{
closed = 1;
nodes = (
(411,355,l),
(344,403,o),
(306,423,o),
(219,423,cs),
(139,423,o),
(29,383,o),
(29,252,cs),
(29,156,o),
(107,69,o),
(217,-19,c),
(326,89,l),
(230,159,o),
(206,201,o),
(206,238,cs),
(206,267,o),
(224,284,o),
(253,284,cs),
(294,284,o),
(318,261,o),
(351,225,c)
);
},
{
closed = 1;
nodes = (
(613,413,l),
(595,417,o),
(575,421,o),
(547,421,cs),
(410,421,o),
(317,355,o),
(282,209,c),
(448,159,l),
(475,261,o),
(504,287,o),
(552,287,cs),
(561,287,o),
(569,286,o),
(576,285,c)
);
}
);
width = 578;
}
);
},
{
glyphname = llaprehalfdeva;
layers = (
{
background = {
shapes = (
{
closed = 1;
nodes = (
(0,484,l),
(836,484,l),
(836,622,l),
(0,622,l)
);
},
{
closed = 1;
nodes = (
(473,332,l),
(401,411,o),
(334,445,o),
(242,445,cs),
(111,445,o),
(30,371,o),
(30,244,cs),
(30,96,o),
(122,24,o),
(253,24,cs),
(330,24,o),
(442,46,o),
(493,196,cs),
(501,220,ls),
(521,279,o),
(540,304,o),
(581,304,cs),
(608,304,o),
(635,286,o),
(635,236,cs),
(635,178,o),
(605,161,o),
(566,161,cs),
(516,161,o),
(487,190,o),
(441,249,c),
(369,135,l),
(441,56,o),
(508,22,o),
(600,22,cs),
(731,22,o),
(812,96,o),
(812,226,cs),
(812,367,o),
(723,443,o),
(589,443,cs),
(509,443,o),
(400,421,o),
(349,269,cs),
(341,245,ls),
(321,186,o),
(302,161,o),
(261,161,cs),
(234,161,o),
(207,179,o),
(207,229,cs),
(207,287,o),
(237,304,o),
(276,304,cs),
(326,304,o),
(355,275,o),
(401,216,c)
);
}
);
};
layerId = "AB31CCB0-FABB-42DD-B4D9-C6BC88EA8185";
shapes = (
{
closed = 1;
nodes = (
(0,484,l),
(836,484,l),
(836,622,l),
(0,622,l)
);
},
{
closed = 1;
nodes = (
(473,332,l),
(401,411,o),
(334,445,o),
(242,445,cs),
(111,445,o),
(30,371,o),
(30,244,cs),
(30,96,o),
(122,24,o),
(253,24,cs),
(330,24,o),
(442,46,o),
(493,196,cs),
(501,220,ls),
(521,279,o),
(540,304,o),
(581,304,cs),
(608,304,o),
(635,286,o),
(635,236,cs),
(635,178,o),
(605,161,o),
(566,161,cs),
(516,161,o),
(487,190,o),
(441,249,c),
(369,135,l),
(441,56,o),
(508,22,o),
(600,22,cs),
(731,22,o),
(812,96,o),
(812,226,cs),
(812,367,o),
(723,443,o),
(589,443,cs),
(509,443,o),
(400,421,o),
(349,269,cs),
(341,245,ls),
(321,186,o),
(302,161,o),
(261,161,cs),
(234,161,o),
(207,179,o),
(207,229,cs),
(207,287,o),
(237,304,o),
(276,304,cs),
(326,304,o),
(355,275,o),
(401,216,c)
);
}
);
width = 821;
}
);
},
{
glyphname = vaprehalfdeva;
layers = (
{
background = {
shapes = (
{
closed = 1;
nodes = (
(387,271,l),
(351,233,o),
(310,212,o),
(261,212,cs),
(237,212,o),
(205,217,o),
(205,257,cs),
(205,285,o),
(230,302,o),
(278,302,cs),
(308,302,o),
(329,299,o),
(345,296,c),
(360,431,l),
(328,436,o),
(297,440,o),
(254,440,cs),
(113,440,o),
(28,369,o),
(28,261,cs),
(28,134,o),
(114,73,o),
(243,73,cs),
(318,73,o),
(396,101,o),
(448,143,c)
);
},
{
closed = 1;
nodes = (
(0,484,l),
(413,484,l),
(413,622,l),
(0,622,l)
);
}
);
};
layerId = "AB31CCB0-FABB-42DD-B4D9-C6BC88EA8185";
shapes = (
{
closed = 1;
nodes = (
(387,271,l),
(351,233,o),
(310,212,o),
(261,212,cs),
(237,212,o),
(205,217,o),
(205,257,cs),
(205,285,o),
(230,302,o),
(278,302,cs),
(308,302,o),
(329,299,o),
(345,296,c),
(360,431,l),
(328,436,o),
(297,440,o),
(254,440,cs),
(113,440,o),
(28,369,o),
(28,261,cs),
(28,134,o),
(114,73,o),
(243,73,cs),
(318,73,o),
(396,101,o),
(448,143,c)
);
},
{
closed = 1;
nodes = (
(0,484,l),
(413,484,l),
(413,622,l),
(0,622,l)
);
}
);
width = 398;
}
);
},
{
glyphname = shaprehalfdeva;
layers = (
{
background = {
shapes = (
{
closed = 1;
nodes = (
(347,135,o),
(485,246,o),
(485,420,cs),
(485,561,o),
(374,632,o),
(238,632,cs),
(113,632,o),
(47,578,o),
(47,490,cs),
(47,409,o),
(112,352,o),
(251,337,c),
(289,444,l),
(231,451,o),
(211,466,o),
(211,491,cs),
(211,510,o),
(226,519,o),
(244,519,cs),
(281,519,o),
(308,486,o),
(308,428,cs),
(308,335,o),
(238,275,o),
(148,266,c),
(138,219,l),
(196,172,o),
(279,94,o),
(364,-8,c),
(488,87,l),
(432,142,o),
(362,202,o),
(303,244,cs),
(284,258,l),
(244,300,o),
(179,322,o),
(134,322,cs),
(66,322,o),
(28,288,o),
(28,235,cs),
(28,166,o),
(86,134,o),
(159,134,cs)
);
}
);
};
layerId = "AB31CCB0-FABB-42DD-B4D9-C6BC88EA8185";
shapes = (
{
closed = 1;
nodes = (
(347,135,o),
(485,246,o),
(485,420,cs),
(485,561,o),
(374,632,o),
(238,632,cs),
(113,632,o),
(47,578,o),
(47,490,cs),
(47,409,o),
(112,352,o),
(251,337,c),
(289,444,l),
(231,451,o),
(211,466,o),
(211,491,cs),
(211,510,o),
(226,519,o),
(244,519,cs),
(281,519,o),
(308,486,o),
(308,428,cs),
(308,335,o),
(238,275,o),
(148,266,c),
(138,219,l),
(196,172,o),
(279,94,o),
(364,-8,c),
(488,87,l),
(432,142,o),
(362,202,o),
(303,244,cs),
(284,258,l),
(244,300,o),
(179,322,o),
(134,322,cs),
(66,322,o),
(28,288,o),
(28,235,cs),
(28,166,o),
(86,134,o),
(159,134,cs)
);
}
);
width = 495;
}
);
},
{
glyphname = ssaprehalfdeva;
layers = (
{
background = {
shapes = (
{
closed = 1;
nodes = (
(292,484,l),
(437,484,l),
(437,622,l),
(0,622,l),
(0,484,l),
(57,484,l),
(57,349,ls),
(57,247,o),
(79,205,o),
(110,170,cs),
(135,141,o),
(186,113,o),
(262,113,cs),
(342,113,o),
(406,129,o),
(475,169,c),
(415,325,l)
);
},
{
closed = 1;
nodes = (
(271,251,o),
(256,257,o),
(247,266,cs),
(232,281,o),
(229,300,o),
(229,349,cs),
(229,425,l),
(355,262,l),
(337,255,o),
(315,251,o),
(295,251,cs)
);
}
);
};
layerId = "AB31CCB0-FABB-42DD-B4D9-C6BC88EA8185";
shapes = (
{
closed = 1;
nodes = (
(292,484,l),
(437,484,l),
(437,622,l),
(0,622,l),
(0,484,l),
(57,484,l),
(57,349,ls),
(57,247,o),
(79,205,o),
(110,170,cs),
(135,141,o),
(186,113,o),
(262,113,cs),
(342,113,o),
(406,129,o),
(475,169,c),
(415,325,l)
);
},
{
closed = 1;
nodes = (
(271,251,o),
(256,257,o),
(247,266,cs),
(232,281,o),
(229,300,o),
(229,349,cs),
(229,425,l),
(355,262,l),
(337,255,o),
(315,251,o),
(295,251,cs)
);
}
);
width = 422;
}
);
},
{
glyphname = saprehalfdeva;
layers = (
{
background = {
shapes = (
{
closed = 1;
nodes = (
(524,484,l),
(524,622,l),
(0,622,l),
(0,484,l),
(266,484,l),
(167,530,l),
(185,507,o),
(194,469,o),
(194,432,cs),
(194,393,o),
(182,363,o),
(154,327,c),
(259,280,l),
(218,346,o),
(187,398,o),
(120,398,cs),
(54,398,o),
(27,356,o),
(27,311,cs),
(27,276,o),
(41,242,o),
(74,202,cs),
(129,136,o),
(221,61,o),
(327,-18,c),
(426,101,l),
(363,143,o),
(291,195,o),
(240,237,c),
(223,217,l),
(256,230,o),
(286,252,o),
(311,275,c),
(330,295,l),
(353,323,o),
(371,362,o),
(371,411,cs),
(371,460,o),
(358,496,o),
(344,525,c),
(345,484,l)
);
},
{
closed = 1;
nodes = (
(357,340,o),
(322,347,o),
(261,363,c),
(247,245,l),
(288,225,o),
(354,202,o),
(432,202,cs),
(467,202,o),
(502,206,o),
(534,213,c),
(517,349,l),
(484,342,o),
(456,340,o),
(420,340,cs)
);
}
);
};
layerId = "AB31CCB0-FABB-42DD-B4D9-C6BC88EA8185";
shapes = (
{
closed = 1;
nodes = (
(524,484,l),
(524,622,l),
(0,622,l),
(0,484,l),
(266,484,l),
(167,530,l),
(185,507,o),
(194,469,o),
(194,432,cs),
(194,393,o),
(182,363,o),
(154,327,c),
(259,280,l),
(218,346,o),
(187,398,o),
(120,398,cs),
(54,398,o),
(27,356,o),
(27,311,cs),
(27,276,o),
(41,242,o),
(74,202,cs),
(129,136,o),
(221,61,o),
(327,-18,c),
(426,101,l),
(363,143,o),
(291,195,o),
(240,237,c),
(223,217,l),
(256,230,o),
(286,252,o),
(311,275,c),
(330,295,l),
(353,323,o),
(371,362,o),
(371,411,cs),
(371,460,o),
(358,496,o),
(344,525,c),
(345,484,l)
);
},
{
closed = 1;
nodes = (
(357,340,o),
(322,347,o),
(261,363,c),
(247,245,l),
(288,225,o),
(354,202,o),
(432,202,cs),
(467,202,o),
(502,206,o),
(534,213,c),
(517,349,l),
(484,342,o),
(456,340,o),
(420,340,cs)
);
}
);
width = 509;
}
);
},
{
glyphname = haprehalfdeva;
layers = (
{
background = {
shapes = (
{
closed = 1;
nodes = (
(277,216,l),
(246,233,o),
(218,259,o),
(218,284,cs),
(218,293,o),
(221,300,o),
(226,304,cs),
(234,311,o),
(246,313,o),
(269,313,cs),
(462,313,l),
(462,484,l),
(546,484,l),
(546,622,l),
(0,622,l),
(0,484,l),
(288,484,l),
(288,444,l),
(272,444,ls),
(165,444,o),
(127,432,o),
(91,404,cs),
(65,383,o),
(45,352,o),
(45,308,cs),
(45,241,o),
(84,197,o),
(119,164,c)
);
},
{
closed = 1;
nodes = (
(560,267,l),
(329,267,ls),
(227,267,o),
(155,250,o),
(111,222,cs),
(61,190,o),
(32,152,o),
(32,91,cs),
(32,-6,o),
(99,-84,o),
(205,-173,c),
(314,-65,l),
(237,-6,o),
(209,32,o),
(209,70,cs),
(209,89,o),
(214,102,o),
(224,111,cs),
(242,127,o),
(267,129,o),
(317,129,cs),
(560,129,l)
);
}
);
};
layerId = "AB31CCB0-FABB-42DD-B4D9-C6BC88EA8185";
shapes = (
{
closed = 1;
nodes = (
(277,216,l),
(246,233,o),
(218,259,o),
(218,284,cs),
(218,293,o),
(221,300,o),
(226,304,cs),
(234,311,o),
(246,313,o),
(269,313,cs),
(462,313,l),
(462,484,l),
(546,484,l),
(546,622,l),
(0,622,l),
(0,484,l),
(288,484,l),
(288,444,l),
(272,444,ls),
(165,444,o),
(127,432,o),
(91,404,cs),
(65,383,o),
(45,352,o),
(45,308,cs),
(45,241,o),
(84,197,o),
(119,164,c)
);
},
{
closed = 1;
nodes = (
(560,267,l),
(329,267,ls),
(227,267,o),
(155,250,o),
(111,222,cs),
(61,190,o),
(32,152,o),
(32,91,cs),
(32,-6,o),
(99,-84,o),
(205,-173,c),
(314,-65,l),
(237,-6,o),
(209,32,o),
(209,70,cs),
(209,89,o),
(214,102,o),
(224,111,cs),
(242,127,o),
(267,129,o),
(317,129,cs),
(560,129,l)
);
}
);
width = 531;
}
);
},
